<svg width="380" height="368" fill="none" xmlns="http://www.w3.org/2000/svg"><path d="M145.409 96.22a21.847 21.847 0 0 1-2.567 1.99.448.448 0 0 0-.187.458.447.447 0 0 0 .684.28 18.61 18.61 0 0 0 3.005-1.991c.856-.896.179-1.99-.258-2.806-1.553-2.647-1.99-3.224-4.239-6.766a.52.52 0 0 0-.676-.12.52.52 0 0 0-.2.657 55.842 55.842 0 0 1 4.438 8.299Zm-12.318 15.742a.564.564 0 0 0 .209-.767.562.562 0 0 0-.766-.209 13.355 13.355 0 0 1-16.955-4.596.482.482 0 1 0-.836.477 13.441 13.441 0 0 0 8.118 6.352 13.45 13.45 0 0 0 10.23-1.257Zm-7.284-34.01a.716.716 0 0 0-1.412 0 37.71 37.71 0 0 0 .139 4.836.916.916 0 0 0 1.811-.219c-.02-.796-.458-3.8-.538-4.617Zm28.836-1.313a.7.7 0 0 0-.697-.697.694.694 0 0 0-.696.697v5.97a.914.914 0 0 0 1.547.36.918.918 0 0 0 .244-.579c.079-.537-.418-4.856-.398-5.751Zm.119-9.77c-1.194-.3-1.612 1.571-.438 1.77a3.74 3.74 0 0 1 3.025 3.662.7.7 0 0 0 .687.579.698.698 0 0 0 .686-.58 5.39 5.39 0 0 0-3.96-5.433Zm-30.248 2.029a5.57 5.57 0 0 0-4.497 4.477.7.7 0 0 0 .537.836.703.703 0 0 0 .836-.537 4.122 4.122 0 0 1 3.482-3.005.905.905 0 0 0 .321-1.638.905.905 0 0 0-.679-.133Zm108.694 225.805-5.791.478c.836-1.811 1.691-3.622 2.507-5.413a.304.304 0 0 0-.129-.408.304.304 0 0 0-.408.129c-1.055 1.99-2.129 3.861-3.224 5.811-10.646.876-38.705 2.149-42.427 2.189a.635.635 0 0 0-.636.637.636.636 0 0 0 .636.637c12.239 0 37.532-1.891 41.79-2.229-1.99 3.383-5.97 9.95-6.547 11.204-3.044 0-30.447.338-33.71.278a.618.618 0 1 0 0 1.234c13.193.338 23.382.279 32.914-.179l-2.726 4.279c-5.154-3.165-12.895-1.453-14.706 4.636a46.92 46.92 0 0 1-6.846-3.98c-.298-.199-.656.219-.378.458a56.343 56.343 0 0 0 6.786 5.532c-1.094 7.96 6.706 13.154 14.069 10.607a9.653 9.653 0 0 0 5.592-5.294 10.948 10.948 0 0 0-2.288-10.188c1.035-1.99 1.99-4.1 3.104-6.169 2.886-.14 8.517-.438 11.423-.777a.436.436 0 0 0 .248-.702.436.436 0 0 0-.248-.153c-2.727 0-8.677.278-10.746.358.119-.279 4.199-8.676 5.413-11.263a239.6 239.6 0 0 0 6.467-.776.473.473 0 0 0-.139-.936Zm-22.845 26.606c-2.249-.557-7.304-2.407-8.498-2.845 1.672-5.572 8.318-6.925 12.955-4.139-1.413 2.268-2.925 4.577-4.457 6.984Zm-8.896-.577a58.015 58.015 0 0 0 10.149 5.314.362.362 0 0 0 .378-.14 808.69 808.69 0 0 0 5.135-9.751 9.28 9.28 0 0 1 1.99 8.199c-3.244 9.492-18.368 6.547-17.652-3.602v-.02Zm20.915-121.051c9.154 0 9.353-.159 9.373-.538 0-1.333-.279-42.227-1.393-68.953a.575.575 0 0 0-.497-.816c-3.821-.139-54.885.418-59.263.557-.298 0-.915.378-.935.816-.119 9.333-.736 64.237-.716 67.998 0 .259.358.637.617.617 3.621-.079 46.964.319 52.814.319Zm6.985-69.153c.219 5.831 1.174 65.969 1.234 67.959-2.866-.179-5.751-.199-8.597-.219.498-3.721 1.055-5.97.418-8.497a4.323 4.323 0 0 0 5.254-2.866.3.3 0 0 0-.248-.388.293.293 0 0 0-.17.03c-2.229 1.054-4.279 0-6.428-2.786a13.953 13.953 0 0 1-1.672-2.866 7.264 7.264 0 0 1-.915-3.721c0-1.035.358-2.129.856-2.229.497-.099 1.413.657 1.373 1.512a1.683 1.683 0 0 1-.677 1.175.298.298 0 0 0 .239.517 2.929 2.929 0 0 0 2.448-1.711c.577-1.791-1.413-4.279-3.423-6.468 0 0-.856-.995-1.99-2.368a12.798 12.798 0 0 1-1.831-7.482 12.752 12.752 0 0 0 1.194-7.324 3.7 3.7 0 0 0 2.249-.298.262.262 0 0 0 .119-.199 16.914 16.914 0 0 0-1.234-9.015c-2.189-5.054-8.099-11.144-14.427-8.915a14.865 14.865 0 0 0-9.751-.119c-4.995 1.592-7.96 6.626-8.995 8.517a22.243 22.243 0 0 0-2.706 10.527c-.339 4.836.358 5.512-.378 8.816a30.827 30.827 0 0 1-4.936 10.188 14.311 14.311 0 0 0-1.99 3.761 16.46 16.46 0 0 0-1.015 5.035 41.859 41.859 0 0 0-2.925 3.622c0-3.98.398-52.655.418-53.73 5.214.02 54.188-.398 58.506-.458Zm-21.691 20.139a5.012 5.012 0 0 1 0-2.428 6.568 6.568 0 0 0 1.234 2.269c.07.028.148.028.219 0h.338a17.124 17.124 0 0 0-.736 5.393 2.428 2.428 0 0 0-2.13 0 21.959 21.959 0 0 0-.398-4.717l1.214-.179a.29.29 0 0 0 .201-.115.293.293 0 0 0 .058-.223Zm-1.99 5.831c0 2.209-.975 4.776-2.746 5.214-3.98.995-5.592-7.582-3.463-10.806a3.383 3.383 0 0 1 2.926-1.513c2.925 0 3.363 4.14 3.243 7.105h.04Zm7.522 3.98a1.992 1.992 0 0 1-1.87-.438 4.51 4.51 0 0 1-1.453-3.204c-.139-1.413-.139-5.453 1.512-6.985a2.178 2.178 0 0 1 1.99-.537c1.095.179 2.349 1.433 2.189 6.268-.099 2.548-.915 4.259-2.408 4.896h.04Zm-22.308-6.527a3.973 3.973 0 0 0-2.527 0c.179-10.746-.577-9.433 0-12.537.557-4.378 6.846-7.96 13.194-6.368-5.871 3.184-10.448 12.397-10.667 18.905Zm-3.144 1.592a3.22 3.22 0 0 1 3.164-.319c.039.984.29 1.948.737 2.826 1.472 2.786 3.721 4.398 5.193 1.632a.306.306 0 0 0 .037-.138.3.3 0 0 0-.255-.3c-2.806-.338-3.045-4.657.716-5.572 0 2.547 0 6.487 2.726 8.457a3.64 3.64 0 0 0 4.637-.318 6.707 6.707 0 0 0 1.831-4.517c.223-.278.543-.463.895-.518a1.555 1.555 0 0 1 1.413.518 4.32 4.32 0 0 0 3.98 4.298 15.054 15.054 0 0 1-.637 4.119c-.656 2.229-2.666 7.523-8.258 6.627a.313.313 0 0 0-.312.192.307.307 0 0 0-.026.127c.179 3.98.119 3.98.378 3.98.995.437 1.99 4.119.816 5.85-1.175 1.731-3.543 1.433-5.513.12-1.552-8.319-1.194-14.846-7.781-20.895a.293.293 0 0 0-.278 0 3.628 3.628 0 0 1-4.211-1.693 3.623 3.623 0 0 1 .748-4.476Zm7.781 32.158a8.116 8.116 0 0 0 8.398 5.313.298.298 0 1 0 0-.597 5.036 5.036 0 0 1-3.98-5.353c0-.716-.159-1.652-.358-2.965 5.094 2.905 8.736-2.388 6.169-7.144 11.343 2.408 15.323 13.93 15.263 21.293h-26.288c.259-3.701.557-7.264.796-10.547Zm-25.193-.995c1.472-2.289 4.358-6.468 6.985-5.731 4.716 1.273 8.676 8.298 9.691 17.154h-16.836c.08-3.463.12-7.105.16-11.423ZM293.326 184c-5.732 0-50.029.398-51.979.258a.522.522 0 0 0-.417.508.52.52 0 0 0 .417.507c12.298.617 45.889-.318 52.018-.676a.293.293 0 0 0 .113-.031.292.292 0 0 0 .151-.172.286.286 0 0 0 .015-.116.321.321 0 0 0-.03-.113.288.288 0 0 0-.173-.15.281.281 0 0 0-.115-.015Zm-52.676-12.179c12.975.875 48.318-.159 52.855-.637a.393.393 0 0 0 .222-.14.392.392 0 0 0 .087-.248c0-.09-.03-.178-.087-.248a.393.393 0 0 0-.222-.14c-6.428.378-48.735.497-52.755.259-.796-.08-.856 1.094-.1 1.154Zm.717-13.691a.573.573 0 0 0-.577.577.575.575 0 0 0 .577.577c12.636.438 48.934 0 52.456-.796a.299.299 0 0 0 0-.577s-48.675.219-52.456.219Zm-.04-11.363c8.676.318 39.959.358 42.904-.577a.3.3 0 0 0 .211-.51.296.296 0 0 0-.211-.087c-10.925.278-39.422.119-42.765 0a.6.6 0 0 0-.58.526.602.602 0 0 0 .441.648Zm-47.183 103.798a.53.53 0 0 0 .43-.244.54.54 0 0 0 .048-.492c.099-1.811-.12-7.562-.12-9.095 1.433-1.233 3.005-2.447 4.418-3.721a.485.485 0 0 0 .151-.348.465.465 0 0 0-.151-.348c-.557-.378-3.244 1.771-4.358 2.726-.139-.617-.179-.557-13.114-.697a.594.594 0 0 0-.626.573.592.592 0 0 0 .069.303c0 1.214.159 8.358.159 10.706a.597.597 0 0 0 .557.577c1.274.02 12.258.08 12.537.06Zm-12.099-10.985c12.736.259 11.442 0 11.462.398a35.5 35.5 0 0 0-4.915 5.035c-.955-1.274-1.99-2.448-2.826-3.701-.358-.498-1.154 0-.796.537 1.095 1.572 1.99 3.204 3.144 4.796a.694.694 0 0 0 .673.292.7.7 0 0 0 .561-.471 30.508 30.508 0 0 1 4.219-4.796c0 1.99 0 6.069.139 7.8-1.85 0-9.233-.099-11.482-.099-.179-2.189-.179-8.716-.179-9.791Zm16.875-20.835a.479.479 0 0 0 0-.697c-.557-.378-3.244 1.772-4.358 2.727-.139-.617-.139-.557-13.114-.717a.62.62 0 0 0-.531.291.61.61 0 0 0-.026.605c0 1.214.159 8.358.159 10.706a.6.6 0 0 0 .557.577h12.577a.52.52 0 0 0 .515-.467.516.516 0 0 0-.038-.249c.1-1.811-.119-7.562-.119-9.095 1.433-1.213 2.945-2.388 4.378-3.681Zm-16.875 2.567c12.736.259 11.442 0 11.462.398a34.41 34.41 0 0 0-4.915 5.035c-.915-1.214-1.99-2.468-2.826-3.702-.358-.497-1.154 0-.796.518 1.095 1.572 1.99 3.224 3.144 4.816a.694.694 0 0 0 .673.292.7.7 0 0 0 .561-.472 29.7 29.7 0 0 1 4.219-4.795c0 1.99 0 5.97.139 7.8h-11.482c-.179-2.288-.179-8.815-.179-9.89Zm16.875-19.661a.479.479 0 0 0 0-.697c-.557-.378-3.244 1.771-4.358 2.727a.575.575 0 0 0-.557-.458c-3.98-.179-12.577-.239-12.577-.239a.593.593 0 0 0-.518.285.594.594 0 0 0-.019.591c0 1.214.159 8.358.159 10.706a.6.6 0 0 0 .557.577h12.577a.554.554 0 0 0 .477-.736c.1-1.811-.119-7.562-.119-9.095 1.433-1.194 2.985-2.407 4.378-3.661Zm-16.875 2.567c12.736.279 11.442 0 11.462.398a35.5 35.5 0 0 0-4.915 5.035c-.955-1.254-1.99-2.428-2.826-3.702-.378-.497-1.174 0-.796.538 1.075 1.552 1.99 3.203 3.144 4.795a.7.7 0 0 0 1.02.137.687.687 0 0 0 .214-.316 29.749 29.749 0 0 1 4.219-4.796c0 1.99 0 6.07.139 7.801h-11.482c-.179-2.249-.179-8.815-.179-9.89Zm85.371 32.795a.48.48 0 0 0 0-.696c-.557-.378-3.244 1.771-4.358 2.726-.159-.637-.199-.557-13.114-.697a.604.604 0 0 0-.534.276.6.6 0 0 0-.024.6c0 1.214.16 10.706.16 10.706a.575.575 0 0 0 .557.577h12.577a.517.517 0 0 0 .457-.736c.12-1.811 0-7.562 0-9.094 1.314-1.174 2.846-2.368 4.279-3.662Zm-16.975 2.567c12.736.259 11.443 0 11.482.398a33.527 33.527 0 0 0-4.915 5.035c-.935-1.214-1.99-2.428-2.846-3.701-.378-.498-1.154 0-.796.537 1.095 1.572 1.99 3.224 3.145 4.796a.691.691 0 0 0 .672.292.703.703 0 0 0 .561-.471 28.95 28.95 0 0 1 4.239-4.796c0 1.99 0 6.069.12 7.8-1.851 0-9.234-.099-11.483-.099-.059-2.209-.159-8.736-.179-9.791Zm-1.094-18.626c0 1.214.159 10.706.159 10.706a.575.575 0 0 0 .557.577h12.577a.519.519 0 0 0 .458-.279c.159-.318 0-8.477 0-9.532 1.134-.975 4.397-3.601 4.497-3.84.099-.239 0-.518-.119-.577-.558-.378-3.244 1.771-4.359 2.726a.554.554 0 0 0-.557-.458c-3.98-.199-8.358-.199-12.557-.258a.612.612 0 0 0-.643.246.619.619 0 0 0-.013.689Zm1.094.358c12.736.259 11.443 0 11.482.398a33.48 33.48 0 0 0-4.915 5.035c-.955-1.254-1.99-2.468-2.846-3.702-.358-.497-1.154 0-.796.518 1.075 1.552 1.99 3.263 3.165 4.816a.68.68 0 0 0 1.213-.199 30.644 30.644 0 0 1 4.239-4.776c0 1.99 0 5.97.12 7.8H250.62c-.059-2.308-.159-8.835-.179-9.89Zm16.975-19.661a.49.49 0 0 0 .151-.348.476.476 0 0 0-.151-.349c-.557-.378-3.244 1.771-4.358 2.727a.577.577 0 0 0-.557-.458c-3.98-.179-12.577-.239-12.577-.239a.593.593 0 0 0-.518.285.596.596 0 0 0-.02.591c0 1.214.16 10.706.16 10.706a.577.577 0 0 0 .557.577h12.577a.577.577 0 0 0 .457-.298c.16-.319 0-8.478 0-9.533 1.334-1.194 2.886-2.407 4.279-3.661Zm-16.975 2.567c8.398.179 10.686.119 11.303.159.299 0 .16.1.179.239a33.48 33.48 0 0 0-4.915 5.035c-.935-1.234-1.99-2.428-2.846-3.702-.358-.497-1.154 0-.796.538 1.075 1.552 1.99 3.243 3.145 4.795a.7.7 0 0 0 1.02.137.692.692 0 0 0 .213-.316 29.835 29.835 0 0 1 4.239-4.796c0 1.99 0 6.07.12 7.801H250.62c-.059-2.249-.159-8.835-.179-9.89Zm-50.148 8.199c8.796 0 34.586-.796 34.586-.796a.42.42 0 0 0 .236-.67.418.418 0 0 0-.236-.146c-4.497 0-31.84.438-34.566.537a.538.538 0 0 0-.02 1.075Zm.677-5.035a.596.596 0 0 0-.422 1.019.596.596 0 0 0 .422.175l36.457.1a.42.42 0 0 0 .235-.67.418.418 0 0 0-.235-.146c-4.677-.179-33.811-.538-36.457-.478Zm-1.493 18.706s33.472-.796 36.218-.935a.499.499 0 0 0 .352-.85.498.498 0 0 0-.352-.145s-33.352.617-36.198.696a.62.62 0 0 0-.627.607.617.617 0 0 0 .607.627Zm.02 3.682c1.99 0 11.184-.657 12.179-.796a.378.378 0 0 0 0-.757s-10.109.378-12.159.418a.58.58 0 0 0-.481.559.58.58 0 0 0 .461.576Zm28.776 9.751a210.538 210.538 0 0 0-23.283.338c-.737 0-.737 1.194 0 1.194 2.248 0-3.781 0 17.91-.557l5.253-.12a.437.437 0 0 0 .12-.855Zm-23.801 6.447a.576.576 0 0 0-.337.936.574.574 0 0 0 .337.198h20.935a.459.459 0 0 0 .324-.781.459.459 0 0 0-.324-.134c-6.964-.567-13.96-.64-20.935-.219Zm84.515-34.288a151.21 151.21 0 0 0-20.974-.278.578.578 0 0 0 0 1.134h20.935a.459.459 0 0 0 .039-.856Zm-19.701-4.756a.576.576 0 0 0-.337.936.58.58 0 0 0 .337.199c8.836 0 31.721-.339 34.308-.398a.3.3 0 0 0 0-.597c-6.945-.558-23.581-.199-34.308-.14Zm29.413 17.91c-5.115.219-24.836 0-29.651-.517-.737 0-.796 1.055 0 1.134 4.835.518 24.556.677 29.75.239a.438.438 0 0 0-.099-.856Zm-15.343 3.921c-2.428-.14-12.08-.359-14.468-.319a.516.516 0 0 0-.365.883.512.512 0 0 0 .365.152h14.448a.358.358 0 0 0 .02-.716Zm13.89 12.955a.418.418 0 0 0 0-.836c-4.478-.159-20.318-.398-23.761-.498a.52.52 0 0 0-.517.478.534.534 0 0 0 .497.557c7.861.299 15.841.478 23.781.299Zm-13.492 3.701c-2.985 0-6.11.119-9.473.259a.633.633 0 0 0-.524.626.634.634 0 0 0 .524.627c.199 0 6.408-.298 9.513-.636a.44.44 0 0 0-.04-.876Zm15.92 12.477c-8.995-.258-113.55-.258-116.833-.258a.636.636 0 1 0 0 1.273c1.791 0 110.644-.139 116.853-.378a.317.317 0 0 0 .208-.551.326.326 0 0 0-.228-.086Zm.298 9.532c0-.537 3.085-.716-84.933-.577h-29.85a.56.56 0 0 0-.557.557.558.558 0 0 0 .557.558c2.249 0 110.962-.1 114.525-.259a.298.298 0 0 0 .258-.279Zm-117.131 9.015a.557.557 0 0 0 0 1.094c5.97.1 43.919 1.135 45.551 1.135a.436.436 0 0 0 .345-.428.437.437 0 0 0-.345-.428c-5.91-.458-41.83-1.353-45.551-1.373Zm46.844 10.666a.433.433 0 0 0 .248-.153.432.432 0 0 0 0-.549.433.433 0 0 0-.248-.153c-9.95.696-47.182 1.234-46.983 1.234a.633.633 0 0 0-.525.626.636.636 0 0 0 .525.627c11.283.398 42.904-1.114 46.983-1.632Zm66.049-8.437a.3.3 0 0 0 0-.597c-6.07-.199-44.198-.537-45.77-.657a.594.594 0 0 0-.489.587.597.597 0 0 0 .489.587c10.945.458 41.71.339 45.77.08Zm-44.696 9.273c11.104.836 42.507.458 47.223.14a.418.418 0 0 0 0-.836c-3.304.159-43.78-.359-47.143-.577-.876-.06-.896 1.213-.08 1.273Zm51.521 36.178c-15.223-.875-56.337-1.452-55.461-1.452a.656.656 0 1 0 0 1.313l55.441.916a.4.4 0 0 0 .02-.777Zm-4.338-7.92c-1.592.139-1.791-.119-2.308-.776-2.508-3.184-4.677 1.114-8.299 1.274-.935 0-1.612 0-1.811-.378-.199-.378-.119-.478 0-.876.12-.398 2.309-1.453 2.17-2.129a.579.579 0 0 0-.637-.378 3.986 3.986 0 0 0-2.528 1.99c-2.447 1.233-5.552 2.885-7.303.676a1.62 1.62 0 0 1-.179-1.293l1.035-1.015a.518.518 0 0 0-.498-.836 2.225 2.225 0 0 0-1.532 1.393 20.563 20.563 0 0 1-4.318 2.965c-.518.259-1.692 1.015-2.149.657-.458-.358-.319-2.488-.12-3.264 3.244-2.945 3.164-3.781 3.124-4.159-.039-.378-.597-1.015-1.014-.736a8.272 8.272 0 0 0-3.244 4.497c-2.169 1.572-5.771 3.781-6.527 1.194a16.957 16.957 0 0 0 6.786-7.821c.457-1.154 1.213-3.104 0-4.178-1.214-1.075-2.707.417-3.463 1.213a14.608 14.608 0 0 0-4.418 10.129 55.547 55.547 0 0 1-6.229 3.204c-1.393.657-2.527 1.055-3.124-.099a6.19 6.19 0 0 1-.338-3.323 24.65 24.65 0 0 1 6.567-15.124 4.66 4.66 0 0 1 2.666-1.533 1.435 1.435 0 0 1 1.075.558c.995 1.174.517 2.766-.099 4.437-.199.557.656.856.895.299a5.811 5.811 0 0 0 .517-4.736 2.765 2.765 0 0 0-3.542-1.573 9.116 9.116 0 0 0-3.661 3.224 26.234 26.234 0 0 0-5.473 13.413c-.338 3.184 0 6.806 3.105 6.229a10.824 10.824 0 0 0 2.407-.936 52.697 52.697 0 0 0 5.493-2.786c1.134 2.906 4.557 1.413 7.184-.338-.239 2.348.676 4.099 2.826 3.124a19.17 19.17 0 0 0 5.014-3.084 3.311 3.311 0 0 0 2.866 2.388c1.912.04 3.796-.464 5.433-1.453 0 1.99 2.885 1.99 4.736 1.294 2.766-.856 4.219-2.787 5.373-1.792.577.498.915 1.314 1.87 1.573a9.31 9.31 0 0 0 3.065-.14c2.607-.278 5.433-.457 7.801-.835a.3.3 0 0 0 0-.598l-9.194.458Zm-31.502-11.761c1.712-1.631 2.627-.378.856 3.125a16.247 16.247 0 0 1-5.512 5.97 13.93 13.93 0 0 1 4.656-9.095Z" fill="#000"/><path d="m208.469 162.766-.657.617a.477.477 0 0 0 .538.776 6.43 6.43 0 0 0 1.154-.736c.179-.199.418-.517-1.592-3.701a.455.455 0 0 0-.776.457c.139.239 1.094 2.13 1.333 2.587Zm-7.144 6.15a2.886 2.886 0 0 0 3.264-.578.614.614 0 0 0-.06-.814.621.621 0 0 0-.816-.041c-1.075.895-3.423 0-4.239-1.115-.338-.437-1.034 0-.696.478a5.455 5.455 0 0 0 2.547 2.07Zm1.373-12.199a.457.457 0 1 0-.915 0 11.406 11.406 0 0 0 0 1.811.616.616 0 0 0 1.134-.299c.02-.358-.199-1.313-.219-1.512Zm9.473-.279a.519.519 0 0 0-1.035 0c0 1.99.159 2.13.258 2.209a.577.577 0 0 0 .876-.099 8.332 8.332 0 0 0-.099-2.11Zm-10.03-1.612a.548.548 0 0 0 .432-.119.548.548 0 0 0 .205-.398c0-.498-.398-.756-.896-.697a1.674 1.674 0 0 0-1.433 1.493 6.577 6.577 0 0 0 0 .716.464.464 0 0 0 .916.14c-.02-.438.298-1.234.776-1.135Zm10.368-1.751a.637.637 0 0 0-.299 1.234c.796.179.776.677.737.816a.43.43 0 0 0 .167.46.431.431 0 0 0 .489.017c.558-.278.279-2.208-1.094-2.527ZM336.247 335.24c-2.288-.776-5.652 1.99-4.856 4.139a2.532 2.532 0 0 0 3.324 1.194c1.154-.378 2.945-1.552 3.184-2.866a2.29 2.29 0 0 0-1.652-2.467Zm-1.293 3.98c-.737.358-1.732.656-2.289 0-.557-.657 1.274-2.906 2.866-2.806.995-.06 2.288 1.293-.577 2.806Z" fill="#000"/><path d="M378.893 268.834c-8.716-.259-19.004-.438-29.432.238a109.129 109.129 0 0 0-4.378-12.895 56.191 56.191 0 0 0-15.741-21.89 3.6 3.6 0 0 0-5.293 1.99c0-.219-2.448-104.833-2.726-111.679 0-.437 0-.497-.438-.537h-23.88a5.08 5.08 0 0 0-2.746-4.477 4.319 4.319 0 0 0-6.169 4.716c-10.527 0-102.067-.876-111.599-.975a23.11 23.11 0 0 0-5.234-9.95c-3.065-3.622-3.821-6.587-5.413-12.657a59.428 59.428 0 0 1-1.851-17.611 58.711 58.711 0 0 0 1.851-18.945 24.52 24.52 0 0 0 8.756.836.3.3 0 0 0 .259-.259 54.156 54.156 0 0 0-2.766-24.656c-3.98-11.343-14.229-25.87-27.343-30.944a22.965 22.965 0 0 0-19.9 1.035c-14.447-3.145-29.432.696-39.103 9.95-16.915 9.79-23.303 33.69-24.338 52.735-.756 13.93.895 11.66-.358 18.706-2.269 12.775-8.935 23.501-12.935 29.849-4.358 7.045-5.85 7.96-8.12 13.194a50.13 50.13 0 0 0-3.88 19.084c-13.094 14.03-21.233 34.288-24.198 60.158-1.831 18.308-3.005 37.531 4.955 54.446l.617 1.055c-3.98 0-15.124.199-16.418.458a.517.517 0 1 0 0 1.035c1.015 0 16.656-.339 17.015-.339 16.099 25.631 54.207 32.517 65.77 34.049a216.542 216.542 0 0 0 43.998.557c5.114-.358 10.308-1.034 12.676-5.313a46.851 46.851 0 0 0 17.254 1.134c-.657 32.398-.916 39.661-.777 41.253 0 .557 0 .438.538.458 36.735.617 146.782 3.263 157.09 2.268a.302.302 0 0 0 .18-.092.3.3 0 0 0 .079-.186v-5.393h7.96a.754.754 0 0 0 .617-.617c0-3.721-.159-7.463-.179-11.283a11.462 11.462 0 0 1 4.577 3.502c-.498.378-3.562 2.507-3.562 2.507a.6.6 0 0 0-.179.757c1.572 3.184 5.731 12.039 5.731 12.039l-5.512 2.886a.298.298 0 0 0-.14.378c7.96 19.044 7.522 18.009 7.821 18.009 46.845 0 44.994 0 45.173-.099.179-.1 0 1.452-.716-40.855 0-.199 0-.159-2.647-3.025a.298.298 0 0 0-.358 0l-4.378 2.269c-1.294-3.881-2.826-7.96-4.816-13.015a.55.55 0 0 0-.29-.34.547.547 0 0 0-.446-.018 122.16 122.16 0 0 0-5.831 2.448c-2.667-14.786-4.119-29.85-7.96-44.397 9.95-.736 20.178-.458 29.094-.498a.525.525 0 0 0 .407-.886.532.532 0 0 0-.368-.168Zm-85.112-147.897a3.982 3.982 0 0 1 1.99 3.124c-1.114 0-5.114.179-6.447.179a3.145 3.145 0 0 1 4.457-3.303Zm2.607 19.462c0 1.373.139 3.463-1.254 3.801-1.393.338-2.467-1.114-2.786-2.189a12.712 12.712 0 0 1-.338-2.448c-.119-1.612-.278-7.562-.259-9.233 0-.617-.875-.577-.935 0a50.573 50.573 0 0 0-.159 7.323 15.923 15.923 0 0 0 .657 5.074c1.154 3.423 5.572 3.841 5.97-.159.245-5.738.152-11.486-.279-17.213 6.766 0 20.875-.14 23.303-.179.378 19.76 2.865 139.698 3.443 159.359a80.387 80.387 0 0 0-7.841-9.433c-1.99-1.492-5.015-2.149-6.428 0-1.413 2.149-.656 4.577-.418 7.662.916 12.079 6.15 22.725 8.617 29.153a21.997 21.997 0 0 0 4.677 8.398c-.597 5.87-.14 11.761-.16 17.651-.199 0-149.926-.875-156.394-.836-2.229-226.76-2.607-208.372-1.532-212.83 13.054.279.199.279 131.599.995.199 2.249.597 11.781.517 15.104Zm27.86 102.624a45.064 45.064 0 0 0 1.373 5.015 7.055 7.055 0 0 0-1.273-.676c-.08-1.413-.1-2.866-.14-4.339h.04ZM313.82 344.095c-21.77-.378-142.941-2.368-155.518-2.547.438-20.238 4.597-173.468 2.468-192.851l.318-21.273 1.512-.318c.776 44.536.956 211.119 2.826 211.119 12.278 0 144.076 1.015 148.355 1.015 0 1.234-.04 3.681 0 4.855h.039ZM90.244 303.997c-24.278-2.09-45.253-9.95-60.635-22.467a47.413 47.413 0 0 1-8.896-9.293c-7.144-10.508-8.417-23.522-8.676-36.059a94.9 94.9 0 0 1 66.247-.438c-.617 5.015-.935 4.995-.637 5.453.299.457.2.199 3.224.815-10.965 4.597-25.213 12.856-32.636 26.388a38.743 38.743 0 0 0-3.98 13.552.419.419 0 0 0 .816.099c3.244-23.143 27.203-35.442 37.67-39.641a614.44 614.44 0 0 1 19.722 4.617 60.39 60.39 0 0 0-13.93 44.696.477.477 0 0 0 .935 0 62.303 62.303 0 0 1 14.169-44.357 113.388 113.388 0 0 1 25.372 10.507c-8.477 11.422-10.547 27.342-5.134 39.8a.4.4 0 0 0 .477.136.394.394 0 0 0 .196-.175c.043-.079.059-.171.043-.26a41.091 41.091 0 0 1 5.373-38.924 411.443 411.443 0 0 1 7.562 4.199c3.443 1.99 7.125 4.318 7.96 7.96a7.683 7.683 0 0 0-5.273-1.473c-2.468.518-3.662 3.184-4.378 4.756a30.149 30.149 0 0 0-2.527 15.144c.298 3.98 1.293 8.696 6.208 10.527-1.791 2.846-5.313 3.682-7.86 3.98a232.196 232.196 0 0 1-41.412.458Zm-20.875-90.605a.377.377 0 0 0 .517-.537 66.392 66.392 0 0 0-52.695-19.9 103.467 103.467 0 0 1 9.134-23.283 45.77 45.77 0 0 1 48.457 13.93 92.73 92.73 0 0 1 1.273 4.378c1.99 7.502 4.796 18.268-2.905 17.313a.3.3 0 0 0-.303.158.3.3 0 0 0 .044.339 6.8 6.8 0 0 0 4.12 2.249 83.265 83.265 0 0 1 1.392 26.487 93.83 93.83 0 0 0-66.386.398 169.64 169.64 0 0 1 4.856-40.576 67.934 67.934 0 0 1 52.496 19.044Zm-32.437-58.565c12.218-7.463 20.278-.916 29.273 12.059a56.792 56.792 0 0 1 7.303 13.134 47.041 47.041 0 0 0-46.367-11.801 76.271 76.271 0 0 1 9.79-13.392Zm70.346 82.903a95.157 95.157 0 0 1-3.462-11.283 59.547 59.547 0 0 0 48.158-2.866.479.479 0 0 0-.438-.836 60.525 60.525 0 0 1-48.078 2.189 132.345 132.345 0 0 1-3.005-22.467c8.855 5.274 21.193 6.09 31.541 5.592a19.566 19.566 0 0 0 10.249-2.945.477.477 0 0 0-.498-.816c-5.313 2.945-11.602 2.726-17.691 2.487-8.219-.298-16.597-1.432-23.581-5.97a117.689 117.689 0 0 1 3.243-33.83 62.122 62.122 0 0 0 6.408 13.035c2.806 4.239 4.677 7.025 8.139 8.656a17.151 17.151 0 0 0 13.015 0 .293.293 0 0 0 .191-.278.298.298 0 0 0-.191-.279c-8.119-1.99-11.94-9.333-13.214-16.457 16.457 9.015 34.248 1.99 39.581-11.104a.436.436 0 0 0-.776-.358c-6.666 13.253-23.78 18.706-39.064 9.731-.517-4.418.299-4.836-1.114-12.597 10.288 7.96 23.124 1.672 21.89-10.169a16.016 16.016 0 0 0-3.184-7.701c4.816-1.115 7.662.378 14.428 4.437 3.343 1.99 6.646 4.259 9.81 6.508.319 7.721.319 23.004.14 41.79a25.093 25.093 0 0 1-13.214 7.104.434.434 0 0 0-.247.192c-.057.092-.077.201-.057.307a.442.442 0 0 0 .463.357 24.24 24.24 0 0 0 12.955-6.209c-.219 22.905-.696 50.685-1.194 76.157-2.229 0-9.293 0-11.94.159-1.254-5.711-7.582-8.238-12.258-10.964-4.677-2.727-9.95-5.393-15.085-7.761 9.632 1.253 20.318 1.512 29.094-3.98a.543.543 0 0 0 .189-.747.547.547 0 0 0-.746-.189c-10.726 5.97-25.532 4.916-34.944 2.209a277.719 277.719 0 0 0-33.83-8.617 84.155 84.155 0 0 0-.657-32.178c3.423-.378 6.15-3.482 7.622-6.627a85.885 85.885 0 0 0 20.875 36.736.32.32 0 0 0 .448.03.317.317 0 0 0 .029-.448Zm51.183 33.432c0 3.303-.119 6.547-.179 9.751a72.72 72.72 0 0 0-11.462-9.552v-.119c2.348 0 9.512.039 11.641-.08ZM140.929 59.366c.036-3.505.422-6.999 1.154-10.427a23.086 23.086 0 0 0 4.518 9.233.335.335 0 0 0 .298 0l1.851-.438c-3.562 5.015-3.98 11.244-3.98 17.692 0 .955 0 1.83.099 2.646a5.173 5.173 0 0 0-8.119 1.115 87.77 87.77 0 0 0-1.671-18.288l5.532-1.314a.278.278 0 0 0 .318-.219Zm-9.731 31.84c-7.084 5.97-15.303-1.114-17.552-8.457-1.353-4.836-2.547-17.691 2.607-24.318a10.947 10.947 0 0 1 9.154-4.219c6.249 0 8.617 5.791 9.493 11.94 1.114 7.92 2.487 20.06-3.702 25.054ZM90.642 70.79a8.596 8.596 0 0 0-8.736.517c-1.134-6.965-1.274-7.96-1.214-19.462 0-7.681 0-17.91 2.687-24.736 5.014-13.213 25.471-18.745 39.799-15.92-23.561 14.209-31.501 43.84-32.536 59.6Zm-4.517.219a8.716 8.716 0 0 1 4.477 1.074c.836 4.319 2.09 11.025 4.955 14.229 4.18 5.512 9.632 5.79 13.194-.12a.3.3 0 0 0-.127-.405.298.298 0 0 0-.152-.032 7.96 7.96 0 0 1-6.069-1.99c-3.045-2.985-2.149-7.821-.597-10.15 2.666-3.98 5.273-2.447 9.532-5.97a61.256 61.256 0 0 0 .557 13.354 18.08 18.08 0 0 0 8.856 12.477c6.626 3.383 15.104-.876 15.92-11.502 1.612-4.418 5.81-5.771 8.557-1.533.696 3.523 2.228 8.2 5.592 10.528a7.32 7.32 0 0 0 7.343.179c-3.761 19.382-8.916 37.909-28.318 34.586a.294.294 0 0 0-.243.057.299.299 0 0 0-.115.221c0 1.473-.398 9.015-.538 11.204a.324.324 0 0 0 .064.201.315.315 0 0 0 .175.117c1.587.369 3.105.987 4.498 1.831a21.01 21.01 0 0 1 3.283 6.488c2.587 12.278-10.845 18.248-20.596 9.532-1.831-9.075-5.97-21.89-11.284-41.432-1.194-4.418-4.855-15.383-15.323-20.975a.4.4 0 0 0-.219 0c-1.054.259-6.626 1.274-9.95-1.99-3.323-3.263-1.81-19.98 6.528-19.98Zm72.794 18.149c-4.179 3.184-8.239 1.651-10.567-3.304a22.323 22.323 0 0 1-2.129-8.437 87.074 87.074 0 0 1 .278-9.433c.697-6.428 3.722-13.174 10.189-13.174a12.73 12.73 0 0 1 4.736.995c3.025 1.612 3.761 8.657 3.383 15.502-.935 14.945-4.517 16.816-5.89 17.85Zm166.225 197.01c0-1.314 0-4.359-.16-8.737a39.548 39.548 0 0 1 4.378 9.712 9.19 9.19 0 0 1-1.293 2.925l-2.925-3.9Zm-.379-18.627a34.465 34.465 0 0 1 5.334 9.95c0 1.493-.14 4.975-.319 7.144a43.924 43.924 0 0 0-4.855-9.412c-.04-2.209-.1-4.776-.16-7.642v-.04Zm5.373 6.866a32.916 32.916 0 0 0-5.412-8.816c-.12-5.075-.239-10.885-.398-17.154a3.987 3.987 0 0 1 1.99 1.552 59.702 59.702 0 0 1 3.82 24.517v-.099Zm-192.731-1.373c1.99-4.1 4.517-3.364 8.318-.976a60.998 60.998 0 0 1 12.438 10.309c0 1.99 0 3.98-.12 6.089a33.818 33.818 0 0 0-7.741-4.557.493.493 0 0 0-.38.058.507.507 0 0 0-.235.506.492.492 0 0 0 .199.328.504.504 0 0 0 .177.083 56.088 56.088 0 0 1 7.96 4.995v4.935a17.627 17.627 0 0 0-6.467-2.448.533.533 0 0 0-.445.113.536.536 0 0 0-.144.644.546.546 0 0 0 .354.292.548.548 0 0 0 .235.006 25.035 25.035 0 0 1 6.368 2.726c.159.1.119-.417 0 3.742-4.93.475-9.903.241-14.766-.697-5.353-.895-7.821-3.323-8.517-8.378a29.846 29.846 0 0 1 2.766-17.671v-.099Zm186.105 48.018a6.906 6.906 0 0 0 4.238 1.035.513.513 0 0 0 .417-.507.52.52 0 0 0-.417-.508 5.684 5.684 0 0 1-4.397-1.612c-2.488-2.248-3.662-6.089-5.095-9.671-4.457-11.224-8.338-21.393-7.96-32.278 0-2.885 2.348-3.303 4.716-1.731 2.369 1.572 15.244 19.144 17.373 21.671a.539.539 0 0 0 .856-.657c-1.393-1.99-2.886-3.98-4.299-5.831l.1-.119c.876-1.035 1.99-2.468 2.348-12.039.458-15.92-.756-20.06-3.423-27.98a64.4 64.4 0 0 1-2.547-9.114c-.358-1.99-.915-5.214 1.174-6.507 2.09-1.294 3.801 1.512 5.274 2.766 18.686 18.686 19.9 49.591 24.974 77.072-6.706 2.15-22.188 11.602-27.86 14.945a11.939 11.939 0 0 0-5.552-3.98c-.099-1.552-.099-3.204.08-4.855v-.1Zm7.383 24.437s-4.08-8.457-5.513-11.581c5.314-3.463 21.791-13.433 29.552-16.657 2.865-1.194 5.671-2.607 8.517-3.801 1.731 4.359 3.323 8.796 4.657 12.597l-37.213 19.442Zm5.611-302.639C336.984 19.546 317.243.602 293.542.602c-23.701 0-43.421 18.944-42.964 42.247 1.115 55.9 84.814 55.92 85.928 0Zm-80.017 0c.975-48.217 73.152-48.237 74.107 0 .418 20.08-16.616 36.417-37.054 36.417-20.437 0-37.451-16.338-37.053-36.417Z" fill="#000"/><path d="M293.484 21.596a.458.458 0 0 0-.916 0c.139 20.278 0 26.268.179 28.158 0 .995.259 1.334 1.513.876a106.67 106.67 0 0 1 18.626-5.333.479.479 0 1 0-.199-.936 89.995 89.995 0 0 0-18.507 4.757c-.06-5.234-.577-22.687-.696-27.522Zm-23.542 6.786a.696.696 0 0 0 .955-.995c-.557-.458-2.547-2.309-3.005-2.826a.521.521 0 1 0-.756.716c.478.538 2.308 2.627 2.806 3.105Zm7.204-7.423a.672.672 0 0 0 .683.312.678.678 0 0 0 .55-.511c.1-.378 0-.517-.636-1.373a28.462 28.462 0 0 1-1.533-2.468c-.338-.656-1.293-.12-.975.538a23.83 23.83 0 0 0 1.911 3.502Zm32.258-.358a42.93 42.93 0 0 0 3.104-3.523.539.539 0 0 0-.412-.868.538.538 0 0 0-.364.132 42.99 42.99 0 0 0-3.224 3.363.635.635 0 0 0 .896.895Zm8.377 10.646c.279 0 .339 0 2.329-1.552l1.234-.915a.483.483 0 0 0-.518-.816c-.557.358-2.786 1.592-3.462 1.99a.694.694 0 0 0-.309.814.693.693 0 0 0 .726.48Zm-7.999 35.343a.686.686 0 0 0-.966-.05.684.684 0 0 0-.049.965c.398.498 2.149 2.667 2.527 3.224.378.557 1.333 0 .935-.577-.398-.577-1.95-2.965-2.447-3.562Zm9.572-9.572a.698.698 0 0 0-.816 1.094c.199.18 2.806 2.249 3.024 2.488a.54.54 0 0 0 .889-.366.538.538 0 0 0-.112-.37 35.478 35.478 0 0 0-2.985-2.846Zm-43.78 9.134a.49.49 0 0 0-.093.534.499.499 0 0 0 .451.302c.239 0 .318-.1.816-.558a20.134 20.134 0 0 0 3.223-3.402c.478-.697-.597-1.533-1.134-.856a44.597 44.597 0 0 1-3.263 3.98Zm-8.199-8.577c.179 0 .258 0 .855-.398 1.015-.537 2.886-1.532 3.364-1.85a.68.68 0 0 0-.677-1.174c-.716.377-3.582 2.407-3.801 2.526a.474.474 0 0 0-.229.552.48.48 0 0 0 .488.344Zm-2.906-17.472a1.99 1.99 0 1 0 0 3.981 1.99 1.99 0 0 0 0-3.981Zm28.875-24.597a1.989 1.989 0 1 0 0-3.978 1.989 1.989 0 0 0 0 3.978Zm.14 54.128a1.99 1.99 0 1 0 0 3.978 1.99 1.99 0 0 0 0-3.978Zm30.785-24.775a1.989 1.989 0 1 0 0-3.978 1.989 1.989 0 0 0 0 3.978Zm-82.744 230.939a1.755 1.755 0 0 0-1.752 1.752 1.754 1.754 0 0 0 1.752 1.751 1.752 1.752 0 0 0 0-3.503Zm0 8.736a1.755 1.755 0 0 0-1.752 1.752 1.754 1.754 0 0 0 1.752 1.751 1.752 1.752 0 0 0 0-3.503Zm59.262-97.689a1.752 1.752 0 0 0 0-3.482 1.748 1.748 0 0 0-1.565 1.741 1.753 1.753 0 0 0 1.565 1.741Zm.517-14.925a1.75 1.75 0 1 0 .002-3.501 1.75 1.75 0 0 0-.002 3.501Zm0-10.805a1.753 1.753 0 0 0 1.116-2.912 1.748 1.748 0 0 0-1.116-.571 1.75 1.75 0 0 0 0 3.483Z" fill="#000"/></svg>