<svg xmlns="http://www.w3.org/2000/svg" width="208" height="114" fill="none"><path d="M207.343 2.217c-1.71-2.844-6.696-2.579-9.635-1.277l-42.395 19.285c-8.695 3.953-.939 11.499 6.191 8.269l27.942-12.705c-10.888 24.3-27.701 57.302-53.861 62.147-20.643 3.833-37.408-12.776-53.282-22.829C47.352 33.002 12.641 83.553.404 109.757c-2.938 6.316 11.033 4.821 13.056.458a142.405 142.405 0 0 1 27.364-40.186c8.768-8.775 18.572-14.343 30.399-7.979 9.828 5.28 17.873 13.259 28.086 18.2 42.949 20.804 74.118-12.415 94.4-47.851V54.6c0 7.352 14.14 5.255 14.14-1.06V4.073a1.448 1.448 0 0 0-.506-1.857Z" fill="#fff"/></svg>