<svg width="1920" height="7059" fill="none" xmlns="http://www.w3.org/2000/svg"><g clip-path="url(#a)"><path transform="matrix(1 0 0 -1 0 7059)" fill="url(#b)" d="M0 0h1921v7059H0z"/><path transform="matrix(1 0 0 -1 0 7059)" fill="url(#c)" d="M0 0h1921v7059H0z"/><path transform="matrix(1 0 0 -1 0 7059)" fill="url(#d)" d="M0 0h1921v7059H0z"/><circle cx="193.382" cy="1645.38" r="480.316" transform="rotate(26.557 193.382 1645.38)" fill="url(#e)"/><ellipse cx="1396.3" cy="2237.45" rx="1010.3" ry="742.455" fill="url(#f)"/><path d="M-22.5 2475c0-35.14 23.04-71.67 71.929-107.16 48.723-35.37 120.713-67.88 212.276-95.42 91.466-27.5 200.23-49.37 320.106-64.3 119.861-14.93 248.375-22.62 378.189-22.62 129.81 0 258.33 7.69 378.19 22.62 119.88 14.93 228.64 36.8 320.11 64.3 91.56 27.54 163.55 60.05 212.27 95.42 48.89 35.49 71.93 72.02 71.93 107.16" stroke="#fff" stroke-width="17"/><path d="M-28.5 2517.5c0-32.2 24.638-64.77 74.256-95.65 49.495-30.81 122.216-58.9 214.125-82.59 91.879-23.69 201.002-42.49 321.145-55.33C701.165 2271.1 829.942 2264.5 960 2264.5c130.06 0 258.83 6.6 378.97 19.43 120.15 12.83 229.27 31.64 321.15 55.32 91.91 23.7 164.63 51.79 214.12 82.6 49.62 30.88 74.26 63.45 74.26 95.65" stroke="#fff" stroke-width="5"/><path d="M-28.5 2517.5c0-9.66 5.765-19.71 18.138-29.97 12.346-10.24 30.933-20.4 55.723-30.28 49.556-19.74 122.348-37.72 214.303-52.9 91.926-15.16 201.091-27.2 321.267-35.41 120.173-8.21 248.981-12.44 379.069-12.44 130.09 0 258.9 4.23 379.07 12.44 120.17 8.21 229.34 20.25 321.27 35.41 91.95 15.18 164.74 33.16 214.3 52.9 24.79 9.88 43.38 20.04 55.72 30.28 12.37 10.26 18.14 20.31 18.14 29.97" stroke="#fff" stroke-width="5"/><g clip-path="url(#g)"><circle cx="251.382" cy="208.383" r="480.316" transform="rotate(26.557 251.382 208.383)" fill="url(#h)"/><circle cx="192.849" cy="207.849" r="186.98" transform="rotate(26.557 192.849 207.849)" fill="url(#i)"/></g><circle cx="704.765" cy="753.329" r="108.667" transform="rotate(26.557 704.765 753.329)" fill="url(#j)"/><circle cx="712.176" cy="797.407" r="42.303" transform="rotate(26.557 712.176 797.407)" fill="url(#k)"/><circle cx="1353.58" cy="6750.97" r="428.426" transform="rotate(26.557 1353.58 6750.97)" fill="url(#l)"/><g clip-path="url(#m)"><circle cx="116.134" cy="4024.13" r="585.969" transform="rotate(3.97 116.134 4024.13)" fill="url(#n)"/></g><circle cx="1689.62" cy="4720.79" r="201.415" transform="rotate(80.94 1689.62 4720.79)" fill="url(#o)"/><circle cx="1672.78" cy="4739.78" r="78.408" transform="rotate(80.94 1672.78 4739.78)" fill="url(#p)"/><path opacity=".6" d="m-533.999 2730.48 246.094-188.81c107.185-82.24 261.876-3.78 258.845 131.28-2.926 130.38 142.304 209.91 250.578 137.23l30.056-20.18c116.642-78.29 273.984 1.51 279.717 141.88l.734 17.97c5.959 145.9 167.567 230.69 291.002 152.67l26.338-16.64c121.654-76.89 281.305 4.09 291.135 147.66l3.15 45.93c9.1 132.82 163.18 201.24 267.81 118.91 106.91-84.13 264.05-10.71 268.12 125.28l5.43 181.86c2.81 94.17 56.85 179.29 140.88 221.91l146.98 74.55M-1012.57 3984.48l186.668-254.02c84.994-115.66 265.037-87.61 310.808 48.43 44.083 131.03 214.523 163.39 303.563 57.64l24.684-29.31c96.113-114.15 279.042-85.65 335.867 52.33l7 17c59.011 143.29 247.608 175.44 350.77 59.81l21.707-24.33c101.755-114.06 287.302-85.15 349.529 54.46l20.11 45.12c57.372 128.72 232.854 146.47 314.834 31.84 83.88-117.29 264.28-95.39 317.67 38.56l67.43 169.18c36.9 92.58 119.94 158.79 218.41 174.13l181.32 28.26" stroke="#fff" stroke-width="17"/><circle cx="148.382" cy="1621.38" r="480.316" transform="rotate(26.557 148.382 1621.38)" fill="url(#q)"/><circle cx="205.849" cy="1820.85" r="186.98" transform="rotate(26.557 205.849 1820.85)" fill="url(#r)"/><circle cx="1758.79" cy="3053.79" r="108.667" transform="rotate(26.557 1758.79 3053.79)" fill="url(#s)"/><circle cx="1766.2" cy="3097.86" r="42.303" transform="rotate(26.557 1766.2 3097.86)" fill="url(#t)"/><circle cx="811.631" cy="5321.64" r="480.316" transform="rotate(-95.965 811.631 5321.64)" fill="url(#u)"/><g clip-path="url(#v)"><g opacity=".3" filter="url(#w)"><circle cx="1630.59" cy="227.585" r="422.327" transform="rotate(26.557 1630.59 227.585)" fill="#4189F5"/></g><g filter="url(#x)"><circle cx="1221.78" cy="659.784" r="93.012" transform="rotate(26.557 1221.78 659.784)" fill="#4189F5"/></g><circle cx="1269.4" cy="647.398" r="186.98" transform="rotate(-95.965 1269.4 647.398)" fill="url(#y)"/><circle cx="1788.46" cy="153.457" r="250.757" transform="rotate(-95.965 1788.46 153.457)" fill="url(#z)"/><circle cx="1084.37" cy="-9.629" r="108.667" transform="rotate(-95.965 1084.37 -9.629)" fill="url(#A)"/><circle cx="1816.12" cy="122.119" r="91.026" transform="rotate(26.557 1816.12 122.119)" fill="url(#B)"/></g></g><defs><radialGradient id="c" cx="0" cy="0" r="1" gradientUnits="userSpaceOnUse" gradientTransform="matrix(628.99217 5814.82978 -1730.30643 187.16785 331.506 1244.17)"><stop stop-color="#E2FBFD"/><stop offset=".385" stop-color="#FDF3E2" stop-opacity="0"/></radialGradient><radialGradient id="d" cx="0" cy="0" r="1" gradientUnits="userSpaceOnUse" gradientTransform="rotate(113.784 -842.186 3123.296) scale(2484.25 1564.5)"><stop stop-color="#fff"/><stop offset="1" stop-color="#fff" stop-opacity="0"/></radialGradient><radialGradient id="e" cx="0" cy="0" r="1" gradientUnits="userSpaceOnUse" gradientTransform="rotate(90 -726.414 919.796) scale(479.487)"><stop stop-color="#97C1FF"/><stop offset="1" stop-color="#E3F0FC" stop-opacity="0"/></radialGradient><radialGradient id="f" cx="0" cy="0" r="1" gradientUnits="userSpaceOnUse" gradientTransform="matrix(-246.43727 543.06637 -680.94334 -309.00425 1396.3 2238.74)"><stop stop-color="#FBF2E3"/><stop offset="1" stop-color="#FDF3E2" stop-opacity="0"/></radialGradient><radialGradient id="h" cx="0" cy="0" r="1" gradientUnits="userSpaceOnUse" gradientTransform="rotate(90 21.084 230.298) scale(479.487)"><stop stop-color="#97C1FF"/><stop offset="1" stop-color="#E3F0FC" stop-opacity="0"/></radialGradient><radialGradient id="i" cx="0" cy="0" r="1" gradientUnits="userSpaceOnUse" gradientTransform="rotate(90 -7.662 200.51) scale(186.657)"><stop stop-color="#EDFCFF" stop-opacity=".85"/><stop offset="1" stop-color="#E3F0FC" stop-opacity="0"/></radialGradient><radialGradient id="j" cx="0" cy="0" r="1" gradientUnits="userSpaceOnUse" gradientTransform="rotate(90 -24.376 729.14) scale(108.479)"><stop stop-color="#BED8FF" stop-opacity=".85"/><stop offset="1" stop-color="#E3F0FC" stop-opacity="0"/></radialGradient><radialGradient id="k" cx="0" cy="0" r="1" gradientUnits="userSpaceOnUse" gradientTransform="rotate(90 -42.652 754.828) scale(42.2295)"><stop stop-color="#EDFCFF" stop-opacity=".85"/><stop offset="1" stop-color="#E3F0FC" stop-opacity="0"/></radialGradient><radialGradient id="l" cx="0" cy="0" r="1" gradientUnits="userSpaceOnUse" gradientTransform="rotate(90 -2699.065 4052.645) scale(427.686)"><stop stop-color="#97C1FF"/><stop offset="1" stop-color="#E3F0FC" stop-opacity="0"/></radialGradient><radialGradient id="n" cx="0" cy="0" r="1" gradientUnits="userSpaceOnUse" gradientTransform="rotate(90 -1954.503 2070.637) scale(584.957)"><stop stop-color="#97C1FF"/><stop offset="1" stop-color="#E3F0FC" stop-opacity="0"/></radialGradient><radialGradient id="o" cx="0" cy="0" r="1" gradientUnits="userSpaceOnUse" gradientTransform="rotate(90 -1515.76 3205.38) scale(201.068)"><stop stop-color="#BED8FF" stop-opacity=".85"/><stop offset="1" stop-color="#E3F0FC" stop-opacity="0"/></radialGradient><radialGradient id="p" cx="0" cy="0" r="1" gradientUnits="userSpaceOnUse" gradientTransform="rotate(90 -1533.565 3206.345) scale(78.2727)"><stop stop-color="#EDFCFF" stop-opacity=".85"/><stop offset="1" stop-color="#E3F0FC" stop-opacity="0"/></radialGradient><radialGradient id="q" cx="0" cy="0" r="1" gradientUnits="userSpaceOnUse" gradientTransform="rotate(90 -736.914 885.296) scale(479.487)"><stop stop-color="#97C1FF"/><stop offset="1" stop-color="#E3F0FC" stop-opacity="0"/></radialGradient><radialGradient id="r" cx="0" cy="0" r="1" gradientUnits="userSpaceOnUse" gradientTransform="rotate(90 -807.66 1013.51) scale(186.657)"><stop stop-color="#EDFCFF" stop-opacity=".85"/><stop offset="1" stop-color="#E3F0FC" stop-opacity="0"/></radialGradient><radialGradient id="s" cx="0" cy="0" r="1" gradientUnits="userSpaceOnUse" gradientTransform="rotate(90 -647.59 2406.38) scale(108.479)"><stop stop-color="#BED8FF" stop-opacity=".85"/><stop offset="1" stop-color="#E3F0FC" stop-opacity="0"/></radialGradient><radialGradient id="t" cx="0" cy="0" r="1" gradientUnits="userSpaceOnUse" gradientTransform="rotate(90 -665.87 2432.07) scale(42.2295)"><stop stop-color="#EDFCFF" stop-opacity=".85"/><stop offset="1" stop-color="#E3F0FC" stop-opacity="0"/></radialGradient><radialGradient id="u" cx="0" cy="0" r="1" gradientUnits="userSpaceOnUse" gradientTransform="rotate(90 -2255.42 3067.05) scale(479.487)"><stop stop-color="#BED8FF" stop-opacity=".85"/><stop offset="1" stop-color="#E3F0FC" stop-opacity="0"/></radialGradient><radialGradient id="y" cx="0" cy="0" r="1" gradientUnits="userSpaceOnUse" gradientTransform="rotate(90 310.84 958.56) scale(186.657)"><stop stop-color="#FEEDFF" stop-opacity=".85"/><stop offset="1" stop-color="#E3F0FC" stop-opacity="0"/></radialGradient><radialGradient id="z" cx="0" cy="0" r="1" gradientUnits="userSpaceOnUse" gradientTransform="rotate(90 817.285 971.175) scale(250.324)"><stop stop-color="#FEEDFF" stop-opacity=".85"/><stop offset="1" stop-color="#E3F0FC" stop-opacity="0"/></radialGradient><radialGradient id="A" cx="0" cy="0" r="1" gradientUnits="userSpaceOnUse" gradientTransform="rotate(90 546.906 537.464) scale(108.479)"><stop stop-color="#BED8FF" stop-opacity=".85"/><stop offset="1" stop-color="#E3F0FC" stop-opacity="0"/></radialGradient><radialGradient id="B" cx="0" cy="0" r="1" gradientUnits="userSpaceOnUse" gradientTransform="rotate(90 846.921 969.199) scale(90.8693)"><stop stop-color="#EDFCFF" stop-opacity=".85"/><stop offset="1" stop-color="#E3F0FC" stop-opacity="0"/></radialGradient><clipPath id="a"><path fill="#fff" d="M0 0h1920v7059H0z"/></clipPath><clipPath id="g"><path fill="#fff" d="M0 0h673v630H0z"/></clipPath><clipPath id="m"><path fill="#fff" transform="translate(0 3473)" d="M0 0h848v1162H0z"/></clipPath><clipPath id="v"><path fill="#fff" transform="translate(940)" d="M0 0h980v819H0z"/></clipPath><filter id="w" x="1172.16" y="-230.834" width="916.844" height="916.838" filterUnits="userSpaceOnUse" color-interpolation-filters="sRGB"><feFlood flood-opacity="0" result="BackgroundImageFix"/><feBlend in="SourceGraphic" in2="BackgroundImageFix" result="shape"/><feGaussianBlur stdDeviation="18" result="effect1_foregroundBlur_2188_1759"/></filter><filter id="x" x="1092.75" y="530.751" width="258.07" height="258.065" filterUnits="userSpaceOnUse" color-interpolation-filters="sRGB"><feFlood flood-opacity="0" result="BackgroundImageFix"/><feBlend in="SourceGraphic" in2="BackgroundImageFix" result="shape"/><feGaussianBlur stdDeviation="18" result="effect1_foregroundBlur_2188_1759"/></filter><linearGradient id="b" x1="1921" y1="8970.2" x2="-1422.34" y2="8404.38" gradientUnits="userSpaceOnUse"><stop stop-color="#E0E5FF"/><stop offset=".462" stop-color="#E8F8FF"/><stop offset="1" stop-color="#E7E9FA"/></linearGradient></defs></svg>