<svg xmlns="http://www.w3.org/2000/svg" width="228" height="96" fill="none"><path d="M10.026 43.197c.568-6.415 1.143-12.826 1.725-19.234 1.21 2.31 2.517 4.442 3.822 6.521C26.304 47.28 44.7 61.16 62.669 69.127a45.707 45.707 0 0 0 17.419 4.082l.523.56c10.591 10.69 36.75 20.494 56.137 17.155a23.493 23.493 0 0 0 7.318 3.222c15.975 3.837 35.091-4.74 49.371-10.959a264 264 0 0 0 31.657-16.397c5.281-3.195 1.791-7.963-3.37-4.829-17.233 10.429-39.72 22.008-60.879 24.936a30.596 30.596 0 0 1-12.185-.408 23.876 23.876 0 0 0 9.902-13.146c4.45-13.92-15.249-12.574-22.663-8.964-9.719 4.73-10.223 12.799-6.165 19.43a80.866 80.866 0 0 1-17.448-3.57 63.035 63.035 0 0 1-20.146-9.5c2.033-.96 3.9-2.239 5.531-3.786 5.634-5.375 8.874-14.361 3.592-21.121-5.753-7.375-16.754-3.822-22.482 1.39A15.395 15.395 0 0 0 74.545 64.1c-1.797-.58-3.459-1.229-4.879-1.803a103.342 103.342 0 0 1-47.605-40.297 41.026 41.026 0 0 1-5.117-11.726l26.96 5.019c4.204.78 10.513-6.82 5.14-7.82L11.528.476c-2.98-.546-6.835 1.76-7.12 4.967A5855.321 5855.321 0 0 1 .84 45.307c-.389 5.53 8.845 2.17 9.187-2.11Zm129.348 26.349c12.791-4.076 13.111 9.279 2.371 12.862l-.205.074c-4.386-3.89-9.021-10.688-2.112-12.885l-.054-.051Zm-54.773-6.73c-2.273-3.425-3.625-10.019.162-12.959 3.428-2.65 8.048.657 9.66 3.784a8.845 8.845 0 0 1-1.957 9.915 10.727 10.727 0 0 1-5.571 2.248 29.775 29.775 0 0 1-2.24-2.937l-.054-.052Z" fill="#fff"/></svg>