<svg width="430" height="8668" fill="none" xmlns="http://www.w3.org/2000/svg"><g clip-path="url(#a)"><path fill="#fff" d="M0 0h430v8668H0z"/><path transform="matrix(1 0 0 -1 0 8668)" fill="url(#b)" d="M0 0h430v8668H0z"/><path transform="matrix(1 0 0 -1 0 8668)" fill="url(#c)" d="M0 0h430v8668H0z"/><path transform="matrix(1 0 0 -1 0 8668)" fill="url(#d)" d="M0 0h430v8668H0z"/><g clip-path="url(#e)" stroke="#fff"><path d="M-17.625 1942.81c0-28.31 10.699-56.76 32.22-83.77 21.565-27.08 53.49-52.05 94.296-73.27 40.777-21.2 89.379-38.12 143.074-49.69 53.682-11.56 111.282-17.52 169.492-17.52 58.211 0 115.811 5.96 169.493 17.52 53.694 11.57 102.296 28.48 143.074 49.69 40.806 21.22 72.731 46.19 94.296 73.27 21.521 27.01 32.219 55.46 32.219 83.77" stroke-width="17"/><path d="M-23.5 1976c0-25.61 9.516-51.09 28.205-75 18.702-23.92 46.203-45.76 81.033-64.21 34.821-18.45 76.217-33.11 121.835-43.12 45.615-10.01 94.523-15.17 143.927-15.17 49.404 0 98.312 5.16 143.927 15.17 45.618 10.01 87.014 24.67 121.835 43.12 34.83 18.45 62.331 40.29 81.033 64.21 18.689 23.91 28.205 49.39 28.205 75" stroke-width="5"/><path d="M-23.5 1964.5c0-17.39 7.805-34.81 23.371-51.28 15.58-16.49 38.54-31.59 67.687-44.36 29.131-12.77 63.774-22.92 101.961-29.86 38.182-6.93 79.123-10.5 120.481-10.5 41.358 0 82.299 3.57 120.481 10.5 38.187 6.94 72.83 17.09 101.961 29.86 29.147 12.77 52.107 27.87 67.687 44.36 15.566 16.47 23.371 33.89 23.371 51.28" stroke-width="5"/></g><circle cx="382.873" cy="3914.88" r="143.718" transform="rotate(-95.965 382.873 3914.88)" fill="url(#f)"/><circle cx="364.372" cy="3726.63" r="108.667" transform="rotate(-95.965 364.372 3726.63)" fill="url(#g)"/><circle cx="397.545" cy="3696.53" r="42.303" transform="rotate(-95.965 397.545 3696.53)" fill="url(#h)"/><circle cx="275.631" cy="5635.12" r="480.316" transform="rotate(-95.965 275.631 5635.12)" fill="url(#i)"/><circle cx="79.631" cy="4746.12" r="480.316" transform="rotate(-95.965 79.631 4746.12)" fill="url(#j)"/><circle cx="56.753" cy="234.41" r="155.386" transform="rotate(26.557 56.753 234.41)" fill="url(#k)"/><g clip-path="url(#l)"><circle cx="384.782" cy="2809.48" r="316.401" transform="rotate(26.557 384.782 2809.48)" fill="url(#m)"/><path opacity=".6" d="m-128.002 2733.39 68.877-52.84c30-23.02 73.294-1.06 72.446 36.74-.82 36.49 39.828 58.75 70.132 38.41l8.412-5.65c32.646-21.91 76.682.42 78.287 39.71l.205 5.03c1.668 40.83 46.899 64.56 81.446 42.73l2.534-1.6 4.838-3.06c34.048-21.52 78.732 1.15 81.484 41.33l.88 12.85c2.546 37.18 45.672 56.33 74.954 33.28 29.924-23.54 73.905-2.99 75.042 35.07l1.52 50.9c.788 26.35 15.911 50.18 39.429 62.1l41.138 20.87" stroke="#fff" stroke-width="37"/><circle cx="41.789" cy="3013.79" r="108.667" transform="rotate(26.557 41.789 3013.79)" fill="url(#n)"/></g><g clip-path="url(#o)"><circle cx="46.546" cy="-31.457" r="235.948" transform="rotate(26.557 46.546 -31.457)" fill="url(#p)"/><g opacity=".3" filter="url(#q)"><circle cx="334.221" cy="610.649" r="208.871" transform="rotate(26.557 334.221 610.649)" fill="#4189F5"/></g><g filter="url(#r)"><circle cx="67.049" cy="725.046" r="48.95" transform="rotate(26.557 67.049 725.046)" fill="#4189F5"/></g><g filter="url(#s)"><circle cx="343.339" cy="150.598" r="25.923" transform="rotate(-50.7 343.339 150.598)" fill="#4189F5"/></g><g filter="url(#t)"><circle cx="401.169" cy="212.969" r="9.402" transform="rotate(-50.7 401.169 212.969)" fill="#4189F5"/></g><circle cx="92.099" cy="718.528" r="98.404" transform="rotate(-95.965 92.099 718.528)" fill="url(#u)"/><circle cx="342.895" cy="136.898" r="52.112" transform="rotate(-173.222 342.895 136.898)" fill="url(#v)"/><circle cx="401.001" cy="208" r="18.901" transform="rotate(-173.222 401.001 208)" fill="url(#w)"/><circle cx="342.612" cy="548.043" r="164.416" transform="rotate(-95.965 342.612 548.043)" fill="url(#x)"/></g></g><defs><radialGradient id="c" cx="0" cy="0" r="1" gradientUnits="userSpaceOnUse" gradientTransform="rotate(88.87 -741.988 801.721) scale(7141.63 391.77)"><stop stop-color="#FDF3E2"/><stop offset=".385" stop-color="#FDF3E2" stop-opacity="0"/></radialGradient><radialGradient id="d" cx="0" cy="0" r="1" gradientUnits="userSpaceOnUse" gradientTransform="rotate(94.593 -2732.512 3337.25) scale(2800.42 381.473)"><stop stop-color="#fff"/><stop offset="1" stop-color="#fff" stop-opacity="0"/></radialGradient><radialGradient id="f" cx="0" cy="0" r="1" gradientUnits="userSpaceOnUse" gradientTransform="matrix(0 143.47 -143.47 0 382.873 3915.12)"><stop stop-color="#BED8FF" stop-opacity=".85"/><stop offset="1" stop-color="#E3F0FC" stop-opacity="0"/></radialGradient><radialGradient id="g" cx="0" cy="0" r="1" gradientUnits="userSpaceOnUse" gradientTransform="rotate(90 -1681.224 2045.596) scale(108.479)"><stop stop-color="#BED8FF" stop-opacity=".85"/><stop offset="1" stop-color="#E3F0FC" stop-opacity="0"/></radialGradient><radialGradient id="h" cx="0" cy="0" r="1" gradientUnits="userSpaceOnUse" gradientTransform="matrix(0 42.2295 -42.2295 0 397.545 3696.6)"><stop stop-color="#EDFCFF" stop-opacity=".85"/><stop offset="1" stop-color="#E3F0FC" stop-opacity="0"/></radialGradient><radialGradient id="i" cx="0" cy="0" r="1" gradientUnits="userSpaceOnUse" gradientTransform="rotate(90 -2680.16 2955.79) scale(479.487)"><stop stop-color="#BED8FF" stop-opacity=".85"/><stop offset="1" stop-color="#E3F0FC" stop-opacity="0"/></radialGradient><radialGradient id="j" cx="0" cy="0" r="1" gradientUnits="userSpaceOnUse" gradientTransform="rotate(90 -2333.66 2413.29) scale(479.487)"><stop stop-color="#BED8FF" stop-opacity=".85"/><stop offset="1" stop-color="#E3F0FC" stop-opacity="0"/></radialGradient><radialGradient id="k" cx="0" cy="0" r="1" gradientUnits="userSpaceOnUse" gradientTransform="rotate(90 -88.963 145.715) scale(155.118)"><stop stop-color="#EDFCFF" stop-opacity=".85"/><stop offset="1" stop-color="#E3F0FC" stop-opacity="0"/></radialGradient><radialGradient id="m" cx="0" cy="0" r="1" gradientUnits="userSpaceOnUse" gradientTransform="rotate(90 -1212.619 1597.401) scale(315.855)"><stop stop-color="#97C1FF"/><stop offset="1" stop-color="#E3F0FC" stop-opacity="0"/></radialGradient><radialGradient id="n" cx="0" cy="0" r="1" gradientUnits="userSpaceOnUse" gradientTransform="rotate(90 -1486.09 1527.88) scale(108.479)"><stop stop-color="#BED8FF" stop-opacity=".85"/><stop offset="1" stop-color="#E3F0FC" stop-opacity="0"/></radialGradient><radialGradient id="p" cx="0" cy="0" r="1" gradientUnits="userSpaceOnUse" gradientTransform="rotate(90 38.798 7.748) scale(235.54)"><stop stop-color="#97C1FF"/><stop offset="1" stop-color="#E3F0FC" stop-opacity="0"/></radialGradient><radialGradient id="u" cx="0" cy="0" r="1" gradientUnits="userSpaceOnUse" gradientTransform="rotate(90 -313.3 405.398) scale(98.234)"><stop stop-color="#FEEDFF" stop-opacity=".85"/><stop offset="1" stop-color="#E3F0FC" stop-opacity="0"/></radialGradient><radialGradient id="v" cx="0" cy="0" r="1" gradientUnits="userSpaceOnUse" gradientTransform="rotate(90 102.953 239.941) scale(52.022)"><stop stop-color="#FEEDFF" stop-opacity=".85"/><stop offset="1" stop-color="#E3F0FC" stop-opacity="0"/></radialGradient><radialGradient id="w" cx="0" cy="0" r="1" gradientUnits="userSpaceOnUse" gradientTransform="rotate(90 96.484 304.517) scale(18.8686)"><stop stop-color="#FEEDFF" stop-opacity=".85"/><stop offset="1" stop-color="#E3F0FC" stop-opacity="0"/></radialGradient><radialGradient id="x" cx="0" cy="0" r="1" gradientUnits="userSpaceOnUse" gradientTransform="rotate(90 -102.858 445.47) scale(164.132)"><stop stop-color="#FEEDFF" stop-opacity=".85"/><stop offset="1" stop-color="#E3F0FC" stop-opacity="0"/></radialGradient><clipPath id="a"><path fill="#fff" d="M0 0h430v8668H0z"/></clipPath><clipPath id="e"><path fill="#fff" transform="translate(0 1710)" d="M0 0h430v466H0z"/></clipPath><clipPath id="l"><path fill="#fff" transform="translate(0 2385)" d="M0 0h430v849H0z"/></clipPath><clipPath id="o"><path fill="#fff" d="M0 0h430v919H0z"/></clipPath><filter id="q" x="101.7" y="378.128" width="465.045" height="465.042" filterUnits="userSpaceOnUse" color-interpolation-filters="sRGB"><feFlood flood-opacity="0" result="BackgroundImageFix"/><feBlend in="SourceGraphic" in2="BackgroundImageFix" result="shape"/><feGaussianBlur stdDeviation="11.802" result="effect1_foregroundBlur_2188_2121"/></filter><filter id="r" x="-5.518" y="652.481" width="145.131" height="145.131" filterUnits="userSpaceOnUse" color-interpolation-filters="sRGB"><feFlood flood-opacity="0" result="BackgroundImageFix"/><feBlend in="SourceGraphic" in2="BackgroundImageFix" result="shape"/><feGaussianBlur stdDeviation="11.802" result="effect1_foregroundBlur_2188_2121"/></filter><filter id="s" x="293.81" y="101.069" width="99.06" height="99.056" filterUnits="userSpaceOnUse" color-interpolation-filters="sRGB"><feFlood flood-opacity="0" result="BackgroundImageFix"/><feBlend in="SourceGraphic" in2="BackgroundImageFix" result="shape"/><feGaussianBlur stdDeviation="11.802" result="effect1_foregroundBlur_2188_2121"/></filter><filter id="t" x="368.161" y="179.962" width="66.013" height="66.014" filterUnits="userSpaceOnUse" color-interpolation-filters="sRGB"><feFlood flood-opacity="0" result="BackgroundImageFix"/><feBlend in="SourceGraphic" in2="BackgroundImageFix" result="shape"/><feGaussianBlur stdDeviation="11.802" result="effect1_foregroundBlur_2188_2121"/></filter><linearGradient id="b" x1="430" y1="11014.8" x2="-339.083" y2="10991.1" gradientUnits="userSpaceOnUse"><stop stop-color="#E0E5FF"/><stop offset=".462" stop-color="#E8F8FF"/><stop offset="1" stop-color="#E7E9FA"/></linearGradient></defs></svg>