<svg width="162" height="38" fill="none" xmlns="http://www.w3.org/2000/svg"><g clip-path="url(#a)" fill="#4189F5"><path d="M2.095 2.674H0V.246h2.444v2.428h-.35Zm17.003 21.604h-2.06V21.85h2.444v2.428h-.384Zm-8.52 0H8.52V21.85h2.444v2.428h-.384Zm-8.483 0H.035V21.85h2.444v2.428h-.384Zm8.484-7.213h-2.06v-2.428h2.444v2.428h-.384Zm-8.484 0H.035v-2.428h2.444v2.428h-.384Zm17.003 0h-2.06v-2.428h2.444v2.428h-.384Zm8.484 0h-2.095v-2.428h2.444v2.428h-.35ZM10.579 9.887h-2.06V7.459h2.444v2.428h-.384Zm-8.484 0H0V7.459h2.444v2.428h-.35Zm17.003 0h-2.095V7.459h2.444v2.428h-.35Zm8.484 0h-2.095V7.459h2.444v2.428h-.35ZM10.579 2.674h-2.06V.246h2.444v2.428h-.384Zm8.519 0h-2.095V.246h2.444v2.428h-.35Zm8.484 0h-2.095V.246h2.444v2.428h-.35Zm8.484 0h-2.06V.246h2.444v2.428h-.384Zm0 7.213h-2.06V7.459h2.444v2.428h-.384Z"/><path d="M53.802 24.945c.035.211.07.422.14.634.489 1.688 2.06 2.814 3.945 3.448 2.025.703 4.4.844 6.32.563.488-.07.977-.176 1.43-.317.769-.246 1.607-.563 2.27-1.055.594-.423 1.083-.986 1.292-1.654.559-1.9-.384-3.061-1.85-3.8-1.711-.88-4.12-1.267-5.796-1.478-4.05-.563-7.018-1.583-8.938-3.061-2.06-1.583-2.968-3.695-2.793-6.369.175-2.638 1.466-4.75 3.596-6.157 2.06-1.372 4.923-2.111 8.414-2.111 3.457.035 6.215.915 8.205 2.463 2.13 1.654 3.352 4.011 3.491 6.79l.035 1.021h-5.237v-.985c0-1.408-.663-2.428-1.606-3.097-1.361-.985-3.352-1.372-5.062-1.372-2.13 0-3.84.387-5.028 1.056-1.047.598-1.64 1.478-1.745 2.533v.106c-.035.668-.175 3.202 7.506 4.187 5.237.668 8.344 2.04 10.09 3.73 1.885 1.794 2.34 3.835 2.27 5.77-.07 2.146-1.327 4.609-3.98 6.368-2.026 1.337-4.889 2.252-8.624 2.252-3.143 0-6.809-.704-9.567-2.498-2.234-1.478-3.84-3.66-4.085-6.79l-.07-1.056h5.238l.14.88ZM0 30.435c15.746 6.157 24.265-1.936 32.505-9.782 1.292-1.232 2.583-2.463 3.91-3.66v6.686l-.559.527C26.71 32.897 17.247 41.905 0 35.747v-5.313Zm160.918 3.8h-4.015V3.798h4.992v30.435h-.977Zm-22.345-11.4-5.377-11.858-5.342 11.857h10.719Zm-20.809 9.992 13.512-28.993h3.701c4.748 10.133 9.426 20.267 14.14 30.435h-5.377l-3.142-6.931h-15.083l-3.107 6.931h-5.377l.733-1.442ZM93.045 20.829l-4.923 5.207v8.269h-5.027V3.835h5.027v15.41l14.594-15.41h6.564L96.432 17.31l14 16.96h-6.389L93.045 20.828Z"/></g><defs><clipPath id="a"><path fill="#fff" d="M0 0h162v38H0z"/></clipPath></defs></svg>