<svg width="30" height="30" fill="none" xmlns="http://www.w3.org/2000/svg"><path d="M26.88 22.976h-2.852c-1.08 0-1.404-.874-3.338-2.81-1.69-1.628-2.404-1.83-2.831-1.83-.592 0-.753.162-.753.976v2.565c0 .694-.225 1.1-2.037 1.1a11.125 11.125 0 0 1-8.694-5.213 22.75 22.75 0 0 1-4.5-9.447c0-.428.163-.815.978-.815h2.85c.732 0 .996.326 1.283 1.08 1.384 4.072 3.745 7.615 4.704 7.615.367 0 .527-.163.527-1.079v-4.195c-.12-1.914-1.137-2.075-1.137-2.767a.704.704 0 0 1 .731-.654h4.48c.613 0 .815.305.815 1.037v5.663c0 .611.263.814.448.814.367 0 .65-.203 1.324-.875a23.502 23.502 0 0 0 3.502-5.825 1.226 1.226 0 0 1 1.241-.813h2.852c.855 0 1.036.428.855 1.038a35.628 35.628 0 0 1-3.828 6.577c-.308.469-.43.713 0 1.263.282.427 1.282 1.262 1.954 2.056a12.692 12.692 0 0 1 2.402 3.337c.245.795-.162 1.202-.976 1.202Z" fill="#1B181B"/></svg>