<svg xmlns="http://www.w3.org/2000/svg" width="10" height="10" viewBox="0 0 10 10" fill="none">
  <path d="M5.5771 4.99972L8.50679 1.50753C8.55589 1.4495 8.5146 1.36133 8.43871 1.36133H7.54808C7.49563 1.36133 7.4454 1.38477 7.4108 1.42494L4.99451 4.30552L2.57821 1.42494C2.54473 1.38477 2.49451 1.36133 2.44094 1.36133H1.55031C1.47442 1.36133 1.43313 1.4495 1.48223 1.50753L4.41192 4.99972L1.48223 8.49191C1.47123 8.50485 1.46417 8.52067 1.4619 8.53749C1.45962 8.55432 1.46222 8.57145 1.46939 8.58684C1.47656 8.60224 1.48799 8.61525 1.50234 8.62434C1.51668 8.63343 1.53333 8.63821 1.55031 8.63811H2.44094C2.49339 8.63811 2.54362 8.61468 2.57821 8.5745L4.99451 5.69392L7.4108 8.5745C7.44429 8.61468 7.49451 8.63811 7.54808 8.63811H8.43871C8.5146 8.63811 8.55589 8.54995 8.50679 8.49191L5.5771 4.99972Z" fill="#545969"/>
</svg>