<svg width="380" height="368" viewBox="0 0 380 368" fill="none" xmlns="http://www.w3.org/2000/svg">
<path d="M145.409 96.2206C144.604 96.9466 143.746 97.6118 142.842 98.2106C142.794 98.2433 142.752 98.2852 142.72 98.3338C142.688 98.3825 142.666 98.4371 142.654 98.4943C142.643 98.5516 142.644 98.6105 142.655 98.6677C142.667 98.7249 142.69 98.7792 142.722 98.8275C142.755 98.8759 142.797 98.9173 142.846 98.9495C142.894 98.9816 142.949 99.0039 143.006 99.015C143.064 99.0261 143.122 99.0258 143.18 99.0141C143.237 99.0024 143.291 98.9796 143.339 98.9469C144.403 98.3823 145.409 97.7158 146.344 96.9569C147.2 96.0614 146.523 94.9669 146.086 94.151C144.533 91.5043 144.096 90.9272 141.847 87.385C141.768 87.286 141.656 87.2191 141.532 87.1971C141.407 87.1751 141.279 87.1995 141.171 87.2656C141.063 87.3318 140.983 87.4351 140.947 87.5561C140.91 87.6771 140.919 87.8074 140.971 87.9223C142.681 90.5586 144.166 93.3346 145.409 96.2206ZM133.091 111.962C133.22 111.888 133.315 111.765 133.354 111.622C133.393 111.478 133.374 111.325 133.3 111.195C133.226 111.066 133.104 110.971 132.96 110.932C132.816 110.893 132.663 110.913 132.534 110.986C129.63 112.4 126.311 112.714 123.194 111.869C120.076 111.023 117.371 109.077 115.579 106.39C115.516 106.279 115.411 106.198 115.288 106.164C115.164 106.13 115.033 106.147 114.922 106.21C114.811 106.274 114.73 106.379 114.697 106.502C114.663 106.625 114.68 106.756 114.743 106.867C115.612 108.408 116.776 109.761 118.169 110.851C119.562 111.941 121.156 112.746 122.861 113.219C124.565 113.692 126.346 113.825 128.101 113.609C129.856 113.393 131.552 112.833 133.091 111.962ZM125.807 77.9524C125.779 77.7854 125.693 77.6338 125.564 77.5244C125.434 77.415 125.27 77.355 125.101 77.355C124.932 77.355 124.768 77.415 124.638 77.5244C124.509 77.6338 124.423 77.7854 124.395 77.9524C124.338 79.5656 124.384 81.1809 124.534 82.7881C124.581 83.0125 124.71 83.2111 124.896 83.3447C125.083 83.4783 125.312 83.5372 125.54 83.5097C125.767 83.4822 125.976 83.3703 126.125 83.1962C126.274 83.022 126.353 82.7983 126.345 82.5692C126.325 81.7732 125.887 78.7683 125.807 77.9524ZM154.643 76.639C154.643 76.4543 154.569 76.2771 154.439 76.1465C154.308 76.0159 154.131 75.9425 153.946 75.9425C153.761 75.9425 153.584 76.0159 153.454 76.1465C153.323 76.2771 153.25 76.4543 153.25 76.639V82.609C153.312 82.8158 153.445 82.9939 153.626 83.112C153.806 83.2301 154.023 83.2805 154.237 83.2543C154.452 83.2281 154.65 83.127 154.797 82.9689C154.944 82.8107 155.03 82.6058 155.041 82.3901C155.12 81.8528 154.623 77.5345 154.643 76.639ZM154.762 66.8681C153.568 66.5696 153.15 68.4402 154.324 68.6392C155.174 68.8051 155.941 69.2608 156.492 69.9285C157.044 70.5963 157.347 71.4347 157.349 72.3008C157.377 72.4629 157.461 72.6099 157.586 72.7159C157.712 72.8219 157.871 72.88 158.036 72.88C158.2 72.88 158.359 72.8219 158.485 72.7159C158.61 72.6099 158.694 72.4629 158.722 72.3008C158.775 71.0807 158.412 69.8788 157.692 68.8919C156.973 67.905 155.94 67.1915 154.762 66.8681ZM124.514 68.8979C123.398 69.0979 122.369 69.6338 121.566 70.4338C120.762 71.2339 120.222 72.2601 120.017 73.3754C119.977 73.5575 120.011 73.7479 120.112 73.9046C120.213 74.0613 120.372 74.1716 120.554 74.2112C120.736 74.2508 120.926 74.2164 121.083 74.1157C121.24 74.0149 121.35 73.856 121.39 73.6739C121.606 72.8835 122.052 72.1754 122.672 71.6401C123.293 71.1049 124.059 70.7668 124.872 70.669C125.107 70.6215 125.313 70.4827 125.446 70.283C125.578 70.0834 125.626 69.8392 125.579 69.6044C125.531 69.3695 125.392 69.1631 125.193 69.0307C124.993 68.8982 124.749 68.8504 124.514 68.8979ZM233.208 294.703L227.417 295.181C228.253 293.37 229.108 291.559 229.924 289.768C229.961 289.697 229.968 289.614 229.944 289.537C229.92 289.461 229.866 289.397 229.795 289.36C229.724 289.323 229.641 289.316 229.564 289.34C229.488 289.364 229.424 289.418 229.387 289.489C228.332 291.479 227.258 293.35 226.163 295.3C215.517 296.176 187.458 297.449 183.736 297.489C183.567 297.489 183.406 297.556 183.286 297.676C183.167 297.795 183.1 297.957 183.1 298.126C183.1 298.295 183.167 298.457 183.286 298.576C183.406 298.696 183.567 298.763 183.736 298.763C195.975 298.763 221.268 296.872 225.526 296.534C223.536 299.917 219.556 306.484 218.979 307.738C215.935 307.738 188.532 308.076 185.269 308.016C185.105 308.016 184.948 308.081 184.832 308.197C184.717 308.313 184.652 308.47 184.652 308.633C184.652 308.797 184.717 308.954 184.832 309.069C184.948 309.185 185.105 309.25 185.269 309.25C198.462 309.588 208.651 309.529 218.183 309.071L215.457 313.35C210.303 310.185 202.562 311.897 200.751 317.986C198.361 316.855 196.071 315.523 193.905 314.006C193.607 313.807 193.249 314.225 193.527 314.464C195.642 316.481 197.911 318.331 200.313 319.996C199.219 327.956 207.019 333.15 214.382 330.603C215.628 330.151 216.767 329.449 217.729 328.538C218.691 327.627 219.455 326.528 219.974 325.309C220.472 323.555 220.523 321.704 220.124 319.924C219.724 318.145 218.886 316.494 217.686 315.121C218.721 313.131 219.676 311.021 220.79 308.952C223.676 308.812 229.307 308.514 232.213 308.175C232.311 308.154 232.398 308.1 232.461 308.022C232.524 307.945 232.558 307.848 232.558 307.748C232.558 307.648 232.524 307.551 232.461 307.473C232.398 307.395 232.311 307.341 232.213 307.32C229.486 307.32 223.536 307.598 221.467 307.678C221.586 307.399 225.666 299.002 226.88 296.415C228.69 296.216 231.039 295.957 233.347 295.639C233.471 295.62 233.583 295.553 233.657 295.452C233.732 295.352 233.764 295.225 233.745 295.101C233.727 294.977 233.66 294.866 233.559 294.791C233.458 294.716 233.332 294.685 233.208 294.703ZM210.363 321.309C208.114 320.752 203.059 318.902 201.865 318.464C203.537 312.892 210.183 311.539 214.82 314.325C213.407 316.593 211.895 318.902 210.363 321.309ZM201.467 320.732C204.667 322.834 208.066 324.614 211.616 326.046C211.686 326.063 211.759 326.059 211.827 326.034C211.894 326.009 211.953 325.965 211.994 325.906C213.586 322.941 215.258 319.757 217.129 316.155C218.085 317.267 218.764 318.59 219.11 320.015C219.456 321.441 219.459 322.928 219.119 324.354C215.875 333.846 200.751 330.901 201.467 320.752V320.732ZM222.382 199.681C231.536 199.681 231.735 199.522 231.755 199.143C231.755 197.81 231.476 156.916 230.362 130.19C230.401 130.104 230.419 130.01 230.413 129.916C230.407 129.822 230.379 129.731 230.33 129.65C230.281 129.57 230.213 129.502 230.131 129.454C230.05 129.406 229.959 129.379 229.865 129.374C226.044 129.235 174.98 129.792 170.602 129.931C170.304 129.931 169.687 130.309 169.667 130.747C169.548 140.08 168.931 194.984 168.951 198.745C168.951 199.004 169.309 199.382 169.568 199.362C173.189 199.283 216.532 199.681 222.382 199.681ZM229.367 130.528C229.586 136.359 230.541 196.497 230.601 198.487C227.735 198.308 224.85 198.288 222.004 198.268C222.502 194.547 223.059 192.298 222.422 189.771C223.498 190.064 224.646 189.929 225.626 189.395C226.605 188.861 227.34 187.969 227.676 186.905C227.694 186.849 227.695 186.789 227.679 186.732C227.663 186.676 227.63 186.625 227.586 186.587C227.541 186.549 227.486 186.524 227.428 186.517C227.369 186.51 227.31 186.52 227.258 186.547C225.029 187.601 222.979 186.547 220.83 183.761C220.161 182.876 219.599 181.913 219.158 180.895C218.526 179.759 218.209 178.474 218.243 177.174C218.243 176.139 218.601 175.045 219.099 174.945C219.596 174.846 220.512 175.602 220.472 176.457C220.447 176.69 220.374 176.914 220.258 177.116C220.141 177.318 219.984 177.494 219.795 177.632C219.748 177.674 219.716 177.731 219.703 177.793C219.69 177.855 219.698 177.92 219.724 177.978C219.751 178.036 219.795 178.084 219.851 178.114C219.907 178.145 219.971 178.157 220.034 178.149C220.558 178.11 221.062 177.93 221.493 177.629C221.923 177.328 222.265 176.916 222.482 176.438C223.059 174.647 221.069 172.159 219.059 169.97C219.059 169.97 218.203 168.975 217.069 167.602C215.705 165.355 215.065 162.742 215.238 160.12C216.353 157.851 216.769 155.302 216.432 152.796C217.194 152.935 217.981 152.83 218.681 152.498C218.715 152.476 218.743 152.447 218.764 152.412C218.785 152.378 218.797 152.339 218.8 152.299C219.22 149.238 218.793 146.12 217.566 143.284C215.377 138.23 209.467 132.14 203.139 134.369C199.994 133.234 196.559 133.192 193.388 134.25C188.393 135.842 185.428 140.876 184.393 142.767C182.634 145.998 181.705 149.615 181.687 153.294C181.348 158.13 182.045 158.806 181.309 162.11C180.307 165.781 178.633 169.236 176.373 172.298C175.526 173.446 174.855 174.713 174.383 176.059C173.783 177.674 173.441 179.373 173.368 181.094C172.327 182.246 171.35 183.455 170.443 184.716C170.443 180.736 170.841 132.061 170.861 130.986C176.075 131.006 225.049 130.588 229.367 130.528ZM207.676 150.667C207.477 149.87 207.477 149.036 207.676 148.239C207.933 149.07 208.353 149.841 208.91 150.508C208.98 150.536 209.058 150.536 209.129 150.508H209.467C208.936 152.255 208.687 154.075 208.731 155.901C208.399 155.739 208.035 155.655 207.666 155.655C207.297 155.655 206.933 155.739 206.601 155.901C206.639 154.319 206.505 152.738 206.203 151.184L207.417 151.005C207.457 151 207.495 150.988 207.529 150.968C207.563 150.948 207.594 150.922 207.618 150.89C207.642 150.859 207.659 150.823 207.669 150.785C207.679 150.746 207.682 150.706 207.676 150.667ZM205.686 156.498C205.686 158.707 204.711 161.274 202.94 161.712C198.96 162.707 197.348 154.13 199.477 150.906C199.796 150.425 200.232 150.034 200.743 149.77C201.255 149.505 201.827 149.375 202.403 149.393C205.328 149.393 205.766 153.533 205.646 156.498H205.686ZM213.208 160.478C212.885 160.569 212.544 160.576 212.217 160.5C211.89 160.423 211.587 160.265 211.338 160.04C210.893 159.631 210.535 159.136 210.285 158.586C210.035 158.035 209.899 157.44 209.885 156.836C209.746 155.423 209.746 151.383 211.397 149.851C211.658 149.604 211.977 149.425 212.324 149.331C212.672 149.237 213.037 149.231 213.387 149.314C214.482 149.493 215.736 150.747 215.576 155.582C215.477 158.13 214.661 159.841 213.168 160.478H213.208ZM190.9 153.951C190.08 153.676 189.193 153.676 188.373 153.951C188.552 143.205 187.796 144.518 188.373 141.414C188.93 137.036 195.219 133.454 201.567 135.046C195.696 138.23 191.119 147.443 190.9 153.951ZM187.756 155.543C188.211 155.22 188.742 155.022 189.296 154.966C189.851 154.91 190.41 154.999 190.92 155.224C190.959 156.208 191.21 157.172 191.657 158.05C193.129 160.836 195.378 162.448 196.85 159.682C196.873 159.639 196.886 159.592 196.887 159.544C196.887 159.496 196.877 159.449 196.855 159.406C196.834 159.363 196.802 159.326 196.763 159.297C196.724 159.269 196.679 159.251 196.632 159.244C193.826 158.906 193.587 154.587 197.348 153.672C197.348 156.219 197.348 160.159 200.074 162.129C200.763 162.625 201.603 162.864 202.45 162.806C203.297 162.748 204.096 162.396 204.711 161.811C205.866 160.588 206.52 158.976 206.542 157.294C206.765 157.016 207.085 156.831 207.437 156.776C207.697 156.736 207.963 156.762 208.211 156.852C208.458 156.943 208.678 157.095 208.85 157.294C208.852 158.379 209.262 159.424 210 160.221C210.737 161.018 211.748 161.507 212.83 161.592C212.81 162.988 212.595 164.374 212.193 165.711C211.537 167.94 209.527 173.234 203.935 172.338C203.891 172.335 203.848 172.342 203.807 172.356C203.766 172.371 203.728 172.394 203.697 172.424C203.665 172.454 203.64 172.49 203.623 172.53C203.605 172.57 203.597 172.613 203.597 172.657C203.776 176.637 203.716 176.637 203.975 176.637C204.97 177.074 205.965 180.756 204.791 182.487C203.616 184.218 201.248 183.92 199.278 182.607C197.726 174.288 198.084 167.761 191.497 161.712C191.454 161.689 191.407 161.677 191.358 161.677C191.31 161.677 191.262 161.689 191.219 161.712C190.429 161.951 189.581 161.914 188.815 161.606C188.05 161.299 187.412 160.738 187.008 160.019C186.604 159.299 186.458 158.463 186.594 157.649C186.73 156.835 187.14 156.092 187.756 155.543ZM195.537 187.701C196.151 189.392 197.308 190.831 198.828 191.792C200.348 192.754 202.144 193.184 203.935 193.014C204.014 193.014 204.09 192.983 204.146 192.927C204.202 192.871 204.233 192.795 204.233 192.716C204.233 192.637 204.202 192.561 204.146 192.505C204.09 192.449 204.014 192.417 203.935 192.417C202.733 192.164 201.664 191.48 200.931 190.494C200.198 189.508 199.851 188.288 199.955 187.064C199.955 186.348 199.796 185.412 199.597 184.099C204.691 187.004 208.333 181.711 205.766 176.955C217.109 179.363 221.089 190.885 221.029 198.248H194.741C195 194.547 195.298 190.984 195.537 187.701ZM170.344 186.706C171.816 184.417 174.702 180.238 177.329 180.975C182.045 182.248 186.005 189.273 187.02 198.129H170.184C170.264 194.666 170.304 191.024 170.344 186.706ZM293.326 184C287.594 184 243.297 184.398 241.347 184.258C241.229 184.282 241.124 184.345 241.048 184.437C240.972 184.53 240.93 184.646 240.93 184.766C240.93 184.885 240.972 185.001 241.048 185.094C241.124 185.186 241.229 185.25 241.347 185.273C253.645 185.89 287.236 184.955 293.365 184.597C293.405 184.594 293.443 184.584 293.478 184.566C293.513 184.549 293.545 184.525 293.571 184.495C293.597 184.465 293.616 184.431 293.629 184.394C293.642 184.357 293.647 184.317 293.644 184.278C293.641 184.239 293.631 184.201 293.614 184.165C293.596 184.13 293.572 184.099 293.543 184.073C293.513 184.047 293.479 184.027 293.441 184.015C293.404 184.002 293.365 183.997 293.326 184ZM240.65 171.821C253.625 172.696 288.968 171.662 293.505 171.184C293.593 171.164 293.671 171.115 293.727 171.044C293.784 170.974 293.814 170.886 293.814 170.796C293.814 170.706 293.784 170.618 293.727 170.548C293.671 170.477 293.593 170.428 293.505 170.408C287.077 170.786 244.77 170.905 240.75 170.667C239.954 170.587 239.894 171.761 240.65 171.821ZM241.367 158.13C241.214 158.13 241.067 158.19 240.959 158.299C240.85 158.407 240.79 158.554 240.79 158.707C240.79 158.86 240.85 159.006 240.959 159.115C241.067 159.223 241.214 159.284 241.367 159.284C254.003 159.722 290.301 159.284 293.823 158.488C293.887 158.471 293.943 158.433 293.983 158.381C294.023 158.329 294.045 158.265 294.045 158.199C294.045 158.133 294.023 158.069 293.983 158.017C293.943 157.965 293.887 157.927 293.823 157.911C293.823 157.911 245.148 158.13 241.367 158.13ZM241.327 146.767C250.003 147.085 281.286 147.125 284.231 146.19C284.311 146.19 284.386 146.158 284.442 146.102C284.498 146.046 284.53 145.97 284.53 145.891C284.53 145.812 284.498 145.736 284.442 145.68C284.386 145.624 284.311 145.593 284.231 145.593C273.306 145.871 244.809 145.712 241.466 145.593C241.322 145.596 241.185 145.651 241.078 145.747C240.971 145.844 240.903 145.976 240.886 146.119C240.87 146.262 240.905 146.406 240.986 146.525C241.067 146.644 241.188 146.73 241.327 146.767ZM194.144 250.565C194.23 250.562 194.314 250.538 194.389 250.495C194.463 250.453 194.527 250.393 194.574 250.321C194.62 250.248 194.649 250.166 194.658 250.08C194.666 249.995 194.654 249.909 194.622 249.829C194.721 248.018 194.502 242.267 194.502 240.734C195.935 239.501 197.507 238.287 198.92 237.013C198.968 236.968 199.006 236.914 199.032 236.855C199.057 236.795 199.071 236.73 199.071 236.665C199.071 236.6 199.057 236.535 199.032 236.475C199.006 236.415 198.968 236.361 198.92 236.317C198.363 235.939 195.676 238.088 194.562 239.043C194.423 238.426 194.383 238.486 181.448 238.346C181.343 238.341 181.238 238.364 181.144 238.412C181.05 238.461 180.971 238.533 180.915 238.622C180.858 238.711 180.826 238.813 180.822 238.919C180.818 239.024 180.841 239.129 180.891 239.222C180.891 240.436 181.05 247.58 181.05 249.928C181.055 250.076 181.114 250.218 181.217 250.324C181.32 250.431 181.459 250.495 181.607 250.505C182.881 250.525 193.865 250.585 194.144 250.565ZM182.045 239.58C194.781 239.839 193.487 239.58 193.507 239.978C191.706 241.489 190.06 243.176 188.592 245.013C187.637 243.739 186.602 242.565 185.766 241.312C185.408 240.814 184.612 241.312 184.97 241.849C186.065 243.421 186.96 245.053 188.114 246.645C188.188 246.751 188.29 246.835 188.409 246.886C188.528 246.938 188.659 246.956 188.787 246.937C188.915 246.918 189.035 246.864 189.134 246.781C189.234 246.698 189.308 246.589 189.348 246.466C190.583 244.724 191.997 243.116 193.567 241.67C193.567 243.66 193.567 247.739 193.706 249.47C191.856 249.47 184.473 249.371 182.224 249.371C182.045 247.182 182.045 240.655 182.045 239.58ZM198.92 218.745C198.968 218.7 199.006 218.646 199.032 218.586C199.057 218.527 199.071 218.462 199.071 218.397C199.071 218.331 199.057 218.267 199.032 218.207C199.006 218.147 198.968 218.093 198.92 218.048C198.363 217.67 195.676 219.82 194.562 220.775C194.423 220.158 194.423 220.218 181.448 220.058C181.342 220.057 181.237 220.083 181.144 220.134C181.052 220.185 180.973 220.259 180.917 220.349C180.861 220.439 180.829 220.542 180.825 220.648C180.82 220.754 180.843 220.859 180.891 220.954C180.891 222.168 181.05 229.312 181.05 231.66C181.055 231.808 181.114 231.949 181.217 232.056C181.32 232.163 181.459 232.227 181.607 232.237H194.184C194.269 232.237 194.353 232.216 194.428 232.176C194.503 232.136 194.567 232.078 194.614 232.007C194.662 231.936 194.691 231.854 194.699 231.77C194.707 231.685 194.694 231.599 194.661 231.521C194.761 229.71 194.542 223.959 194.542 222.426C195.975 221.213 197.487 220.038 198.92 218.745ZM182.045 221.312C194.781 221.571 193.487 221.312 193.507 221.71C191.701 223.216 190.054 224.903 188.592 226.745C187.677 225.531 186.602 224.277 185.766 223.043C185.408 222.546 184.612 223.043 184.97 223.561C186.065 225.133 186.96 226.785 188.114 228.377C188.188 228.483 188.29 228.567 188.409 228.618C188.528 228.67 188.659 228.687 188.787 228.669C188.915 228.65 189.035 228.596 189.134 228.513C189.234 228.43 189.308 228.32 189.348 228.197C190.578 226.452 191.992 224.844 193.567 223.402C193.567 225.392 193.567 229.372 193.706 231.202H182.224C182.045 228.914 182.045 222.387 182.045 221.312ZM198.92 201.651C198.968 201.606 199.006 201.552 199.032 201.492C199.057 201.432 199.071 201.368 199.071 201.303C199.071 201.237 199.057 201.173 199.032 201.113C199.006 201.053 198.968 200.999 198.92 200.954C198.363 200.576 195.676 202.725 194.562 203.681C194.535 203.552 194.465 203.437 194.364 203.354C194.262 203.271 194.136 203.225 194.005 203.223C190.025 203.044 181.428 202.984 181.428 202.984C181.324 202.982 181.222 203.008 181.131 203.058C181.04 203.108 180.964 203.18 180.91 203.269C180.856 203.357 180.825 203.458 180.822 203.562C180.819 203.665 180.842 203.768 180.891 203.86C180.891 205.074 181.05 212.218 181.05 214.566C181.055 214.714 181.114 214.855 181.217 214.962C181.32 215.069 181.459 215.133 181.607 215.143H194.184C194.268 215.136 194.35 215.109 194.422 215.065C194.494 215.022 194.556 214.962 194.602 214.891C194.648 214.82 194.677 214.74 194.688 214.656C194.698 214.572 194.689 214.487 194.661 214.407C194.761 212.596 194.542 206.845 194.542 205.312C195.975 204.118 197.527 202.905 198.92 201.651ZM182.045 204.218C194.781 204.497 193.487 204.218 193.507 204.616C191.706 206.127 190.06 207.814 188.592 209.651C187.637 208.397 186.602 207.223 185.766 205.949C185.388 205.452 184.592 205.949 184.97 206.487C186.045 208.039 186.96 209.69 188.114 211.282C188.188 211.389 188.29 211.473 188.409 211.524C188.528 211.576 188.659 211.593 188.787 211.575C188.915 211.556 189.035 211.502 189.134 211.419C189.234 211.336 189.308 211.226 189.348 211.103C190.578 209.358 191.992 207.75 193.567 206.307C193.567 208.297 193.567 212.377 193.706 214.108H182.224C182.045 211.859 182.045 205.293 182.045 204.218ZM267.416 237.013C267.463 236.968 267.501 236.914 267.527 236.855C267.553 236.795 267.567 236.73 267.567 236.665C267.567 236.6 267.553 236.535 267.527 236.475C267.501 236.415 267.463 236.361 267.416 236.317C266.859 235.939 264.172 238.088 263.058 239.043C262.899 238.406 262.859 238.486 249.944 238.346C249.838 238.341 249.734 238.364 249.64 238.412C249.546 238.461 249.467 238.533 249.41 238.622C249.354 238.711 249.322 238.813 249.318 238.919C249.313 239.024 249.337 239.129 249.386 239.222C249.386 240.436 249.546 249.928 249.546 249.928C249.546 250.078 249.604 250.222 249.708 250.329C249.812 250.437 249.953 250.5 250.103 250.505H262.68C262.766 250.503 262.85 250.48 262.925 250.438C263 250.395 263.063 250.334 263.108 250.261C263.154 250.188 263.18 250.105 263.185 250.019C263.19 249.933 263.174 249.847 263.137 249.769C263.257 247.958 263.137 242.207 263.137 240.675C264.451 239.501 265.983 238.307 267.416 237.013ZM250.441 239.58C263.177 239.839 261.884 239.58 261.923 239.978C260.113 241.479 258.465 243.167 257.008 245.013C256.073 243.799 255.018 242.585 254.162 241.312C253.784 240.814 253.008 241.312 253.366 241.849C254.461 243.421 255.356 245.073 256.511 246.645C256.584 246.751 256.687 246.835 256.805 246.886C256.924 246.938 257.055 246.956 257.183 246.937C257.311 246.918 257.432 246.864 257.531 246.781C257.63 246.698 257.704 246.589 257.744 246.466C258.976 244.715 260.397 243.107 261.983 241.67C261.983 243.66 261.983 247.739 262.103 249.47C260.252 249.47 252.869 249.371 250.62 249.371C250.561 247.162 250.461 240.635 250.441 239.58ZM249.347 220.954C249.347 222.168 249.506 231.66 249.506 231.66C249.506 231.81 249.564 231.954 249.668 232.061C249.772 232.169 249.913 232.232 250.063 232.237H262.64C262.734 232.237 262.827 232.211 262.908 232.162C262.988 232.113 263.054 232.042 263.098 231.958C263.257 231.64 263.098 223.481 263.098 222.426C264.232 221.451 267.495 218.825 267.595 218.586C267.694 218.347 267.595 218.068 267.476 218.009C266.918 217.631 264.232 219.78 263.117 220.735C263.094 220.605 263.025 220.488 262.923 220.404C262.821 220.32 262.692 220.275 262.56 220.277C258.58 220.078 254.202 220.078 250.003 220.019C249.884 219.991 249.759 220 249.644 220.044C249.53 220.088 249.431 220.165 249.36 220.265C249.29 220.366 249.251 220.485 249.249 220.607C249.246 220.73 249.28 220.851 249.347 220.954ZM250.441 221.312C263.177 221.571 261.884 221.312 261.923 221.71C260.113 223.211 258.465 224.898 257.008 226.745C256.053 225.491 255.018 224.277 254.162 223.043C253.804 222.546 253.008 223.043 253.366 223.561C254.441 225.113 255.356 226.824 256.531 228.377C256.603 228.484 256.705 228.568 256.823 228.62C256.942 228.671 257.074 228.687 257.201 228.666C257.329 228.645 257.448 228.588 257.545 228.502C257.641 228.415 257.71 228.302 257.744 228.178C258.987 226.442 260.408 224.842 261.983 223.402C261.983 225.392 261.983 229.372 262.103 231.202H250.62C250.561 228.894 250.461 222.367 250.441 221.312ZM267.416 201.651C267.463 201.606 267.501 201.552 267.527 201.492C267.553 201.432 267.567 201.368 267.567 201.303C267.567 201.237 267.553 201.173 267.527 201.113C267.501 201.053 267.463 200.999 267.416 200.954C266.859 200.576 264.172 202.725 263.058 203.681C263.031 203.552 262.961 203.437 262.859 203.354C262.758 203.271 262.632 203.225 262.501 203.223C258.521 203.044 249.924 202.984 249.924 202.984C249.82 202.982 249.718 203.008 249.627 203.058C249.536 203.108 249.46 203.18 249.406 203.269C249.351 203.357 249.321 203.458 249.318 203.562C249.314 203.665 249.338 203.768 249.386 203.86C249.386 205.074 249.546 214.566 249.546 214.566C249.546 214.716 249.604 214.859 249.708 214.967C249.812 215.075 249.953 215.138 250.103 215.143H262.68C262.775 215.135 262.866 215.103 262.946 215.051C263.026 214.999 263.092 214.928 263.137 214.845C263.297 214.526 263.137 206.367 263.137 205.312C264.471 204.118 266.023 202.905 267.416 201.651ZM250.441 204.218C258.839 204.397 261.127 204.337 261.744 204.377C262.043 204.377 261.904 204.477 261.923 204.616C260.113 206.117 258.465 207.804 257.008 209.651C256.073 208.417 255.018 207.223 254.162 205.949C253.804 205.452 253.008 205.949 253.366 206.487C254.441 208.039 255.356 209.73 256.511 211.282C256.584 211.389 256.687 211.473 256.805 211.524C256.924 211.576 257.055 211.593 257.183 211.575C257.311 211.556 257.432 211.502 257.531 211.419C257.63 211.336 257.704 211.226 257.744 211.103C258.981 209.357 260.402 207.749 261.983 206.307C261.983 208.297 261.983 212.377 262.103 214.108H250.62C250.561 211.859 250.461 205.273 250.441 204.218ZM200.293 212.417C209.089 212.417 234.879 211.621 234.879 211.621C234.972 211.6 235.055 211.548 235.115 211.474C235.174 211.4 235.207 211.308 235.207 211.213C235.207 211.118 235.174 211.025 235.115 210.951C235.055 210.877 234.972 210.825 234.879 210.805C230.382 210.805 203.039 211.243 200.313 211.342C200.171 211.339 200.033 211.394 199.93 211.492C199.828 211.591 199.768 211.727 199.766 211.869C199.763 212.012 199.817 212.15 199.916 212.252C200.015 212.355 200.151 212.414 200.293 212.417ZM200.97 207.382C200.811 207.382 200.66 207.445 200.548 207.557C200.436 207.669 200.373 207.821 200.373 207.979C200.373 208.137 200.436 208.289 200.548 208.401C200.66 208.513 200.811 208.576 200.97 208.576L237.427 208.676C237.519 208.655 237.602 208.603 237.662 208.529C237.721 208.455 237.754 208.363 237.754 208.268C237.754 208.172 237.721 208.08 237.662 208.006C237.602 207.932 237.519 207.88 237.427 207.86C232.75 207.681 203.616 207.322 200.97 207.382ZM199.477 226.088C199.477 226.088 232.949 225.292 235.695 225.153C235.827 225.153 235.954 225.1 236.047 225.007C236.14 224.914 236.193 224.787 236.193 224.655C236.193 224.523 236.14 224.397 236.047 224.303C235.954 224.21 235.827 224.158 235.695 224.158C235.695 224.158 202.343 224.775 199.497 224.854C199.334 224.852 199.176 224.914 199.058 225.028C198.941 225.142 198.873 225.298 198.87 225.461C198.868 225.625 198.93 225.783 199.044 225.9C199.158 226.018 199.314 226.085 199.477 226.088ZM199.497 229.77C201.487 229.77 210.681 229.113 211.676 228.974C211.776 228.974 211.872 228.934 211.943 228.863C212.014 228.792 212.054 228.696 212.054 228.595C212.054 228.495 212.014 228.399 211.943 228.328C211.872 228.257 211.776 228.217 211.676 228.217C211.676 228.217 201.567 228.595 199.517 228.635C199.384 228.658 199.264 228.726 199.176 228.828C199.088 228.93 199.039 229.059 199.036 229.194C199.034 229.329 199.079 229.46 199.163 229.565C199.247 229.67 199.365 229.742 199.497 229.77ZM228.273 239.521C220.511 239.204 212.738 239.317 204.99 239.859C204.253 239.859 204.253 241.053 204.99 241.053C207.238 241.053 201.209 241.053 222.9 240.496L228.153 240.376C228.257 240.374 228.356 240.334 228.434 240.265C228.511 240.196 228.562 240.102 228.576 239.999C228.59 239.896 228.568 239.792 228.512 239.704C228.457 239.616 228.372 239.551 228.273 239.521ZM204.472 245.968C204.34 245.993 204.221 246.063 204.135 246.167C204.049 246.27 204.002 246.401 204.002 246.535C204.002 246.67 204.049 246.8 204.135 246.904C204.221 247.007 204.34 247.078 204.472 247.102H225.407C225.528 247.102 225.645 247.054 225.731 246.968C225.816 246.883 225.865 246.766 225.865 246.645C225.865 246.523 225.816 246.407 225.731 246.321C225.645 246.235 225.528 246.187 225.407 246.187C218.443 245.62 211.447 245.547 204.472 245.968ZM288.987 211.68C282.011 211.102 275.002 211.009 268.013 211.402C267.881 211.427 267.761 211.497 267.675 211.601C267.59 211.704 267.542 211.834 267.542 211.969C267.542 212.104 267.59 212.234 267.675 212.337C267.761 212.441 267.881 212.511 268.013 212.536H288.948C289.036 212.507 289.114 212.452 289.17 212.378C289.227 212.304 289.259 212.215 289.264 212.122C289.268 212.029 289.244 211.937 289.194 211.858C289.145 211.779 289.073 211.717 288.987 211.68ZM269.286 206.924C269.154 206.949 269.035 207.019 268.949 207.123C268.863 207.227 268.816 207.357 268.816 207.491C268.816 207.626 268.863 207.756 268.949 207.86C269.035 207.963 269.154 208.034 269.286 208.059C278.122 208.059 301.007 207.72 303.594 207.661C303.673 207.661 303.749 207.629 303.805 207.573C303.861 207.517 303.893 207.441 303.893 207.362C303.893 207.283 303.861 207.207 303.805 207.151C303.749 207.095 303.673 207.064 303.594 207.064C296.649 206.506 280.013 206.865 269.286 206.924ZM298.699 224.834C293.584 225.053 273.863 224.834 269.048 224.317C268.311 224.317 268.252 225.372 269.048 225.451C273.883 225.969 293.604 226.128 298.798 225.69C298.896 225.66 298.981 225.597 299.037 225.511C299.093 225.425 299.117 225.322 299.105 225.221C299.094 225.119 299.046 225.024 298.972 224.954C298.898 224.883 298.801 224.841 298.699 224.834ZM283.356 228.755C280.928 228.615 271.276 228.396 268.888 228.436C268.751 228.436 268.62 228.491 268.523 228.588C268.426 228.685 268.371 228.816 268.371 228.954C268.371 229.091 268.426 229.222 268.523 229.319C268.62 229.417 268.751 229.471 268.888 229.471H283.336C283.431 229.474 283.523 229.438 283.592 229.373C283.661 229.308 283.701 229.218 283.704 229.123C283.707 229.028 283.671 228.936 283.606 228.867C283.541 228.798 283.451 228.757 283.356 228.755ZM297.246 241.71C297.357 241.71 297.463 241.665 297.541 241.587C297.62 241.509 297.664 241.402 297.664 241.292C297.664 241.181 297.62 241.074 297.541 240.996C297.463 240.918 297.357 240.874 297.246 240.874C292.768 240.715 276.928 240.476 273.485 240.376C273.355 240.376 273.229 240.425 273.133 240.513C273.037 240.602 272.978 240.724 272.968 240.854C272.962 240.993 273.011 241.129 273.104 241.233C273.197 241.337 273.326 241.401 273.465 241.411C281.326 241.71 289.306 241.889 297.246 241.71ZM283.754 245.411C280.769 245.411 277.644 245.53 274.281 245.67C274.134 245.696 274.001 245.773 273.905 245.888C273.809 246.002 273.757 246.147 273.757 246.296C273.757 246.446 273.809 246.591 273.905 246.705C274.001 246.82 274.134 246.897 274.281 246.923C274.48 246.923 280.689 246.625 283.794 246.287C283.91 246.281 284.019 246.23 284.097 246.144C284.176 246.058 284.217 245.945 284.211 245.829C284.206 245.713 284.155 245.603 284.069 245.525C283.983 245.447 283.87 245.406 283.754 245.411ZM299.674 257.888C290.679 257.63 186.124 257.63 182.841 257.63C182.672 257.63 182.51 257.697 182.391 257.816C182.271 257.935 182.204 258.097 182.204 258.266C182.204 258.435 182.271 258.597 182.391 258.717C182.51 258.836 182.672 258.903 182.841 258.903C184.632 258.903 293.485 258.764 299.694 258.525C299.778 258.522 299.858 258.486 299.916 258.425C299.974 258.363 300.005 258.281 300.002 258.197C299.999 258.112 299.963 258.032 299.902 257.974C299.84 257.917 299.758 257.886 299.674 257.888ZM299.972 267.42C299.972 266.883 303.057 266.704 215.039 266.843H185.189C185.041 266.843 184.9 266.902 184.795 267.006C184.691 267.111 184.632 267.253 184.632 267.4C184.632 267.548 184.691 267.69 184.795 267.794C184.9 267.899 185.041 267.958 185.189 267.958C187.438 267.958 296.151 267.858 299.714 267.699C299.782 267.69 299.846 267.657 299.893 267.606C299.94 267.555 299.968 267.49 299.972 267.42ZM182.841 276.435C182.714 276.459 182.599 276.527 182.516 276.627C182.434 276.727 182.389 276.853 182.389 276.982C182.389 277.112 182.434 277.237 182.516 277.337C182.599 277.437 182.714 277.505 182.841 277.529C188.811 277.629 226.76 278.664 228.392 278.664C228.49 278.643 228.577 278.589 228.64 278.511C228.703 278.433 228.737 278.336 228.737 278.236C228.737 278.136 228.703 278.039 228.64 277.961C228.577 277.883 228.49 277.829 228.392 277.808C222.482 277.35 186.562 276.455 182.841 276.435ZM229.685 287.101C229.783 287.08 229.871 287.026 229.933 286.948C229.996 286.871 230.03 286.774 230.03 286.674C230.03 286.574 229.996 286.477 229.933 286.399C229.871 286.321 229.783 286.267 229.685 286.246C219.735 286.942 182.503 287.48 182.702 287.48C182.554 287.506 182.421 287.583 182.325 287.698C182.229 287.812 182.177 287.957 182.177 288.106C182.177 288.256 182.229 288.4 182.325 288.515C182.421 288.63 182.554 288.707 182.702 288.733C193.985 289.131 225.606 287.619 229.685 287.101ZM295.734 278.664C295.813 278.664 295.889 278.632 295.945 278.576C296.001 278.52 296.032 278.444 296.032 278.365C296.032 278.286 296.001 278.21 295.945 278.154C295.889 278.098 295.813 278.067 295.734 278.067C289.664 277.868 251.536 277.53 249.964 277.41C249.826 277.435 249.702 277.508 249.613 277.615C249.524 277.723 249.475 277.858 249.475 277.997C249.475 278.137 249.524 278.272 249.613 278.379C249.702 278.486 249.826 278.559 249.964 278.584C260.909 279.042 291.674 278.923 295.734 278.664ZM251.038 287.937C262.142 288.773 293.545 288.395 298.261 288.077C298.372 288.077 298.478 288.032 298.556 287.954C298.635 287.876 298.679 287.769 298.679 287.659C298.679 287.548 298.635 287.441 298.556 287.363C298.478 287.285 298.372 287.241 298.261 287.241C294.957 287.4 254.481 286.882 251.118 286.664C250.242 286.604 250.222 287.877 251.038 287.937ZM302.559 324.115C287.336 323.24 246.222 322.663 247.098 322.663C246.924 322.663 246.757 322.732 246.634 322.855C246.51 322.978 246.441 323.145 246.441 323.319C246.441 323.494 246.51 323.661 246.634 323.784C246.757 323.907 246.924 323.976 247.098 323.976L302.539 324.892C302.628 324.874 302.708 324.827 302.766 324.758C302.824 324.688 302.857 324.602 302.859 324.511C302.862 324.421 302.833 324.333 302.779 324.261C302.724 324.189 302.647 324.138 302.559 324.115ZM298.221 316.195C296.629 316.334 296.43 316.076 295.913 315.419C293.405 312.235 291.236 316.533 287.614 316.693C286.679 316.693 286.002 316.693 285.803 316.315C285.604 315.937 285.684 315.837 285.803 315.439C285.923 315.041 288.112 313.986 287.973 313.31C287.928 313.182 287.839 313.074 287.723 313.005C287.606 312.936 287.469 312.91 287.336 312.932C286.799 313.069 286.297 313.317 285.862 313.66C285.427 314.003 285.068 314.432 284.808 314.922C282.361 316.155 279.256 317.807 277.505 315.598C277.387 315.407 277.31 315.193 277.279 314.97C277.248 314.748 277.264 314.521 277.326 314.305L278.361 313.29C278.428 313.208 278.468 313.107 278.476 313.001C278.484 312.895 278.459 312.789 278.405 312.698C278.351 312.606 278.27 312.534 278.173 312.49C278.076 312.447 277.968 312.434 277.863 312.454C277.514 312.545 277.193 312.719 276.926 312.962C276.659 313.204 276.455 313.508 276.331 313.847C275.024 315.015 273.573 316.012 272.013 316.812C271.495 317.071 270.321 317.827 269.864 317.469C269.406 317.111 269.545 314.981 269.744 314.205C272.988 311.26 272.908 310.424 272.868 310.046C272.829 309.668 272.271 309.031 271.854 309.31C270.287 310.391 269.142 311.98 268.61 313.807C266.441 315.379 262.839 317.588 262.083 315.001C265.105 313.166 267.477 310.431 268.869 307.18C269.326 306.026 270.082 304.076 268.869 303.002C267.655 301.927 266.162 303.419 265.406 304.215C262.664 306.883 261.077 310.52 260.988 314.344C258.981 315.542 256.901 316.612 254.759 317.548C253.366 318.205 252.232 318.603 251.635 317.449C251.22 316.393 251.103 315.243 251.297 314.126C251.685 308.48 254.004 303.14 257.864 299.002C258.554 298.204 259.494 297.663 260.53 297.469C260.739 297.478 260.944 297.533 261.13 297.629C261.315 297.725 261.477 297.861 261.605 298.027C262.6 299.201 262.122 300.793 261.506 302.464C261.307 303.021 262.162 303.32 262.401 302.763C262.817 302.055 263.078 301.266 263.167 300.45C263.257 299.634 263.172 298.808 262.918 298.027C262.652 297.353 262.131 296.81 261.469 296.516C260.806 296.222 260.055 296.2 259.376 296.454C257.885 297.176 256.62 298.291 255.715 299.678C252.668 303.547 250.771 308.195 250.242 313.091C249.904 316.275 250.242 319.897 253.347 319.32C254.184 319.105 254.992 318.791 255.754 318.384C257.638 317.563 259.472 316.633 261.247 315.598C262.381 318.504 265.804 317.011 268.431 315.26C268.192 317.608 269.107 319.359 271.257 318.384C273.077 317.62 274.769 316.58 276.271 315.3C276.453 315.94 276.824 316.511 277.335 316.937C277.846 317.363 278.474 317.625 279.137 317.688C281.049 317.728 282.933 317.224 284.57 316.235C284.57 318.225 287.455 318.225 289.306 317.529C292.072 316.673 293.525 314.742 294.679 315.737C295.256 316.235 295.594 317.051 296.549 317.31C297.572 317.433 298.607 317.386 299.614 317.17C302.221 316.892 305.047 316.713 307.415 316.335C307.494 316.335 307.57 316.303 307.626 316.247C307.682 316.191 307.713 316.115 307.713 316.036C307.713 315.957 307.682 315.881 307.626 315.825C307.57 315.769 307.494 315.737 307.415 315.737L298.221 316.195ZM266.719 304.434C268.431 302.803 269.346 304.056 267.575 307.559C266.273 309.984 264.376 312.038 262.063 313.529C262.407 310.017 264.071 306.767 266.719 304.434Z" fill="black"/>
<path d="M208.469 162.766L207.812 163.383C207.73 163.462 207.678 163.567 207.666 163.681C207.654 163.794 207.684 163.908 207.749 164.002C207.813 164.095 207.91 164.163 208.02 164.192C208.13 164.221 208.247 164.209 208.35 164.159C208.759 163.956 209.146 163.709 209.504 163.423C209.683 163.224 209.922 162.906 207.912 159.722C207.842 159.64 207.746 159.586 207.64 159.569C207.534 159.551 207.425 159.571 207.332 159.626C207.24 159.681 207.17 159.766 207.134 159.867C207.098 159.968 207.098 160.079 207.136 160.179C207.275 160.418 208.23 162.309 208.469 162.766ZM201.325 168.916C201.862 169.166 202.464 169.246 203.048 169.142C203.632 169.039 204.17 168.758 204.589 168.338C204.68 168.219 204.724 168.07 204.713 167.92C204.702 167.77 204.636 167.629 204.529 167.524C204.421 167.419 204.279 167.357 204.129 167.349C203.978 167.342 203.831 167.389 203.713 167.483C202.638 168.378 200.29 167.483 199.474 166.368C199.136 165.931 198.44 166.368 198.778 166.846C199.394 167.781 200.284 168.504 201.325 168.916ZM202.698 156.717C202.698 156.595 202.65 156.479 202.564 156.393C202.478 156.307 202.362 156.259 202.24 156.259C202.119 156.259 202.003 156.307 201.917 156.393C201.831 156.479 201.783 156.595 201.783 156.717C201.735 157.32 201.735 157.925 201.783 158.528C201.853 158.637 201.957 158.721 202.078 158.768C202.199 158.816 202.332 158.823 202.458 158.79C202.584 158.757 202.696 158.685 202.779 158.584C202.861 158.483 202.909 158.359 202.917 158.229C202.937 157.871 202.718 156.916 202.698 156.717ZM212.171 156.438C212.171 156.301 212.116 156.169 212.019 156.072C211.922 155.975 211.79 155.921 211.653 155.921C211.516 155.921 211.384 155.975 211.287 156.072C211.19 156.169 211.136 156.301 211.136 156.438C211.136 158.428 211.295 158.568 211.394 158.647C211.455 158.705 211.528 158.748 211.608 158.775C211.688 158.801 211.772 158.81 211.855 158.8C211.939 158.791 212.019 158.763 212.091 158.72C212.162 158.676 212.223 158.617 212.27 158.548C212.327 157.843 212.293 157.134 212.171 156.438ZM202.141 154.826C202.217 154.837 202.295 154.833 202.369 154.812C202.444 154.792 202.513 154.756 202.573 154.707C202.633 154.659 202.682 154.598 202.717 154.53C202.752 154.461 202.773 154.386 202.778 154.309C202.778 153.811 202.38 153.553 201.882 153.612C201.511 153.664 201.167 153.84 200.907 154.11C200.647 154.381 200.486 154.731 200.449 155.105C200.436 155.344 200.436 155.583 200.449 155.821C200.431 155.943 200.461 156.066 200.534 156.165C200.607 156.264 200.716 156.33 200.837 156.349C200.959 156.367 201.083 156.337 201.182 156.264C201.28 156.191 201.346 156.082 201.365 155.961C201.345 155.523 201.663 154.727 202.141 154.826ZM212.509 153.075C212.351 153.05 212.189 153.086 212.056 153.175C211.923 153.263 211.829 153.399 211.791 153.554C211.753 153.71 211.776 153.874 211.853 154.014C211.931 154.153 212.058 154.259 212.21 154.309C213.006 154.488 212.986 154.986 212.947 155.125C212.925 155.209 212.93 155.299 212.96 155.381C212.99 155.463 213.043 155.534 213.114 155.585C213.184 155.637 213.269 155.666 213.356 155.669C213.443 155.672 213.529 155.649 213.603 155.602C214.161 155.324 213.882 153.394 212.509 153.075ZM336.247 335.24C333.959 334.464 330.595 337.23 331.391 339.379C331.68 339.972 332.189 340.43 332.81 340.653C333.431 340.876 334.115 340.847 334.715 340.573C335.869 340.195 337.66 339.021 337.899 337.707C337.962 337.167 337.83 336.622 337.527 336.169C337.225 335.717 336.771 335.387 336.247 335.24ZM334.954 339.22C334.217 339.578 333.222 339.876 332.665 339.22C332.108 338.563 333.939 336.314 335.531 336.414C336.526 336.354 337.819 337.707 334.954 339.22Z" fill="black"/>
<path d="M378.893 268.834C370.177 268.575 359.889 268.396 349.461 269.072C348.272 264.687 346.809 260.38 345.083 256.177C341.69 247.711 336.288 240.198 329.342 234.287C328.877 234.006 328.353 233.834 327.811 233.784C327.269 233.734 326.723 233.808 326.213 233.999C325.704 234.191 325.245 234.495 324.87 234.89C324.495 235.284 324.214 235.759 324.049 236.277C324.049 236.058 321.601 131.444 321.323 124.598C321.323 124.161 321.323 124.101 320.885 124.061H297.005C296.999 123.135 296.74 122.229 296.256 121.439C295.772 120.65 295.081 120.008 294.259 119.584C293.535 119.221 292.724 119.068 291.918 119.144C291.111 119.22 290.343 119.521 289.7 120.013C289.056 120.505 288.564 121.167 288.28 121.925C287.995 122.683 287.929 123.506 288.09 124.3C277.563 124.3 186.023 123.424 176.491 123.325C175.592 119.628 173.794 116.21 171.257 113.375C168.192 109.753 167.436 106.788 165.844 100.718C164.351 94.9734 163.727 89.0369 163.993 83.1069C165.636 76.9347 166.262 70.5357 165.844 64.1622C168.689 64.9663 171.655 65.2495 174.6 64.998C174.666 64.9896 174.727 64.9597 174.774 64.9129C174.821 64.866 174.85 64.805 174.859 64.7393C175.857 56.4172 174.911 47.977 172.093 40.0832C168.113 28.7402 157.864 14.2132 144.75 9.13866C141.568 7.80536 138.127 7.20602 134.682 7.38517C131.237 7.56432 127.876 8.51734 124.85 10.1735C110.403 7.02926 95.418 10.87 85.7466 20.1235C68.8316 29.9143 62.4437 53.8142 61.4089 72.8585C60.6527 86.7885 62.3044 84.5199 61.0507 91.5645C58.7821 104.34 52.1156 115.066 48.1157 121.414C43.7576 128.459 42.2651 129.374 39.9965 134.608C37.4679 140.655 36.1495 147.138 36.116 153.692C23.0218 167.722 14.8827 187.98 11.9176 213.85C10.0868 232.158 8.91269 251.381 16.8727 268.296L17.4896 269.351C13.5096 269.351 2.36559 269.55 1.07209 269.809C0.934864 269.809 0.803261 269.863 0.70623 269.96C0.609198 270.057 0.554688 270.189 0.554688 270.326C0.554688 270.463 0.609198 270.595 0.70623 270.692C0.803261 270.789 0.934864 270.844 1.07209 270.844C2.08699 270.844 17.7284 270.505 18.0866 270.505C34.1857 296.136 72.2942 303.022 83.8561 304.554C98.4654 306.233 113.208 306.42 127.855 305.111C132.969 304.753 138.163 304.077 140.531 299.798C146.162 301.243 152.013 301.628 157.785 300.932C157.128 333.33 156.869 340.593 157.008 342.185C157.008 342.742 157.008 342.623 157.546 342.643C194.281 343.26 304.328 345.906 314.636 344.911C314.705 344.902 314.769 344.869 314.816 344.819C314.863 344.768 314.891 344.702 314.895 344.633V339.24H322.855C323.009 339.213 323.151 339.14 323.261 339.029C323.372 338.919 323.445 338.777 323.472 338.623C323.472 334.902 323.313 331.16 323.293 327.34C325.092 328.098 326.667 329.304 327.87 330.842C327.372 331.22 324.308 333.349 324.308 333.349C324.193 333.433 324.111 333.556 324.078 333.694C324.046 333.833 324.063 333.979 324.129 334.106C325.701 337.29 329.86 346.145 329.86 346.145L324.348 349.031C324.281 349.065 324.23 349.123 324.205 349.193C324.179 349.263 324.18 349.34 324.208 349.409C332.168 368.453 331.73 367.418 332.029 367.418C378.874 367.418 377.023 367.418 377.202 367.319C377.381 367.219 377.202 368.771 376.486 326.464C376.486 326.265 376.486 326.305 373.839 323.439C373.787 323.4 373.724 323.38 373.66 323.38C373.595 323.38 373.532 323.4 373.481 323.439L369.103 325.708C367.809 321.827 366.277 317.748 364.287 312.693C364.265 312.62 364.228 312.551 364.178 312.493C364.128 312.434 364.066 312.387 363.997 312.353C363.928 312.319 363.853 312.3 363.776 312.297C363.699 312.294 363.622 312.307 363.551 312.335C361.561 313.111 359.571 313.947 357.72 314.783C355.053 299.997 353.601 284.933 349.76 270.386C359.71 269.65 369.938 269.928 378.854 269.888C378.994 269.894 379.13 269.843 379.232 269.748C379.335 269.653 379.396 269.521 379.401 269.381C379.406 269.241 379.356 269.105 379.261 269.002C379.165 268.9 379.033 268.839 378.893 268.834ZM293.781 120.937C294.341 121.257 294.815 121.709 295.162 122.253C295.508 122.798 295.718 123.418 295.771 124.061C294.657 124.061 290.657 124.24 289.324 124.24C289.24 123.677 289.311 123.101 289.529 122.574C289.747 122.048 290.104 121.591 290.562 121.251C291.019 120.912 291.561 120.704 292.128 120.648C292.695 120.593 293.266 120.693 293.781 120.937ZM296.388 140.399C296.388 141.772 296.527 143.862 295.134 144.2C293.741 144.538 292.667 143.086 292.348 142.011C292.156 141.208 292.043 140.388 292.01 139.563C291.891 137.951 291.732 132.001 291.751 130.33C291.751 129.713 290.876 129.753 290.816 130.33C290.586 132.764 290.533 135.211 290.657 137.653C290.601 139.369 290.823 141.082 291.314 142.727C292.468 146.15 296.886 146.568 297.284 142.568C297.529 136.83 297.436 131.082 297.005 125.355C303.771 125.355 317.88 125.215 320.308 125.176C320.686 144.936 323.173 264.874 323.751 284.535C321.381 281.195 318.76 278.042 315.91 275.102C313.92 273.61 310.895 272.953 309.482 275.102C308.069 277.251 308.826 279.679 309.064 282.764C309.98 294.843 315.214 305.489 317.681 311.917C318.602 315.027 320.199 317.895 322.358 320.315C321.761 326.185 322.218 332.076 322.198 337.966C321.999 337.966 172.272 337.091 165.804 337.13C163.575 110.37 163.197 128.758 164.272 124.3C177.326 124.579 164.471 124.579 295.871 125.295C296.07 127.544 296.468 137.076 296.388 140.399ZM324.248 243.023C324.609 244.72 325.067 246.394 325.621 248.038C325.221 247.77 324.794 247.543 324.348 247.362C324.268 245.949 324.248 244.496 324.208 243.023H324.248ZM313.82 344.095C292.05 343.717 170.879 341.727 158.302 341.548C158.74 321.31 162.899 168.08 160.77 148.697L161.088 127.424L162.6 127.106C163.376 171.642 163.556 338.225 165.426 338.225C177.704 338.225 309.502 339.24 313.781 339.24C313.781 340.474 313.741 342.921 313.781 344.095H313.82ZM90.244 303.997C65.966 301.907 44.9914 294.047 29.6087 281.53C26.2351 278.851 23.2424 275.724 20.7134 272.237C13.5693 261.729 12.2957 248.715 12.037 236.178C33.3498 228.079 56.8661 227.923 78.2841 235.74C77.6672 240.755 77.3488 240.735 77.6473 241.193C77.9458 241.65 77.8463 241.392 80.8711 242.008C69.9062 246.605 55.6578 254.864 48.2351 268.396C46.0893 272.631 44.7402 277.225 44.2551 281.948C44.261 282.045 44.301 282.138 44.3679 282.209C44.4349 282.28 44.5247 282.325 44.6216 282.337C44.7186 282.349 44.8166 282.326 44.8987 282.273C44.9808 282.22 45.0418 282.14 45.071 282.047C48.3147 258.904 72.2743 246.605 82.7417 242.406C89.2689 243.819 95.8956 245.372 102.463 247.023C97.283 253.171 93.3828 260.291 90.9908 267.966C88.5988 275.641 87.7631 283.717 88.5326 291.719C88.5549 291.826 88.6136 291.923 88.6988 291.992C88.7839 292.061 88.8904 292.099 89.0002 292.099C89.1101 292.099 89.2165 292.061 89.3017 291.992C89.3869 291.923 89.4456 291.826 89.4679 291.719C88.2806 275.657 93.3586 259.76 103.637 247.362C112.489 249.823 121.008 253.352 129.009 257.869C120.532 269.291 118.462 285.211 123.875 297.669C123.927 297.742 124.003 297.796 124.09 297.821C124.176 297.845 124.269 297.84 124.352 297.805C124.435 297.771 124.505 297.709 124.548 297.63C124.591 297.551 124.607 297.459 124.591 297.37C122.165 290.95 121.385 284.024 122.324 277.224C123.263 270.425 125.889 263.969 129.964 258.446C132.73 259.938 135.457 261.471 137.526 262.645C140.969 264.635 144.651 266.963 145.486 270.605C143.969 269.483 142.092 268.959 140.213 269.132C137.745 269.65 136.551 272.316 135.835 273.888C133.7 278.634 132.829 283.851 133.308 289.032C133.606 293.012 134.601 297.728 139.516 299.559C137.725 302.405 134.203 303.241 131.656 303.539C117.893 304.925 104.034 305.078 90.244 303.997ZM69.3689 213.392C69.4427 213.443 69.5321 213.466 69.6211 213.457C69.7102 213.448 69.7931 213.407 69.8552 213.343C69.9173 213.278 69.9545 213.194 69.9602 213.105C69.9659 213.015 69.9397 212.927 69.8863 212.855C63.099 205.878 54.8603 200.478 45.7539 197.039C36.6475 193.6 26.8963 192.206 17.1911 192.955C19.2832 184.853 22.3503 177.035 26.3252 169.672C34.8788 166.994 44.0304 166.887 52.6444 169.363C61.2585 171.84 68.9559 176.791 74.7817 183.602C75.319 185.274 75.717 186.726 76.0553 187.98C78.0453 195.482 80.8512 206.248 73.1499 205.293C73.0892 205.285 73.0276 205.296 72.9733 205.324C72.9191 205.353 72.8748 205.397 72.8466 205.451C72.8184 205.506 72.8075 205.567 72.8155 205.628C72.8235 205.689 72.8499 205.745 72.8912 205.79C73.9542 207.005 75.4142 207.802 77.0105 208.039C78.8871 216.737 79.3574 225.679 78.4035 234.526C56.9656 226.564 33.358 226.706 12.0171 234.924C11.9947 221.252 13.6251 207.628 16.8727 194.348C26.4728 193.621 36.1176 194.944 45.168 198.227C54.2183 201.51 62.4676 206.679 69.3689 213.392ZM36.9319 154.827C49.1505 147.364 57.21 153.911 66.2048 166.886C69.2103 170.921 71.6662 175.338 73.5081 180.02C67.5414 174.086 60.0921 169.86 51.9368 167.785C43.7815 165.709 35.2187 165.859 27.1411 168.219C29.9081 163.412 33.1911 158.922 36.9319 154.827ZM107.278 237.73C105.892 234.044 104.735 230.276 103.816 226.447C111.599 229.356 119.904 230.603 128.198 230.11C136.492 229.616 144.591 227.392 151.974 223.581C152.065 223.513 152.129 223.415 152.155 223.304C152.18 223.193 152.165 223.077 152.112 222.976C152.059 222.875 151.972 222.797 151.867 222.754C151.761 222.712 151.644 222.709 151.536 222.745C144.098 226.379 135.993 228.448 127.724 228.825C119.454 229.201 111.195 227.877 103.458 224.934C101.816 217.545 100.81 210.028 100.453 202.467C109.308 207.741 121.646 208.557 131.994 208.059C135.617 208.045 139.165 207.026 142.243 205.114C142.351 205.048 142.428 204.942 142.458 204.818C142.488 204.695 142.468 204.565 142.402 204.457C142.336 204.349 142.23 204.271 142.107 204.242C141.983 204.212 141.853 204.232 141.745 204.298C136.432 207.243 130.143 207.024 124.054 206.785C115.835 206.487 107.457 205.353 100.473 200.815C99.9114 189.441 101.004 178.046 103.716 166.985C105.335 171.566 107.486 175.941 110.124 180.02C112.93 184.259 114.801 187.045 118.263 188.676C122.433 190.386 127.108 190.386 131.278 188.676C131.334 188.655 131.383 188.617 131.417 188.567C131.451 188.517 131.469 188.458 131.469 188.398C131.469 188.337 131.451 188.279 131.417 188.229C131.383 188.179 131.334 188.141 131.278 188.119C123.159 186.129 119.338 178.786 118.064 171.662C134.521 180.677 152.312 173.652 157.645 160.558C157.666 160.46 157.654 160.359 157.609 160.27C157.565 160.18 157.491 160.109 157.401 160.067C157.31 160.026 157.208 160.016 157.112 160.04C157.015 160.064 156.93 160.12 156.869 160.2C150.203 173.453 133.089 178.906 117.805 169.931C117.288 165.513 118.104 165.095 116.691 157.334C126.979 165.294 139.815 159.006 138.581 147.165C138.218 144.362 137.119 141.705 135.397 139.464C140.213 138.349 143.059 139.842 149.825 143.901C153.168 145.891 156.471 148.16 159.635 150.409C159.954 158.13 159.954 173.413 159.775 192.199C156.198 195.859 151.587 198.338 146.561 199.303C146.458 199.334 146.37 199.402 146.314 199.495C146.257 199.587 146.237 199.696 146.257 199.802C146.277 199.908 146.335 200.003 146.42 200.069C146.506 200.135 146.613 200.167 146.72 200.159C151.567 199.446 156.083 197.281 159.675 193.95C159.456 216.855 158.979 244.635 158.481 270.107C156.252 270.107 149.188 270.107 146.541 270.266C145.287 264.555 138.959 262.028 134.283 259.302C129.606 256.575 124.333 253.909 119.198 251.541C128.83 252.794 139.516 253.053 148.292 247.561C148.416 247.487 148.506 247.367 148.541 247.227C148.577 247.087 148.555 246.938 148.481 246.814C148.407 246.69 148.287 246.601 148.147 246.565C148.007 246.53 147.859 246.551 147.735 246.625C137.009 252.595 122.203 251.541 112.791 248.834C101.706 245.255 90.4069 242.377 78.9607 240.217C80.814 229.549 80.591 218.623 78.304 208.039C81.7268 207.661 84.4531 204.557 85.9257 201.412C89.7165 215.205 96.892 227.832 106.801 238.148C106.856 238.211 106.935 238.25 107.018 238.255C107.102 238.261 107.185 238.233 107.249 238.178C107.312 238.122 107.351 238.044 107.356 237.96C107.362 237.876 107.334 237.793 107.278 237.73ZM158.461 271.162C158.461 274.465 158.342 277.709 158.282 280.913C154.799 277.344 150.958 274.144 146.82 271.361V271.242C149.168 271.242 156.332 271.281 158.461 271.162ZM140.929 59.3663C140.965 55.8605 141.351 52.3672 142.083 48.9387C142.876 52.3169 144.42 55.473 146.601 58.1723C146.647 58.1951 146.698 58.207 146.75 58.207C146.802 58.207 146.853 58.1951 146.899 58.1723L148.75 57.7345C145.188 62.7493 144.77 68.978 144.77 75.4256C144.77 76.3808 144.77 77.2564 144.869 78.0723C144.305 77.5168 143.621 77.0983 142.87 76.8488C142.119 76.5993 141.32 76.5256 140.536 76.6332C139.752 76.7408 139.002 77.027 138.346 77.4697C137.69 77.9124 137.144 78.4998 136.75 79.1867C136.834 73.049 136.274 66.9194 135.079 60.8986L140.611 59.5852C140.682 59.5969 140.755 59.5807 140.814 59.5399C140.874 59.4991 140.915 59.4368 140.929 59.3663ZM131.198 91.2063C124.114 97.1762 115.895 90.0919 113.646 82.7487C112.293 77.913 111.099 65.0577 116.253 58.431C117.329 57.0457 118.723 55.9393 120.316 55.2051C121.909 54.4709 123.655 54.1303 125.407 54.2122C131.656 54.2122 134.024 60.0031 134.9 66.1522C136.014 74.0723 137.387 86.2113 131.198 91.2063ZM90.642 70.7889C89.2729 70.085 87.7399 69.7617 86.2032 69.8527C84.6664 69.9437 83.1823 70.4457 81.9059 71.3063C80.7716 64.3413 80.6323 63.3463 80.692 51.8441C80.692 44.1627 80.692 33.9341 83.3785 27.1084C88.3933 13.8948 108.85 8.36256 123.178 11.1884C99.6169 25.397 91.6768 55.0281 90.642 70.7889ZM86.1247 71.0078C87.6865 70.9581 89.233 71.3293 90.6022 72.0824C91.438 76.4007 92.6917 83.1069 95.5573 86.3109C99.7363 91.8232 105.189 92.1017 108.751 86.1915C108.776 86.1449 108.788 86.0926 108.785 86.0399C108.783 85.9872 108.767 85.936 108.739 85.8915C108.711 85.847 108.671 85.8109 108.624 85.7866C108.577 85.7624 108.525 85.751 108.472 85.7537C107.378 85.8591 106.274 85.7366 105.229 85.3941C104.185 85.0517 103.222 84.4965 102.403 83.7637C99.3582 80.7787 100.254 75.9429 101.806 73.6147C104.472 69.6347 107.079 71.167 111.338 67.6447C111.036 72.1026 111.223 76.5802 111.895 80.9976C112.369 83.5985 113.407 86.0639 114.937 88.2198C116.467 90.3757 118.452 92.1695 120.751 93.4748C127.377 96.8578 135.855 92.5993 136.671 81.9726C138.283 77.5549 142.481 76.2017 145.228 80.4404C145.924 83.9627 147.456 88.6392 150.82 90.9675C151.919 91.6413 153.178 92.0128 154.467 92.0442C155.756 92.0757 157.031 91.766 158.163 91.1466C154.402 110.529 149.247 129.056 129.845 125.733C129.803 125.724 129.759 125.725 129.717 125.734C129.675 125.744 129.636 125.763 129.602 125.79C129.568 125.816 129.54 125.85 129.52 125.888C129.5 125.926 129.489 125.968 129.487 126.011C129.487 127.484 129.089 135.026 128.949 137.215C128.947 137.287 128.97 137.358 129.013 137.416C129.056 137.474 129.118 137.515 129.188 137.533C130.775 137.902 132.293 138.52 133.686 139.364C135.149 141.319 136.26 143.515 136.969 145.852C139.556 158.13 126.124 164.1 116.373 155.384C114.542 146.309 110.403 133.494 105.089 113.952C103.895 109.534 100.234 98.5692 89.7664 92.9773C89.6949 92.9569 89.619 92.9569 89.5475 92.9773C88.4928 93.236 82.9208 94.2509 79.5975 90.9874C76.2742 87.7237 77.7866 71.0078 86.1247 71.0078ZM158.919 89.1566C154.74 92.3406 150.68 90.8083 148.352 85.8531C147.096 83.2075 146.372 80.3405 146.223 77.4156C146.145 74.2686 146.238 71.1198 146.501 67.983C147.198 61.5553 150.223 54.8092 156.69 54.8092C158.318 54.8351 159.926 55.1728 161.426 55.8042C164.451 57.4161 165.187 64.4607 164.809 71.3063C163.874 86.2512 160.292 88.1217 158.919 89.1566ZM325.144 286.167C325.144 284.853 325.144 281.808 324.984 277.43C326.875 280.455 328.347 283.722 329.362 287.142C329.105 288.185 328.668 289.175 328.069 290.067L325.144 286.167ZM324.765 267.54C327.078 270.541 328.88 273.903 330.099 277.49C330.099 278.983 329.959 282.465 329.78 284.634C328.547 281.312 326.917 278.152 324.925 275.222C324.885 273.013 324.825 270.446 324.765 267.58V267.54ZM330.138 274.406C328.81 271.2 326.983 268.225 324.726 265.59C324.606 260.515 324.487 254.705 324.328 248.436C325.142 248.724 325.84 249.269 326.318 249.988C329.294 257.803 330.596 266.155 330.138 274.505V274.406ZM137.407 273.033C139.397 268.933 141.924 269.669 145.725 272.057C150.31 274.927 154.492 278.393 158.163 282.366C158.163 284.356 158.163 286.346 158.043 288.455C155.677 286.599 153.074 285.066 150.302 283.898C150.238 283.882 150.172 283.879 150.107 283.889C150.041 283.899 149.979 283.922 149.922 283.956C149.866 283.991 149.817 284.035 149.778 284.089C149.739 284.142 149.711 284.202 149.695 284.266C149.68 284.33 149.677 284.397 149.687 284.462C149.697 284.527 149.719 284.589 149.754 284.646C149.788 284.702 149.833 284.751 149.886 284.79C149.939 284.829 149.999 284.857 150.063 284.873C152.852 286.313 155.514 287.983 158.023 289.868V294.803C156.05 293.568 153.852 292.736 151.556 292.355C151.478 292.34 151.398 292.342 151.321 292.362C151.244 292.381 151.173 292.418 151.111 292.468C151.05 292.518 151.001 292.582 150.967 292.654C150.933 292.725 150.916 292.803 150.916 292.883C150.916 292.962 150.933 293.04 150.967 293.112C151.001 293.184 151.05 293.247 151.111 293.298C151.173 293.348 151.244 293.384 151.321 293.404C151.398 293.423 151.478 293.425 151.556 293.41C153.795 294.019 155.938 294.937 157.924 296.136C158.083 296.236 158.043 295.719 157.924 299.878C152.994 300.353 148.021 300.119 143.158 299.181C137.805 298.286 135.337 295.858 134.641 290.803C133.735 284.769 134.7 278.601 137.407 273.132V273.033ZM323.512 321.051C324.776 321.845 326.263 322.208 327.75 322.086C327.868 322.063 327.974 321.999 328.049 321.907C328.125 321.814 328.167 321.698 328.167 321.579C328.167 321.459 328.125 321.343 328.049 321.25C327.974 321.158 327.868 321.095 327.75 321.071C326.945 321.13 326.136 321.017 325.378 320.739C324.62 320.461 323.929 320.025 323.353 319.459C320.865 317.211 319.691 313.37 318.258 309.788C313.801 298.564 309.92 288.395 310.298 277.51C310.298 274.625 312.646 274.207 315.014 275.779C317.383 277.351 330.258 294.923 332.387 297.45C332.474 297.563 332.603 297.638 332.745 297.656C332.887 297.675 333.03 297.636 333.143 297.549C333.257 297.462 333.331 297.334 333.35 297.192C333.368 297.05 333.33 296.907 333.243 296.793C331.85 294.803 330.357 292.813 328.944 290.962L329.044 290.843C329.92 289.808 331.034 288.375 331.392 278.804C331.85 262.884 330.636 258.744 327.969 250.824C326.898 247.853 326.046 244.806 325.422 241.71C325.064 239.72 324.507 236.496 326.596 235.203C328.686 233.909 330.397 236.715 331.87 237.969C350.556 256.655 351.77 287.56 356.844 315.041C350.138 317.191 334.656 326.643 328.984 329.986C327.561 328.147 325.631 326.764 323.432 326.006C323.333 324.454 323.333 322.802 323.512 321.151V321.051ZM330.895 345.488C330.895 345.488 326.815 337.031 325.382 333.907C330.696 330.444 347.173 320.474 354.934 317.25C357.799 316.056 360.605 314.643 363.451 313.449C365.182 317.808 366.774 322.245 368.108 326.046L330.895 345.488ZM336.506 42.8493C336.984 19.5464 317.243 0.601562 293.542 0.601562C269.841 0.601562 250.121 19.5464 250.578 42.8493C251.693 98.7484 335.392 98.7682 336.506 42.8493ZM256.489 42.8493C257.464 -5.36844 329.641 -5.38834 330.596 42.8493C331.014 62.9284 313.98 79.2663 293.542 79.2663C273.105 79.2663 256.091 62.9284 256.489 42.8493Z" fill="black"/>
<path d="M293.484 21.5958C293.484 21.4744 293.435 21.358 293.349 21.2721C293.264 21.1863 293.147 21.1381 293.026 21.1381C292.904 21.1381 292.788 21.1863 292.702 21.2721C292.616 21.358 292.568 21.4744 292.568 21.5958C292.707 41.8739 292.568 47.8638 292.747 49.7543C292.747 50.7493 293.006 51.0876 294.26 50.6299C300.294 48.2909 306.528 46.5058 312.886 45.2967C313.01 45.2703 313.119 45.1957 313.188 45.0893C313.257 44.983 313.281 44.8535 313.254 44.7295C313.228 44.6055 313.153 44.497 313.047 44.428C312.94 44.3589 312.811 44.335 312.687 44.3614C306.367 45.2854 300.163 46.8798 294.18 49.1175C294.12 43.8838 293.603 26.4315 293.484 21.5958ZM269.942 28.3817C270.078 28.4798 270.245 28.5255 270.412 28.5103C270.579 28.4951 270.735 28.4201 270.852 28.299C270.968 28.1779 271.036 28.019 271.045 27.8513C271.053 27.6837 271.001 27.5187 270.897 27.3867C270.34 26.929 268.35 25.0783 267.892 24.5609C267.797 24.4606 267.666 24.4022 267.528 24.3984C267.39 24.3947 267.256 24.446 267.156 24.541C267.056 24.636 266.997 24.7669 266.993 24.905C266.99 25.0431 267.041 25.177 267.136 25.2773C267.614 25.8146 269.444 27.9041 269.942 28.3817ZM277.146 20.959C277.216 21.0727 277.318 21.1631 277.44 21.2187C277.562 21.2743 277.697 21.2926 277.829 21.2713C277.961 21.25 278.084 21.1901 278.182 21.0991C278.28 21.008 278.348 20.8901 278.379 20.76C278.479 20.3819 278.379 20.2426 277.743 19.3869C277.19 18.591 276.679 17.7674 276.21 16.9193C275.872 16.2626 274.917 16.7999 275.235 17.4566C275.773 18.6753 276.412 19.8468 277.146 20.959ZM309.404 20.6008C310.502 19.4845 311.538 18.3086 312.508 17.0785C312.59 16.9732 312.631 16.841 312.621 16.7076C312.611 16.5743 312.552 16.4494 312.455 16.3573C312.358 16.2653 312.23 16.2127 312.096 16.2099C311.963 16.2071 311.833 16.2543 311.732 16.3422C310.597 17.4044 309.521 18.527 308.508 19.7053C308.409 19.8276 308.359 19.9821 308.368 20.1391C308.376 20.2961 308.442 20.4444 308.553 20.5556C308.664 20.6667 308.813 20.7329 308.97 20.7412C309.127 20.7495 309.281 20.6995 309.404 20.6008ZM317.781 31.2473C318.06 31.2473 318.12 31.2473 320.11 29.6951L321.344 28.7797C321.452 28.7111 321.528 28.6023 321.556 28.4773C321.584 28.3522 321.561 28.2212 321.493 28.113C321.424 28.0048 321.315 27.9283 321.19 27.9003C321.065 27.8723 320.934 27.8952 320.826 27.9638C320.269 28.322 318.04 29.5558 317.364 29.9538C317.227 30.0342 317.122 30.1586 317.066 30.3066C317.01 30.4545 317.006 30.6172 317.055 30.7678C317.103 30.9185 317.202 31.048 317.334 31.1351C317.466 31.2223 317.624 31.2618 317.781 31.2473ZM309.782 66.5897C309.66 66.4551 309.49 66.3742 309.309 66.3649C309.128 66.3556 308.951 66.4185 308.816 66.5399C308.682 66.6613 308.601 66.8312 308.592 67.0122C308.582 67.1932 308.645 67.3705 308.767 67.5051C309.165 68.0026 310.916 70.1717 311.294 70.7289C311.672 71.2861 312.627 70.7289 312.229 70.1518C311.831 69.5747 310.279 67.1867 309.782 66.5897ZM319.354 57.0178C319.208 56.9493 319.044 56.9332 318.888 56.9721C318.732 57.0111 318.594 57.1028 318.498 57.2316C318.402 57.3604 318.354 57.5184 318.361 57.6789C318.368 57.8394 318.43 57.9925 318.538 58.1123C318.737 58.2914 321.344 60.361 321.562 60.5998C321.663 60.6876 321.793 60.7348 321.927 60.732C322.061 60.7292 322.188 60.6766 322.285 60.5846C322.382 60.4926 322.442 60.3677 322.451 60.2343C322.461 60.101 322.421 59.9687 322.339 59.8635C321.4 58.8577 320.403 57.9075 319.354 57.0178ZM275.574 66.1519C275.508 66.2224 275.464 66.3105 275.448 66.4053C275.432 66.5001 275.443 66.5977 275.481 66.6862C275.519 66.7746 275.582 66.8502 275.662 66.9037C275.742 66.9572 275.835 66.9864 275.932 66.9877C276.171 66.9877 276.25 66.8882 276.748 66.4305C277.951 65.4255 279.033 64.2835 279.971 63.0276C280.449 62.3311 279.374 61.4953 278.837 62.1719C277.827 63.5604 276.737 64.8893 275.574 66.1519ZM267.375 57.575C267.554 57.575 267.633 57.575 268.23 57.177C269.245 56.6397 271.116 55.6447 271.594 55.3263C271.749 55.2365 271.863 55.0886 271.91 54.9151C271.956 54.7416 271.932 54.5566 271.842 54.4009C271.753 54.2452 271.605 54.1315 271.431 54.0849C271.258 54.0382 271.073 54.0624 270.917 54.1522C270.201 54.5303 267.335 56.5601 267.116 56.6795C267.021 56.7316 266.946 56.8147 266.905 56.9149C266.863 57.0151 266.857 57.1265 266.887 57.2308C266.917 57.3351 266.982 57.426 267.07 57.4885C267.159 57.5511 267.266 57.5816 267.375 57.575ZM264.469 40.1028C263.942 40.1028 263.435 40.3124 263.062 40.6856C262.689 41.0588 262.479 41.565 262.479 42.0928C262.479 42.6205 262.689 43.1267 263.062 43.4999C263.435 43.8731 263.942 44.0828 264.469 44.0828C264.997 44.0828 265.503 43.8731 265.876 43.4999C266.25 43.1267 266.459 42.6205 266.459 42.0928C266.459 41.565 266.25 41.0588 265.876 40.6856C265.503 40.3124 264.997 40.1028 264.469 40.1028ZM293.344 15.5064C293.872 15.5064 294.378 15.2967 294.751 14.9235C295.125 14.5503 295.334 14.0441 295.334 13.5164C295.334 12.9886 295.125 12.4824 294.751 12.1092C294.378 11.736 293.872 11.5264 293.344 11.5264C292.816 11.5264 292.31 11.736 291.937 12.1092C291.564 12.4824 291.354 12.9886 291.354 13.5164C291.354 14.0441 291.564 14.5503 291.937 14.9235C292.31 15.2967 292.816 15.5064 293.344 15.5064ZM293.484 69.6344C292.956 69.6344 292.45 69.844 292.076 70.2172C291.703 70.5904 291.494 71.0966 291.494 71.6244C291.494 72.1521 291.703 72.6583 292.076 73.0315C292.45 73.4047 292.956 73.6144 293.484 73.6144C294.011 73.6144 294.517 73.4047 294.891 73.0315C295.264 72.6583 295.474 72.1521 295.474 71.6244C295.474 71.0966 295.264 70.5904 294.891 70.2172C294.517 69.844 294.011 69.6344 293.484 69.6344ZM324.269 44.8589C324.797 44.8589 325.303 44.6492 325.676 44.276C326.049 43.9028 326.259 43.3966 326.259 42.8689C326.259 42.3411 326.049 41.8349 325.676 41.4617C325.303 41.0885 324.797 40.8789 324.269 40.8789C323.741 40.8789 323.235 41.0885 322.862 41.4617C322.488 41.8349 322.279 42.3411 322.279 42.8689C322.279 43.3966 322.488 43.9028 322.862 44.276C323.235 44.6492 323.741 44.8589 324.269 44.8589ZM241.525 275.798C241.06 275.798 240.615 275.983 240.286 276.311C239.958 276.64 239.773 277.085 239.773 277.55C239.773 278.014 239.958 278.459 240.286 278.788C240.615 279.116 241.06 279.301 241.525 279.301C241.989 279.301 242.435 279.116 242.763 278.788C243.091 278.459 243.276 278.014 243.276 277.55C243.276 277.085 243.091 276.64 242.763 276.311C242.435 275.983 241.989 275.798 241.525 275.798ZM241.525 284.534C241.06 284.534 240.615 284.719 240.286 285.047C239.958 285.376 239.773 285.821 239.773 286.286C239.773 286.75 239.958 287.195 240.286 287.524C240.615 287.852 241.06 288.037 241.525 288.037C241.989 288.037 242.435 287.852 242.763 287.524C243.091 287.195 243.276 286.75 243.276 286.286C243.276 285.821 243.091 285.376 242.763 285.047C242.435 284.719 241.989 284.534 241.525 284.534ZM300.787 186.845C301.217 186.799 301.614 186.596 301.903 186.275C302.192 185.953 302.352 185.536 302.352 185.104C302.352 184.672 302.192 184.255 301.903 183.934C301.614 183.612 301.217 183.409 300.787 183.363C300.357 183.409 299.96 183.612 299.671 183.934C299.382 184.255 299.222 184.672 299.222 185.104C299.222 185.536 299.382 185.953 299.671 186.275C299.96 186.596 300.357 186.799 300.787 186.845ZM301.304 171.92C301.769 171.92 302.214 171.736 302.543 171.407C302.871 171.079 303.055 170.634 303.055 170.169C303.055 169.705 302.871 169.259 302.543 168.931C302.214 168.602 301.769 168.418 301.304 168.418C300.84 168.418 300.394 168.602 300.066 168.931C299.738 169.259 299.553 169.705 299.553 170.169C299.553 170.634 299.738 171.079 300.066 171.407C300.394 171.736 300.84 171.92 301.304 171.92ZM301.304 161.115C301.734 161.069 302.131 160.865 302.42 160.544C302.709 160.222 302.869 159.806 302.869 159.373C302.869 158.941 302.709 158.524 302.42 158.203C302.131 157.881 301.734 157.678 301.304 157.632C300.875 157.678 300.477 157.881 300.188 158.203C299.899 158.524 299.739 158.941 299.739 159.373C299.739 159.806 299.899 160.222 300.188 160.544C300.477 160.865 300.875 161.069 301.304 161.115Z" fill="black"/>
</svg>
