<svg width="1920" height="7059" viewBox="0 0 1920 7059" fill="none" xmlns="http://www.w3.org/2000/svg">
<g clip-path="url(#clip0_2188_1759)">
<rect width="1921" height="7059" transform="matrix(1 0 0 -1 0 7059)" fill="url(#paint0_linear_2188_1759)"/>
<rect width="1921" height="7059" transform="matrix(1 0 0 -1 0 7059)" fill="url(#paint1_radial_2188_1759)"/>
<rect width="1921" height="7059" transform="matrix(1 0 0 -1 0 7059)" fill="url(#paint2_radial_2188_1759)"/>
<circle cx="193.382" cy="1645.38" r="480.316" transform="rotate(26.5574 193.382 1645.38)" fill="url(#paint3_radial_2188_1759)"/>
<ellipse cx="1396.3" cy="2237.45" rx="1010.3" ry="742.455" fill="url(#paint4_radial_2188_1759)"/>
<path d="M-22.5 2475C-22.5 2439.86 0.539983 2403.33 49.4289 2367.84C98.152 2332.47 170.142 2299.96 261.705 2272.42C353.171 2244.92 461.935 2223.05 581.811 2208.12C701.672 2193.19 830.186 2185.5 960 2185.5C1089.81 2185.5 1218.33 2193.19 1338.19 2208.12C1458.07 2223.05 1566.83 2244.92 1658.3 2272.42C1749.86 2299.96 1821.85 2332.47 1870.57 2367.84C1919.46 2403.33 1942.5 2439.86 1942.5 2475" stroke="white" stroke-width="17"/>
<path d="M-28.5 2517.5C-28.5 2485.3 -3.86242 2452.73 45.7564 2421.85C95.2515 2391.04 167.972 2362.95 259.881 2339.26C351.76 2315.57 460.883 2296.77 581.026 2283.93C701.165 2271.1 829.942 2264.5 960 2264.5C1090.06 2264.5 1218.83 2271.1 1338.97 2283.93C1459.12 2296.76 1568.24 2315.57 1660.12 2339.25C1752.03 2362.95 1824.75 2391.04 1874.24 2421.85C1923.86 2452.73 1948.5 2485.3 1948.5 2517.5" stroke="white" stroke-width="5"/>
<path d="M-28.5 2517.5C-28.5 2507.84 -22.7347 2497.79 -10.3622 2487.53C1.98424 2477.29 20.5712 2467.13 45.3605 2457.25C94.9172 2437.51 167.709 2419.53 259.664 2404.35C351.59 2389.19 460.755 2377.15 580.931 2368.94C701.104 2360.73 829.912 2356.5 960 2356.5C1090.09 2356.5 1218.9 2360.73 1339.07 2368.94C1459.24 2377.15 1568.41 2389.19 1660.34 2404.35C1752.29 2419.53 1825.08 2437.51 1874.64 2457.25C1899.43 2467.13 1918.02 2477.29 1930.36 2487.53C1942.73 2497.79 1948.5 2507.84 1948.5 2517.5" stroke="white" stroke-width="5"/>
<g clip-path="url(#clip1_2188_1759)">
<circle cx="251.382" cy="208.383" r="480.316" transform="rotate(26.5574 251.382 208.383)" fill="url(#paint5_radial_2188_1759)"/>
<circle cx="192.849" cy="207.849" r="186.98" transform="rotate(26.5574 192.849 207.849)" fill="url(#paint6_radial_2188_1759)"/>
</g>
<circle cx="704.765" cy="753.329" r="108.667" transform="rotate(26.5574 704.765 753.329)" fill="url(#paint7_radial_2188_1759)"/>
<circle cx="712.176" cy="797.407" r="42.3026" transform="rotate(26.5574 712.176 797.407)" fill="url(#paint8_radial_2188_1759)"/>
<circle cx="1353.58" cy="6750.97" r="428.426" transform="rotate(26.5574 1353.58 6750.97)" fill="url(#paint9_radial_2188_1759)"/>
<g clip-path="url(#clip2_2188_1759)">
<circle cx="116.134" cy="4024.13" r="585.969" transform="rotate(3.97005 116.134 4024.13)" fill="url(#paint10_radial_2188_1759)"/>
</g>
<circle cx="1689.62" cy="4720.79" r="201.415" transform="rotate(80.9392 1689.62 4720.79)" fill="url(#paint11_radial_2188_1759)"/>
<circle cx="1672.78" cy="4739.78" r="78.4082" transform="rotate(80.9392 1672.78 4739.78)" fill="url(#paint12_radial_2188_1759)"/>
<path opacity="0.6" d="M-533.999 2730.48L-287.905 2541.67C-180.72 2459.43 -26.0287 2537.89 -29.0601 2672.95V2672.95C-31.9862 2803.33 113.244 2882.86 221.518 2810.18L251.574 2790C368.216 2711.71 525.558 2791.51 531.291 2931.88L532.025 2949.85C537.984 3095.75 699.592 3180.54 823.027 3102.52L849.365 3085.88C971.019 3008.99 1130.67 3089.97 1140.5 3233.54L1143.65 3279.47C1152.75 3412.29 1306.83 3480.71 1411.46 3398.38V3398.38C1518.37 3314.25 1675.51 3387.67 1679.58 3523.66L1685.01 3705.52C1687.82 3799.69 1741.86 3884.81 1825.89 3927.43L1972.87 4001.98" stroke="white" stroke-width="17"/>
<path opacity="0.6" d="M-1012.57 3984.48L-825.902 3730.46C-740.908 3614.8 -560.865 3642.85 -515.094 3778.89V3778.89C-471.011 3909.92 -300.571 3942.28 -211.531 3836.53L-186.847 3807.22C-90.7345 3693.07 92.1954 3721.57 149.02 3859.55L156.02 3876.55C215.031 4019.84 403.628 4051.99 506.79 3936.36L528.497 3912.03C630.252 3797.97 815.799 3826.88 878.026 3966.49L898.136 4011.61C955.508 4140.33 1130.99 4158.08 1212.97 4043.45V4043.45C1296.85 3926.16 1477.25 3948.06 1530.64 4082.01L1598.07 4251.19C1634.97 4343.77 1718.01 4409.98 1816.48 4425.32L1997.8 4453.58" stroke="white" stroke-width="17"/>
<circle cx="148.382" cy="1621.38" r="480.316" transform="rotate(26.5574 148.382 1621.38)" fill="url(#paint13_radial_2188_1759)"/>
<circle cx="205.849" cy="1820.85" r="186.98" transform="rotate(26.5574 205.849 1820.85)" fill="url(#paint14_radial_2188_1759)"/>
<circle cx="1758.79" cy="3053.79" r="108.667" transform="rotate(26.5574 1758.79 3053.79)" fill="url(#paint15_radial_2188_1759)"/>
<circle cx="1766.2" cy="3097.86" r="42.3026" transform="rotate(26.5574 1766.2 3097.86)" fill="url(#paint16_radial_2188_1759)"/>
<circle cx="811.631" cy="5321.64" r="480.316" transform="rotate(-95.9648 811.631 5321.64)" fill="url(#paint17_radial_2188_1759)"/>
<g clip-path="url(#clip3_2188_1759)">
<g opacity="0.3" filter="url(#filter0_f_2188_1759)">
<circle cx="1630.59" cy="227.585" r="422.327" transform="rotate(26.5574 1630.59 227.585)" fill="#4189F5"/>
</g>
<g filter="url(#filter1_f_2188_1759)">
<circle cx="1221.78" cy="659.784" r="93.0123" transform="rotate(26.5574 1221.78 659.784)" fill="#4189F5"/>
</g>
<circle cx="1269.4" cy="647.398" r="186.98" transform="rotate(-95.9648 1269.4 647.398)" fill="url(#paint18_radial_2188_1759)"/>
<circle cx="1788.46" cy="153.457" r="250.757" transform="rotate(-95.9648 1788.46 153.457)" fill="url(#paint19_radial_2188_1759)"/>
<circle cx="1084.37" cy="-9.62893" r="108.667" transform="rotate(-95.9648 1084.37 -9.62893)" fill="url(#paint20_radial_2188_1759)"/>
<circle cx="1816.12" cy="122.119" r="91.0265" transform="rotate(26.5574 1816.12 122.119)" fill="url(#paint21_radial_2188_1759)"/>
</g>
</g>
<defs>
<filter id="filter0_f_2188_1759" x="1172.16" y="-230.834" width="916.844" height="916.838" filterUnits="userSpaceOnUse" color-interpolation-filters="sRGB">
<feFlood flood-opacity="0" result="BackgroundImageFix"/>
<feBlend mode="normal" in="SourceGraphic" in2="BackgroundImageFix" result="shape"/>
<feGaussianBlur stdDeviation="18" result="effect1_foregroundBlur_2188_1759"/>
</filter>
<filter id="filter1_f_2188_1759" x="1092.75" y="530.751" width="258.07" height="258.065" filterUnits="userSpaceOnUse" color-interpolation-filters="sRGB">
<feFlood flood-opacity="0" result="BackgroundImageFix"/>
<feBlend mode="normal" in="SourceGraphic" in2="BackgroundImageFix" result="shape"/>
<feGaussianBlur stdDeviation="18" result="effect1_foregroundBlur_2188_1759"/>
</filter>
<linearGradient id="paint0_linear_2188_1759" x1="1921" y1="8970.2" x2="-1422.34" y2="8404.38" gradientUnits="userSpaceOnUse">
<stop stop-color="#E0E5FF"/>
<stop offset="0.46166" stop-color="#E8F8FF"/>
<stop offset="1" stop-color="#E7E9FA"/>
</linearGradient>
<radialGradient id="paint1_radial_2188_1759" cx="0" cy="0" r="1" gradientUnits="userSpaceOnUse" gradientTransform="translate(331.506 1244.17) rotate(83.8263) scale(5848.75 1740.4)">
<stop stop-color="#E2FBFD"/>
<stop offset="0.385417" stop-color="#FDF3E2" stop-opacity="0"/>
</radialGradient>
<radialGradient id="paint2_radial_2188_1759" cx="0" cy="0" r="1" gradientUnits="userSpaceOnUse" gradientTransform="translate(1676.21 5153.55) rotate(113.784) scale(2484.25 1564.5)">
<stop stop-color="white"/>
<stop offset="1" stop-color="white" stop-opacity="0"/>
</radialGradient>
<radialGradient id="paint3_radial_2188_1759" cx="0" cy="0" r="1" gradientUnits="userSpaceOnUse" gradientTransform="translate(193.382 1646.21) rotate(90) scale(479.487)">
<stop stop-color="#97C1FF"/>
<stop offset="1" stop-color="#E3F0FC" stop-opacity="0"/>
</radialGradient>
<radialGradient id="paint4_radial_2188_1759" cx="0" cy="0" r="1" gradientUnits="userSpaceOnUse" gradientTransform="translate(1396.3 2238.74) rotate(114.408) scale(596.366 747.775)">
<stop stop-color="#FBF2E3"/>
<stop offset="1" stop-color="#FDF3E2" stop-opacity="0"/>
</radialGradient>
<radialGradient id="paint5_radial_2188_1759" cx="0" cy="0" r="1" gradientUnits="userSpaceOnUse" gradientTransform="translate(251.382 209.213) rotate(90) scale(479.487)">
<stop stop-color="#97C1FF"/>
<stop offset="1" stop-color="#E3F0FC" stop-opacity="0"/>
</radialGradient>
<radialGradient id="paint6_radial_2188_1759" cx="0" cy="0" r="1" gradientUnits="userSpaceOnUse" gradientTransform="translate(192.849 208.172) rotate(90) scale(186.657)">
<stop stop-color="#EDFCFF" stop-opacity="0.85"/>
<stop offset="1" stop-color="#E3F0FC" stop-opacity="0"/>
</radialGradient>
<radialGradient id="paint7_radial_2188_1759" cx="0" cy="0" r="1" gradientUnits="userSpaceOnUse" gradientTransform="translate(704.765 753.516) rotate(90) scale(108.479)">
<stop stop-color="#BED8FF" stop-opacity="0.85"/>
<stop offset="1" stop-color="#E3F0FC" stop-opacity="0"/>
</radialGradient>
<radialGradient id="paint8_radial_2188_1759" cx="0" cy="0" r="1" gradientUnits="userSpaceOnUse" gradientTransform="translate(712.176 797.48) rotate(90) scale(42.2295)">
<stop stop-color="#EDFCFF" stop-opacity="0.85"/>
<stop offset="1" stop-color="#E3F0FC" stop-opacity="0"/>
</radialGradient>
<radialGradient id="paint9_radial_2188_1759" cx="0" cy="0" r="1" gradientUnits="userSpaceOnUse" gradientTransform="translate(1353.58 6751.71) rotate(90) scale(427.686)">
<stop stop-color="#97C1FF"/>
<stop offset="1" stop-color="#E3F0FC" stop-opacity="0"/>
</radialGradient>
<radialGradient id="paint10_radial_2188_1759" cx="0" cy="0" r="1" gradientUnits="userSpaceOnUse" gradientTransform="translate(116.134 4025.14) rotate(90) scale(584.957)">
<stop stop-color="#97C1FF"/>
<stop offset="1" stop-color="#E3F0FC" stop-opacity="0"/>
</radialGradient>
<radialGradient id="paint11_radial_2188_1759" cx="0" cy="0" r="1" gradientUnits="userSpaceOnUse" gradientTransform="translate(1689.62 4721.14) rotate(90) scale(201.068)">
<stop stop-color="#BED8FF" stop-opacity="0.85"/>
<stop offset="1" stop-color="#E3F0FC" stop-opacity="0"/>
</radialGradient>
<radialGradient id="paint12_radial_2188_1759" cx="0" cy="0" r="1" gradientUnits="userSpaceOnUse" gradientTransform="translate(1672.78 4739.91) rotate(90) scale(78.2727)">
<stop stop-color="#EDFCFF" stop-opacity="0.85"/>
<stop offset="1" stop-color="#E3F0FC" stop-opacity="0"/>
</radialGradient>
<radialGradient id="paint13_radial_2188_1759" cx="0" cy="0" r="1" gradientUnits="userSpaceOnUse" gradientTransform="translate(148.382 1622.21) rotate(90) scale(479.487)">
<stop stop-color="#97C1FF"/>
<stop offset="1" stop-color="#E3F0FC" stop-opacity="0"/>
</radialGradient>
<radialGradient id="paint14_radial_2188_1759" cx="0" cy="0" r="1" gradientUnits="userSpaceOnUse" gradientTransform="translate(205.849 1821.17) rotate(90) scale(186.657)">
<stop stop-color="#EDFCFF" stop-opacity="0.85"/>
<stop offset="1" stop-color="#E3F0FC" stop-opacity="0"/>
</radialGradient>
<radialGradient id="paint15_radial_2188_1759" cx="0" cy="0" r="1" gradientUnits="userSpaceOnUse" gradientTransform="translate(1758.79 3053.97) rotate(90) scale(108.479)">
<stop stop-color="#BED8FF" stop-opacity="0.85"/>
<stop offset="1" stop-color="#E3F0FC" stop-opacity="0"/>
</radialGradient>
<radialGradient id="paint16_radial_2188_1759" cx="0" cy="0" r="1" gradientUnits="userSpaceOnUse" gradientTransform="translate(1766.2 3097.94) rotate(90) scale(42.2295)">
<stop stop-color="#EDFCFF" stop-opacity="0.85"/>
<stop offset="1" stop-color="#E3F0FC" stop-opacity="0"/>
</radialGradient>
<radialGradient id="paint17_radial_2188_1759" cx="0" cy="0" r="1" gradientUnits="userSpaceOnUse" gradientTransform="translate(811.631 5322.47) rotate(90) scale(479.487)">
<stop stop-color="#BED8FF" stop-opacity="0.85"/>
<stop offset="1" stop-color="#E3F0FC" stop-opacity="0"/>
</radialGradient>
<radialGradient id="paint18_radial_2188_1759" cx="0" cy="0" r="1" gradientUnits="userSpaceOnUse" gradientTransform="translate(1269.4 647.721) rotate(90) scale(186.657)">
<stop stop-color="#FEEDFF" stop-opacity="0.85"/>
<stop offset="1" stop-color="#E3F0FC" stop-opacity="0"/>
</radialGradient>
<radialGradient id="paint19_radial_2188_1759" cx="0" cy="0" r="1" gradientUnits="userSpaceOnUse" gradientTransform="translate(1788.46 153.89) rotate(90) scale(250.324)">
<stop stop-color="#FEEDFF" stop-opacity="0.85"/>
<stop offset="1" stop-color="#E3F0FC" stop-opacity="0"/>
</radialGradient>
<radialGradient id="paint20_radial_2188_1759" cx="0" cy="0" r="1" gradientUnits="userSpaceOnUse" gradientTransform="translate(1084.37 -9.44125) rotate(90) scale(108.479)">
<stop stop-color="#BED8FF" stop-opacity="0.85"/>
<stop offset="1" stop-color="#E3F0FC" stop-opacity="0"/>
</radialGradient>
<radialGradient id="paint21_radial_2188_1759" cx="0" cy="0" r="1" gradientUnits="userSpaceOnUse" gradientTransform="translate(1816.12 122.277) rotate(90) scale(90.8693)">
<stop stop-color="#EDFCFF" stop-opacity="0.85"/>
<stop offset="1" stop-color="#E3F0FC" stop-opacity="0"/>
</radialGradient>
<clipPath id="clip0_2188_1759">
<rect width="1920" height="7059" fill="white"/>
</clipPath>
<clipPath id="clip1_2188_1759">
<rect width="673" height="630" fill="white"/>
</clipPath>
<clipPath id="clip2_2188_1759">
<rect width="848" height="1162" fill="white" transform="translate(0 3473)"/>
</clipPath>
<clipPath id="clip3_2188_1759">
<rect width="980" height="819" fill="white" transform="translate(940)"/>
</clipPath>
</defs>
</svg>
