<svg xmlns="http://www.w3.org/2000/svg" width="208" height="114" viewBox="0 0 208 114" fill="none">
  <path d="M207.343 2.21737C205.633 -0.627207 200.647 -0.362032 197.708 0.939725L155.313 20.225C146.618 24.1785 154.374 31.7239 161.504 28.4936L189.446 15.7894C178.558 40.0888 161.745 73.0908 135.585 77.9362C114.942 81.7691 98.177 65.1597 82.3031 55.1073C47.3516 33.0015 12.6411 83.553 0.404456 109.757C-2.53426 116.073 11.4367 114.578 13.4601 110.215C20.2115 95.3486 29.4677 81.7552 40.8238 70.0292C49.5918 61.2544 59.3956 55.6858 71.2227 62.05C81.0506 67.3293 89.0959 75.3086 99.3091 80.2504C142.258 101.054 173.427 67.8355 193.709 32.3988V54.601C193.709 61.9535 207.849 59.8563 207.849 53.5403V4.5316C207.849 4.36286 207.849 4.21822 207.849 4.07358C208.007 3.75594 208.042 3.39133 207.949 3.0491C207.856 2.70686 207.64 2.41086 207.343 2.21737Z" fill="white"/>
</svg>