<svg xmlns="http://www.w3.org/2000/svg" width="228" height="96" viewBox="0 0 228 96" fill="none">
  <path d="M10.0258 43.1965C10.5937 36.7821 11.1688 30.3711 11.7511 23.9635C12.9612 26.2732 14.2677 28.4054 15.5728 30.4845C26.304 47.28 44.7001 61.1595 62.669 69.1274C68.1503 71.6221 74.0698 73.009 80.0876 73.2086L80.6112 73.7685C91.2022 84.4595 117.361 94.2635 136.748 90.9239C138.986 92.4085 141.461 93.4983 144.066 94.146C160.041 97.9825 179.157 89.4066 193.437 83.1871C204.347 78.4411 214.923 72.9631 225.094 66.7905C230.375 63.595 226.885 58.8275 221.724 61.9615C204.491 72.3897 182.004 83.9695 160.845 86.8975C156.797 87.5801 152.654 87.4412 148.66 86.4889C153.414 83.4196 156.923 78.7609 158.562 73.3432C163.012 59.4225 143.313 60.7693 135.899 64.3795C126.18 69.1093 125.676 77.1778 129.734 83.8096C123.805 83.2654 117.953 82.0677 112.286 80.2385C105.061 78.2933 98.2389 75.0765 92.1401 70.7389C94.1728 69.7781 96.0398 68.5004 97.6715 66.9534C103.305 61.5785 106.545 52.5919 101.263 45.8318C95.5101 38.4574 84.5091 42.0097 78.7809 47.2224C76.4561 49.2796 74.8075 51.992 74.0515 55.0038C73.2955 58.0156 73.4674 61.186 74.5447 64.099C72.7475 63.5182 71.0865 62.8702 69.666 62.2958C50.0287 54.0892 33.4024 40.0156 22.0607 21.9995C19.7525 18.3825 18.0259 14.4256 16.9441 10.2734L43.9031 15.2917C48.1084 16.0717 54.4174 8.47215 49.0448 7.47225L11.5267 0.475985C8.54752 -0.0696382 4.69169 2.23541 4.40773 5.44259C3.26554 18.7137 2.07604 32.0019 0.83923 45.3072C0.450225 50.8361 9.68446 47.4771 10.0258 43.1965ZM139.374 69.5455C152.165 65.4704 152.485 78.8248 141.745 82.4076L141.54 82.4818C137.154 78.5913 132.519 71.7936 139.428 69.5972L139.374 69.5455ZM84.6011 62.8153C82.328 59.3915 80.9764 52.7975 84.7629 49.8573C88.1909 47.2075 92.8109 50.5137 94.4239 53.6411C95.1496 55.2962 95.3509 57.1339 95.0008 58.9066C94.6506 60.6793 93.7659 62.3019 92.4656 63.5559C90.8606 64.8204 88.928 65.6001 86.8949 65.8035C86.0884 64.8719 85.3405 63.8913 84.6555 62.867L84.6011 62.8153Z" fill="white"/>
</svg>