<svg width="430" height="8668" viewBox="0 0 430 8668" fill="none" xmlns="http://www.w3.org/2000/svg">
<g clip-path="url(#clip0_2188_2121)">
<rect width="430" height="8668" fill="white"/>
<rect width="430" height="8668" transform="matrix(1 0 0 -1 0 8668)" fill="url(#paint0_linear_2188_2121)"/>
<rect width="430" height="8668" transform="matrix(1 0 0 -1 0 8668)" fill="url(#paint1_radial_2188_2121)"/>
<rect width="430" height="8668" transform="matrix(1 0 0 -1 0 8668)" fill="url(#paint2_radial_2188_2121)"/>
<g clip-path="url(#clip1_2188_2121)">
<path d="M-17.6245 1942.81C-17.6245 1914.5 -6.92626 1886.05 14.5942 1859.04C36.1599 1831.96 68.0842 1806.99 108.891 1785.77C149.668 1764.57 198.27 1747.65 251.965 1736.08C305.647 1724.52 363.247 1718.56 421.457 1718.56C479.668 1718.56 537.268 1724.52 590.95 1736.08C644.644 1747.65 693.246 1764.56 734.024 1785.77C774.83 1806.99 806.755 1831.96 828.32 1859.04C849.841 1886.05 860.539 1914.5 860.539 1942.81" stroke="white" stroke-width="17"/>
<path d="M-23.5 1976C-23.5 1950.39 -13.9842 1924.91 4.70497 1901C23.407 1877.08 50.908 1855.24 85.7376 1836.79C120.559 1818.34 161.955 1803.68 207.573 1793.67C253.188 1783.66 302.096 1778.5 351.5 1778.5C400.904 1778.5 449.812 1783.66 495.427 1793.67C541.045 1803.68 582.441 1818.34 617.262 1836.79C652.092 1855.24 679.593 1877.08 698.295 1901C716.984 1924.91 726.5 1950.39 726.5 1976" stroke="white" stroke-width="5"/>
<path d="M-23.5 1964.5C-23.5 1947.11 -15.6947 1929.69 -0.128971 1913.22C15.451 1896.73 38.4108 1881.63 67.5578 1868.86C96.6893 1856.09 131.332 1845.94 169.519 1839C207.701 1832.07 248.642 1828.5 290 1828.5C331.358 1828.5 372.299 1832.07 410.481 1839C448.668 1845.94 483.311 1856.09 512.442 1868.86C541.589 1881.63 564.549 1896.73 580.129 1913.22C595.695 1929.69 603.5 1947.11 603.5 1964.5" stroke="white" stroke-width="5"/>
</g>
<circle cx="382.873" cy="3914.88" r="143.718" transform="rotate(-95.9648 382.873 3914.88)" fill="url(#paint3_radial_2188_2121)"/>
<circle cx="364.372" cy="3726.63" r="108.667" transform="rotate(-95.9648 364.372 3726.63)" fill="url(#paint4_radial_2188_2121)"/>
<circle cx="397.545" cy="3696.53" r="42.3026" transform="rotate(-95.9648 397.545 3696.53)" fill="url(#paint5_radial_2188_2121)"/>
<circle cx="275.631" cy="5635.12" r="480.316" transform="rotate(-95.9648 275.631 5635.12)" fill="url(#paint6_radial_2188_2121)"/>
<circle cx="79.6312" cy="4746.12" r="480.316" transform="rotate(-95.9648 79.6312 4746.12)" fill="url(#paint7_radial_2188_2121)"/>
<circle cx="56.7529" cy="234.41" r="155.386" transform="rotate(26.5574 56.7529 234.41)" fill="url(#paint8_radial_2188_2121)"/>
<g clip-path="url(#clip2_2188_2121)">
<circle cx="384.782" cy="2809.48" r="316.401" transform="rotate(26.5574 384.782 2809.48)" fill="url(#paint9_radial_2188_2121)"/>
<path opacity="0.6" d="M-128.002 2733.39L-59.1249 2680.55C-29.1258 2657.53 14.1693 2679.49 13.3208 2717.29V2717.29C12.5019 2753.78 53.1488 2776.04 83.4526 2755.7L91.8647 2750.05C124.511 2728.14 168.547 2750.47 170.152 2789.76L170.357 2794.79C172.025 2835.62 217.256 2859.35 251.803 2837.52L254.337 2835.92L259.175 2832.86C293.223 2811.34 337.907 2834.01 340.659 2874.19L341.539 2887.04C344.085 2924.22 387.211 2943.37 416.493 2920.32V2920.32C446.417 2896.78 490.398 2917.33 491.535 2955.39L493.055 3006.29C493.843 3032.64 508.966 3056.47 532.484 3068.39L573.622 3089.26" stroke="white" stroke-width="37"/>
<circle cx="41.7888" cy="3013.79" r="108.667" transform="rotate(26.5574 41.7888 3013.79)" fill="url(#paint10_radial_2188_2121)"/>
</g>
<g clip-path="url(#clip3_2188_2121)">
<circle cx="46.5456" cy="-31.4573" r="235.948" transform="rotate(26.5574 46.5456 -31.4573)" fill="url(#paint11_radial_2188_2121)"/>
<g opacity="0.3" filter="url(#filter0_f_2188_2121)">
<circle cx="334.221" cy="610.649" r="208.871" transform="rotate(26.5574 334.221 610.649)" fill="#4189F5"/>
</g>
<g filter="url(#filter1_f_2188_2121)">
<circle cx="67.0485" cy="725.046" r="48.9505" transform="rotate(26.5574 67.0485 725.046)" fill="#4189F5"/>
</g>
<g filter="url(#filter2_f_2188_2121)">
<circle cx="343.339" cy="150.598" r="25.9228" transform="rotate(-50.6995 343.339 150.598)" fill="#4189F5"/>
</g>
<g filter="url(#filter3_f_2188_2121)">
<circle cx="401.169" cy="212.969" r="9.40234" transform="rotate(-50.6995 401.169 212.969)" fill="#4189F5"/>
</g>
<circle cx="92.0985" cy="718.528" r="98.404" transform="rotate(-95.9648 92.0985 718.528)" fill="url(#paint12_radial_2188_2121)"/>
<circle cx="342.895" cy="136.898" r="52.112" transform="rotate(-173.222 342.895 136.898)" fill="url(#paint13_radial_2188_2121)"/>
<circle cx="401.001" cy="208" r="18.9013" transform="rotate(-173.222 401.001 208)" fill="url(#paint14_radial_2188_2121)"/>
<circle cx="342.612" cy="548.043" r="164.416" transform="rotate(-95.9648 342.612 548.043)" fill="url(#paint15_radial_2188_2121)"/>
</g>
</g>
<defs>
<filter id="filter0_f_2188_2121" x="101.7" y="378.128" width="465.045" height="465.042" filterUnits="userSpaceOnUse" color-interpolation-filters="sRGB">
<feFlood flood-opacity="0" result="BackgroundImageFix"/>
<feBlend mode="normal" in="SourceGraphic" in2="BackgroundImageFix" result="shape"/>
<feGaussianBlur stdDeviation="11.8022" result="effect1_foregroundBlur_2188_2121"/>
</filter>
<filter id="filter1_f_2188_2121" x="-5.51846" y="652.481" width="145.131" height="145.131" filterUnits="userSpaceOnUse" color-interpolation-filters="sRGB">
<feFlood flood-opacity="0" result="BackgroundImageFix"/>
<feBlend mode="normal" in="SourceGraphic" in2="BackgroundImageFix" result="shape"/>
<feGaussianBlur stdDeviation="11.8022" result="effect1_foregroundBlur_2188_2121"/>
</filter>
<filter id="filter2_f_2188_2121" x="293.81" y="101.069" width="99.0604" height="99.056" filterUnits="userSpaceOnUse" color-interpolation-filters="sRGB">
<feFlood flood-opacity="0" result="BackgroundImageFix"/>
<feBlend mode="normal" in="SourceGraphic" in2="BackgroundImageFix" result="shape"/>
<feGaussianBlur stdDeviation="11.8022" result="effect1_foregroundBlur_2188_2121"/>
</filter>
<filter id="filter3_f_2188_2121" x="368.161" y="179.962" width="66.0135" height="66.014" filterUnits="userSpaceOnUse" color-interpolation-filters="sRGB">
<feFlood flood-opacity="0" result="BackgroundImageFix"/>
<feBlend mode="normal" in="SourceGraphic" in2="BackgroundImageFix" result="shape"/>
<feGaussianBlur stdDeviation="11.8022" result="effect1_foregroundBlur_2188_2121"/>
</filter>
<linearGradient id="paint0_linear_2188_2121" x1="430" y1="11014.8" x2="-339.083" y2="10991.1" gradientUnits="userSpaceOnUse">
<stop stop-color="#E0E5FF"/>
<stop offset="0.46166" stop-color="#E8F8FF"/>
<stop offset="1" stop-color="#E7E9FA"/>
</linearGradient>
<radialGradient id="paint1_radial_2188_2121" cx="0" cy="0" r="1" gradientUnits="userSpaceOnUse" gradientTransform="translate(74.2049 1527.76) rotate(88.8704) scale(7141.63 391.77)">
<stop stop-color="#FDF3E2"/>
<stop offset="0.385417" stop-color="#FDF3E2" stop-opacity="0"/>
</radialGradient>
<radialGradient id="paint2_radial_2188_2121" cx="0" cy="0" r="1" gradientUnits="userSpaceOnUse" gradientTransform="translate(375.205 6328.23) rotate(94.5931) scale(2800.42 381.473)">
<stop stop-color="white"/>
<stop offset="1" stop-color="white" stop-opacity="0"/>
</radialGradient>
<radialGradient id="paint3_radial_2188_2121" cx="0" cy="0" r="1" gradientUnits="userSpaceOnUse" gradientTransform="translate(382.873 3915.12) rotate(90) scale(143.47)">
<stop stop-color="#BED8FF" stop-opacity="0.85"/>
<stop offset="1" stop-color="#E3F0FC" stop-opacity="0"/>
</radialGradient>
<radialGradient id="paint4_radial_2188_2121" cx="0" cy="0" r="1" gradientUnits="userSpaceOnUse" gradientTransform="translate(364.372 3726.82) rotate(90) scale(108.479)">
<stop stop-color="#BED8FF" stop-opacity="0.85"/>
<stop offset="1" stop-color="#E3F0FC" stop-opacity="0"/>
</radialGradient>
<radialGradient id="paint5_radial_2188_2121" cx="0" cy="0" r="1" gradientUnits="userSpaceOnUse" gradientTransform="translate(397.545 3696.6) rotate(90) scale(42.2295)">
<stop stop-color="#EDFCFF" stop-opacity="0.85"/>
<stop offset="1" stop-color="#E3F0FC" stop-opacity="0"/>
</radialGradient>
<radialGradient id="paint6_radial_2188_2121" cx="0" cy="0" r="1" gradientUnits="userSpaceOnUse" gradientTransform="translate(275.631 5635.95) rotate(90) scale(479.487)">
<stop stop-color="#BED8FF" stop-opacity="0.85"/>
<stop offset="1" stop-color="#E3F0FC" stop-opacity="0"/>
</radialGradient>
<radialGradient id="paint7_radial_2188_2121" cx="0" cy="0" r="1" gradientUnits="userSpaceOnUse" gradientTransform="translate(79.6312 4746.95) rotate(90) scale(479.487)">
<stop stop-color="#BED8FF" stop-opacity="0.85"/>
<stop offset="1" stop-color="#E3F0FC" stop-opacity="0"/>
</radialGradient>
<radialGradient id="paint8_radial_2188_2121" cx="0" cy="0" r="1" gradientUnits="userSpaceOnUse" gradientTransform="translate(56.7529 234.678) rotate(90) scale(155.118)">
<stop stop-color="#EDFCFF" stop-opacity="0.85"/>
<stop offset="1" stop-color="#E3F0FC" stop-opacity="0"/>
</radialGradient>
<radialGradient id="paint9_radial_2188_2121" cx="0" cy="0" r="1" gradientUnits="userSpaceOnUse" gradientTransform="translate(384.782 2810.02) rotate(90) scale(315.855)">
<stop stop-color="#97C1FF"/>
<stop offset="1" stop-color="#E3F0FC" stop-opacity="0"/>
</radialGradient>
<radialGradient id="paint10_radial_2188_2121" cx="0" cy="0" r="1" gradientUnits="userSpaceOnUse" gradientTransform="translate(41.7888 3013.97) rotate(90) scale(108.479)">
<stop stop-color="#BED8FF" stop-opacity="0.85"/>
<stop offset="1" stop-color="#E3F0FC" stop-opacity="0"/>
</radialGradient>
<radialGradient id="paint11_radial_2188_2121" cx="0" cy="0" r="1" gradientUnits="userSpaceOnUse" gradientTransform="translate(46.5456 -31.0498) rotate(90) scale(235.54)">
<stop stop-color="#97C1FF"/>
<stop offset="1" stop-color="#E3F0FC" stop-opacity="0"/>
</radialGradient>
<radialGradient id="paint12_radial_2188_2121" cx="0" cy="0" r="1" gradientUnits="userSpaceOnUse" gradientTransform="translate(92.0985 718.698) rotate(90) scale(98.234)">
<stop stop-color="#FEEDFF" stop-opacity="0.85"/>
<stop offset="1" stop-color="#E3F0FC" stop-opacity="0"/>
</radialGradient>
<radialGradient id="paint13_radial_2188_2121" cx="0" cy="0" r="1" gradientUnits="userSpaceOnUse" gradientTransform="translate(342.895 136.988) rotate(90) scale(52.022)">
<stop stop-color="#FEEDFF" stop-opacity="0.85"/>
<stop offset="1" stop-color="#E3F0FC" stop-opacity="0"/>
</radialGradient>
<radialGradient id="paint14_radial_2188_2121" cx="0" cy="0" r="1" gradientUnits="userSpaceOnUse" gradientTransform="translate(401.001 208.033) rotate(90) scale(18.8686)">
<stop stop-color="#FEEDFF" stop-opacity="0.85"/>
<stop offset="1" stop-color="#E3F0FC" stop-opacity="0"/>
</radialGradient>
<radialGradient id="paint15_radial_2188_2121" cx="0" cy="0" r="1" gradientUnits="userSpaceOnUse" gradientTransform="translate(342.612 548.327) rotate(90) scale(164.132)">
<stop stop-color="#FEEDFF" stop-opacity="0.85"/>
<stop offset="1" stop-color="#E3F0FC" stop-opacity="0"/>
</radialGradient>
<clipPath id="clip0_2188_2121">
<rect width="430" height="8668" fill="white"/>
</clipPath>
<clipPath id="clip1_2188_2121">
<rect width="430" height="466" fill="white" transform="translate(0 1710)"/>
</clipPath>
<clipPath id="clip2_2188_2121">
<rect width="430" height="849" fill="white" transform="translate(0 2385)"/>
</clipPath>
<clipPath id="clip3_2188_2121">
<rect width="430" height="919" fill="white"/>
</clipPath>
</defs>
</svg>
