<svg xmlns="http://www.w3.org/2000/svg" width="14" height="14" viewBox="0 0 14 14" fill="none">
  <g clip-path="url(#clip0_4003_271)">
    <path d="M12.5031 6.44587L7.14226 11.8067C6.48552 12.4634 5.59478 12.8324 4.66601 12.8324C3.73724 12.8324 2.8465 12.4634 2.18976 11.8067C1.53302 11.15 1.16406 10.2592 1.16406 9.33045C1.16406 8.40168 1.53302 7.51094 2.18976 6.8542L7.55059 1.49337C7.98842 1.05554 8.58224 0.80957 9.20143 0.80957C9.82061 0.80957 10.4144 1.05554 10.8523 1.49337C11.2901 1.9312 11.5361 2.52502 11.5361 3.1442C11.5361 3.76338 11.2901 4.35721 10.8523 4.79503L5.48559 10.1559C5.26668 10.3748 4.96977 10.4978 4.66018 10.4978C4.35058 10.4978 4.05367 10.3748 3.83476 10.1559C3.61584 9.93695 3.49286 9.64004 3.49286 9.33045C3.49286 9.02086 3.61584 8.72395 3.83476 8.50503L8.78726 3.55837" stroke="#1B181B" stroke-width="1.3" stroke-linecap="round" stroke-linejoin="round"/>
  </g>
  <defs>
    <clipPath id="clip0_4003_271">
      <rect width="14" height="14" fill="white"/>
    </clipPath>
  </defs>
</svg>