<svg width="162" height="38" viewBox="0 0 162 38" fill="none" xmlns="http://www.w3.org/2000/svg">
<g clip-path="url(#clip0_2121_902)">
<path d="M2.09483 2.67387H0V0.246094H2.44397V2.67387H2.09483ZM19.0978 24.2776H17.0379V21.8498H19.4819V24.2776H19.0978ZM10.5789 24.2776H8.51897V21.8498H10.9629V24.2776H10.5789ZM2.09483 24.2776H0.0349133V21.8498H2.47888V24.2776H2.09483ZM10.5789 17.0646H8.51897V14.6368H10.9629V17.0646H10.5789ZM2.09483 17.0646H0.0349133V14.6368H2.47888V17.0646H2.09483ZM19.0978 17.0646H17.0379V14.6368H19.4819V17.0646H19.0978ZM27.5819 17.0646H25.4871V14.6368H27.931V17.0646H27.5819ZM10.5789 9.88683H8.51897V7.45906H10.9629V9.88683H10.5789ZM2.09483 9.88683H0V7.45906H2.44397V9.88683H2.09483ZM19.0978 9.88683H17.003V7.45906H19.447V9.88683H19.0978ZM27.5819 9.88683H25.4871V7.45906H27.931V9.88683H27.5819ZM10.5789 2.67387H8.51897V0.246094H10.9629V2.67387H10.5789ZM19.0978 2.67387H17.003V0.246094H19.447V2.67387H19.0978ZM27.5819 2.67387H25.4871V0.246094H27.931V2.67387H27.5819ZM36.0659 2.67387H34.006V0.246094H36.45V2.67387H36.0659ZM36.0659 9.88683H34.006V7.45906H36.45V9.88683H36.0659Z" fill="#236BD7"/>
<path d="M53.8022 24.9463C53.8371 25.1574 53.872 25.3685 53.9418 25.5796C54.4306 27.2685 56.0017 28.3944 57.8871 29.0278C59.9121 29.7315 62.2862 29.8722 64.2065 29.5907C64.6953 29.5203 65.1841 29.4148 65.6379 29.2741C66.406 29.0278 67.244 28.7111 67.9073 28.2185C68.5009 27.7963 68.9897 27.2333 69.1991 26.5648C69.7578 24.6648 68.8151 23.5037 67.3487 22.7648C65.6379 21.8852 63.2289 21.4981 61.553 21.287C57.503 20.7241 54.5353 19.7037 52.6151 18.2259C50.5552 16.6426 49.6474 14.5315 49.822 11.8574C49.9966 9.2185 51.2884 7.10739 53.4181 5.69998C55.478 4.32776 58.341 3.58887 61.8323 3.58887C65.2888 3.62405 68.047 4.50368 70.0371 6.05183C72.1668 7.70553 73.3888 10.0629 73.5285 12.8426L73.5634 13.8629H68.3263V12.8778C68.3263 11.4703 67.6629 10.45 66.7203 9.78146C65.3586 8.79627 63.3685 8.40924 61.6578 8.40924C59.528 8.40924 57.8172 8.79627 56.6302 9.46479C55.5828 10.0629 54.9892 10.9426 54.8845 11.9981V12.1037C54.8496 12.7722 54.7099 15.3055 62.3909 16.2907C67.628 16.9592 70.7353 18.3315 72.481 20.0203C74.3664 21.8148 74.8203 23.8555 74.7504 25.7907C74.6806 27.937 73.4237 30.4 70.7703 32.1592C68.7453 33.4963 65.8823 34.4111 62.1466 34.4111C59.0043 34.4111 55.3384 33.7074 52.5802 31.9129C50.3457 30.4352 48.7397 28.2537 48.4953 25.1222L48.4254 24.0666H53.6625L53.8022 24.9463ZM0 30.4352C15.7461 36.5926 24.2651 28.5 32.5047 20.6537C33.7966 19.4222 35.0884 18.1907 36.4151 16.9944V23.6796L35.8565 24.2074C26.7091 32.8981 17.2474 41.9055 0 35.7481V30.4352ZM160.918 34.2352H156.903V3.79998H161.895V34.2352H160.918ZM138.573 22.8352L133.196 10.9778L127.854 22.8352H138.573ZM117.764 32.8278L131.276 3.83516H134.977C139.725 13.9685 144.403 24.1018 149.117 34.2703H143.74L140.598 27.3389H125.515L122.408 34.2703H117.031L117.764 32.8278ZM93.0453 20.8296L88.1224 26.037V34.3055H83.0948V3.83516H88.1224V19.2463L102.716 3.83516H109.28L96.4319 17.3111L110.432 34.2703H104.043L93.0453 20.8296Z" fill="#236BD7"/>
</g>
<defs>
<clipPath id="clip0_2121_902">
<rect width="162" height="38" fill="white"/>
</clipPath>
</defs>
</svg>
