<svg width="162" height="38" viewBox="0 0 162 38" fill="none" xmlns="http://www.w3.org/2000/svg">
<g clip-path="url(#clip0_2258_609)">
<path d="M2.09483 2.67387H0V0.246094H2.44397V2.67387H2.09483ZM19.0978 24.2776H17.0379V21.8498H19.4819V24.2776H19.0978ZM10.5789 24.2776H8.51897V21.8498H10.9629V24.2776H10.5789ZM2.09483 24.2776H0.0349133V21.8498H2.47888V24.2776H2.09483ZM10.5789 17.0646H8.51897V14.6368H10.9629V17.0646H10.5789ZM2.09483 17.0646H0.0349133V14.6368H2.47888V17.0646H2.09483ZM19.0978 17.0646H17.0379V14.6368H19.4819V17.0646H19.0978ZM27.5819 17.0646H25.4871V14.6368H27.931V17.0646H27.5819ZM10.5789 9.88683H8.51897V7.45906H10.9629V9.88683H10.5789ZM2.09483 9.88683H0V7.45906H2.44397V9.88683H2.09483ZM19.0978 9.88683H17.003V7.45906H19.447V9.88683H19.0978ZM27.5819 9.88683H25.4871V7.45906H27.931V9.88683H27.5819ZM10.5789 2.67387H8.51897V0.246094H10.9629V2.67387H10.5789ZM19.0978 2.67387H17.003V0.246094H19.447V2.67387H19.0978ZM27.5819 2.67387H25.4871V0.246094H27.931V2.67387H27.5819ZM36.0659 2.67387H34.006V0.246094H36.45V2.67387H36.0659ZM36.0659 9.88683H34.006V7.45906H36.45V9.88683H36.0659Z" fill="#236BD7"/>
<path d="M53.8022 24.9453C53.8371 25.1564 53.872 25.3675 53.9418 25.5786C54.4306 27.2675 56.0017 28.3934 57.8871 29.0268C59.9121 29.7305 62.2862 29.8712 64.2065 29.5897C64.6953 29.5194 65.1841 29.4138 65.6379 29.2731C66.406 29.0268 67.244 28.7101 67.9073 28.2175C68.5009 27.7953 68.9897 27.2323 69.1991 26.5638C69.7578 24.6638 68.8151 23.5027 67.3487 22.7638C65.6379 21.8842 63.2289 21.4972 61.553 21.286C57.503 20.7231 54.5353 19.7027 52.6151 18.2249C50.5552 16.6416 49.6474 14.5305 49.822 11.8564C49.9966 9.21752 51.2884 7.10641 53.4181 5.699C55.478 4.32678 58.341 3.58789 61.8323 3.58789C65.2888 3.62308 68.047 4.50271 70.0371 6.05085C72.1668 7.70456 73.3888 10.062 73.5285 12.8416L73.5634 13.862H68.3263V12.8768C68.3263 11.4694 67.6629 10.449 66.7203 9.78048C65.3586 8.7953 63.3685 8.40826 61.6578 8.40826C59.528 8.40826 57.8172 8.7953 56.6302 9.46382C55.5828 10.062 54.9892 10.9416 54.8845 11.9971V12.1027C54.8496 12.7712 54.7099 15.3046 62.3909 16.2897C67.628 16.9583 70.7353 18.3305 72.481 20.0194C74.3664 21.8138 74.8203 23.8546 74.7504 25.7897C74.6806 27.936 73.4237 30.399 70.7703 32.1583C68.7453 33.4953 65.8823 34.4101 62.1466 34.4101C59.0043 34.4101 55.3384 33.7064 52.5802 31.912C50.3457 30.4342 48.7397 28.2527 48.4953 25.1212L48.4254 24.0657H53.6625L53.8022 24.9453ZM0 30.4342C15.7461 36.5916 24.2651 28.499 32.5047 20.6527C33.7966 19.4212 35.0884 18.1897 36.4151 16.9934V23.6786L35.8565 24.2064C26.7091 32.8972 17.2474 41.9046 0 35.7471V30.4342ZM160.918 34.2342H156.903V3.799H161.895V34.2342H160.918ZM138.573 22.8342L133.196 10.9768L127.854 22.8342H138.573ZM117.764 32.8268L131.276 3.83419H134.977C139.725 13.9675 144.403 24.1009 149.117 34.2694H143.74L140.598 27.3379H125.515L122.408 34.2694H117.031L117.764 32.8268ZM93.0453 20.8286L88.1224 26.036V34.3046H83.0948V3.83419H88.1224V19.2453L102.716 3.83419H109.28L96.4319 17.3101L110.432 34.2694H104.043L93.0453 20.8286Z" fill="#236BD7"/>
</g>
<defs>
<clipPath id="clip0_2258_609">
<rect width="162" height="38" fill="white"/>
</clipPath>
</defs>
</svg>
