<svg width="30" height="30" viewBox="0 0 30 30" fill="none" xmlns="http://www.w3.org/2000/svg">
<path d="M23.2949 7.15008C23.2949 7.15008 25.1451 6.41422 24.9909 8.20131C24.9395 8.93717 24.477 11.5127 24.1172 14.2984L22.8838 22.5506C22.8838 22.5506 22.781 23.7595 21.8559 23.9697C20.9308 24.1799 19.5432 23.2339 19.2862 23.0236C19.0807 22.8659 15.4318 20.5007 14.147 19.3443C13.7872 19.0289 13.3761 18.3982 14.1983 17.6623L19.5946 12.4062C20.2113 11.7755 20.8281 10.3038 18.2584 12.0909L11.0634 17.0842C11.0634 17.0842 10.2411 17.6098 8.69934 17.1368L5.35877 16.0855C5.35877 16.0855 4.12534 15.2971 6.23245 14.5087C11.3718 12.0383 17.6931 9.51532 23.2949 7.15008Z" fill="#1B181B"/>
</svg>
